<?xml version="1.0" encoding="UTF-8" standalone="no"?>
<svg
   xmlns:dc="http://purl.org/dc/elements/1.1/"
   xmlns:cc="http://creativecommons.org/ns#"
   xmlns:rdf="http://www.w3.org/1999/02/22-rdf-syntax-ns#"
   xmlns:svg="http://www.w3.org/2000/svg"
   xmlns="http://www.w3.org/2000/svg"
   xmlns:sodipodi="http://sodipodi.sourceforge.net/DTD/sodipodi-0.dtd"
   xmlns:inkscape="http://www.inkscape.org/namespaces/inkscape"
   version="1.1"
   x="0px"
   y="0px"
   viewBox="0 0 50 50"
   enable-background="new 0 0 100 100"
   xml:space="preserve"
   id="svg8"
   sodipodi:docname="noun_assistance_1086382.svg"
   inkscape:version="0.92.3 (2405546, 2018-03-11)"
   width="50"
   height="50"><metadata
     id="metadata14"><rdf:RDF><cc:Work
         rdf:about=""><dc:format>image/svg+xml</dc:format><dc:type
           rdf:resource="http://purl.org/dc/dcmitype/StillImage" /><dc:title></dc:title></cc:Work></rdf:RDF></metadata><defs
     id="defs12" /><sodipodi:namedview
     pagecolor="#ffffff"
     bordercolor="#666666"
     borderopacity="1"
     objecttolerance="10"
     gridtolerance="10"
     guidetolerance="10"
     inkscape:pageopacity="0"
     inkscape:pageshadow="2"
     inkscape:window-width="1920"
     inkscape:window-height="1001"
     id="namedview10"
     showgrid="false"
     inkscape:zoom="1.888"
     inkscape:cx="39"
     inkscape:cy="26.5"
     inkscape:window-x="-9"
     inkscape:window-y="-9"
     inkscape:window-maximized="1"
     inkscape:current-layer="svg8" /><path
     d="m 49.398305,25.036017 c 0,-4.0096 -0.940468,-7.795164 -2.602277,-11.152499 V 7.7532595 c 0,-2.8164494 -2.279922,-5.1208171 -5.066493,-5.1208171 H 35.597812 C 32.310291,0.99506117 28.612385,0.0720339 24.699153,0.0720339 c -3.913233,0 -7.611139,0.92302727 -10.89866,2.5604085 H 7.5307083 c -2.7865711,0 -5.0664929,2.3043677 -5.0664929,5.1208171 V 14.156841 C 0.88600293,17.445686 0,21.135875 0,25.036017 c 0,3.900142 0.88600293,7.590331 2.4642154,10.879176 v 6.403581 c 0,2.81645 2.2799218,5.120817 5.0664929,5.120817 H 13.800493 C 17.088014,49.076973 20.78592,50 24.699153,50 c 3.913232,0 7.611138,-0.923027 10.898659,-2.560409 h 6.131723 c 2.786571,0 5.066493,-2.304367 5.066493,-5.120817 v -6.130258 c 1.661809,-3.357335 2.602277,-7.142899 2.602277,-11.152499 z m -6.315383,11.319566 -2.731473,-1.917106 c -0.215326,-0.151064 -0.511716,-0.09665 -0.661177,0.120339 -0.149462,0.216995 -0.09563,0.517203 0.119062,0.668267 l 2.759972,1.936309 c -0.400886,0.601696 -0.830905,1.182269 -1.287522,1.739157 l -1.525015,-1.266762 c -0.202659,-0.168347 -0.502216,-0.138902 -0.668777,0.06657 -0.167194,0.204833 -0.137428,0.507601 0.06523,0.675948 l 1.506649,1.250759 c -0.518683,0.579293 -1.069664,1.12786 -1.647244,1.647623 L 36.911934,38.97104 c -0.177961,-0.195231 -0.478151,-0.206753 -0.671311,-0.02752 -0.19316,0.179869 -0.205193,0.483277 -0.02787,0.678508 l 2.077263,2.280044 c -0.608613,0.50184 -1.246991,0.968474 -1.908802,1.401824 l -1.327421,-2.161625 c -0.138695,-0.225956 -0.431918,-0.294447 -0.654211,-0.154905 -0.222925,0.140182 -0.291323,0.43591 -0.153261,0.661226 l 1.326788,2.160344 c -0.687777,0.409025 -1.400252,0.779645 -2.13426,1.109937 L 32.52878,42.420555 c -0.0912,-0.249 -0.363521,-0.37574 -0.609879,-0.284206 -0.246358,0.09218 -0.372387,0.367419 -0.281824,0.616419 l 0.924635,2.538645 c -1.003799,0.399423 -2.043696,0.724595 -3.11336,0.969114 v -8.679785 c 3.519313,-1.362777 6.31285,-4.186267 7.661171,-7.743315 h 8.587705 c -0.267257,1.19251 -0.628245,2.349175 -1.08043,3.458472 l -1.661809,-0.799488 c -0.236859,-0.113938 -0.519949,-0.01216 -0.633312,0.227237 -0.112729,0.239398 -0.01203,0.525523 0.224826,0.639462 l 1.687775,0.811649 c -0.344521,0.7502 -0.727041,1.479276 -1.15136,2.180828 z M 12.288145,20.235251 H 3.7004397 C 5.5243771,12.08355 11.883459,5.6562849 19.948682,3.8127907 v 8.6797853 c -3.518679,1.362137 -6.312217,4.185627 -7.660537,7.742675 z m -9.121587,4.800766 c 0,-0.976796 0.070298,-1.936949 0.1944267,-2.88046 h 8.3521133 c -0.200126,0.928789 -0.313489,1.890862 -0.313489,2.88046 0,0.989598 0.113363,1.951671 0.313489,2.88046 H 3.3609847 C 3.2368556,26.972966 3.166558,26.012813 3.166558,25.036017 Z m 0.534515,4.800766 h 8.587705 c 1.348321,3.557047 4.141858,6.380538 7.661171,7.743315 v 8.679785 C 11.884092,44.415749 5.5250104,37.988484 3.701073,29.836783 Z m 9.598471,-4.800766 c 0,-6.353654 5.113991,-11.521838 11.399609,-11.521838 6.285617,0 11.399608,5.168184 11.399608,11.521838 0,6.353654 -5.113991,11.521838 -11.399608,11.521838 -6.285618,0 -11.399609,-5.168184 -11.399609,-11.521838 z m 24.385663,-2.88046 h 8.352113 c 0.124129,0.943511 0.194427,1.903664 0.194427,2.88046 0,0.976796 -0.0703,1.936949 -0.194427,2.88046 h -8.352113 c 0.200126,-0.928789 0.313489,-1.890862 0.313489,-2.88046 0,-0.989598 -0.113363,-1.951671 -0.313489,-2.88046 z M 37.11016,20.235251 C 35.76184,16.678203 32.968302,13.854713 29.44899,12.491936 V 3.8121506 C 37.514213,5.6556448 43.873295,12.08291 45.697232,20.234611 H 37.11016 Z M 41.729535,4.5527488 c 1.74604,0 3.166558,1.4357491 3.166558,3.2005107 V 10.674045 C 43.23555,8.2928655 41.175387,6.2195748 38.811235,4.5527488 Z M 27.549055,3.4690559 v 8.4423071 c -0.918935,-0.202912 -1.870803,-0.317491 -2.849902,-0.317491 -0.9791,0 -1.930968,0.114579 -2.849903,0.317491 V 3.4690559 c 0.933502,-0.12546 1.883469,-0.1965114 2.849903,-0.1965114 0.966433,0 1.9164,0.071051 2.849902,0.1965114 z M 4.3641503,7.7532595 c 0,-1.7647616 1.4205179,-3.2005107 3.166558,-3.2005107 H 10.587703 C 8.1576868,6.2656621 6.0474925,8.4068037 4.3641503,10.871197 Z m 3.166558,37.7660255 c -1.7460401,0 -3.166558,-1.435749 -3.166558,-3.200511 v -3.117937 c 1.6833422,2.464393 3.7935365,4.605535 6.2235527,6.318448 z M 21.84925,46.602978 v -8.442307 c 0.918935,0.202912 1.870803,0.317491 2.849903,0.317491 0.979099,0 1.930967,-0.114579 2.849902,-0.317491 v 8.442307 c -0.933502,0.12546 -1.883469,0.196511 -2.849902,0.196511 -0.966434,0 -1.916401,-0.07105 -2.849903,-0.196511 z m 23.046843,-4.284204 c 0,1.764762 -1.420518,3.200511 -3.166558,3.200511 h -2.9183 c 2.364152,-1.666826 4.424315,-3.740757 6.084858,-6.121297 z"
     id="path2"
     inkscape:connector-curvature="0"
     style="stroke-width:0.63669783" /></svg>