<?xml version="1.0" encoding="UTF-8" standalone="no"?>
<svg
   xmlns:dc="http://purl.org/dc/elements/1.1/"
   xmlns:cc="http://creativecommons.org/ns#"
   xmlns:rdf="http://www.w3.org/1999/02/22-rdf-syntax-ns#"
   xmlns:svg="http://www.w3.org/2000/svg"
   xmlns="http://www.w3.org/2000/svg"
   xmlns:sodipodi="http://sodipodi.sourceforge.net/DTD/sodipodi-0.dtd"
   xmlns:inkscape="http://www.inkscape.org/namespaces/inkscape"
   data-name="Layer 1"
   viewBox="0 0 84.670891 95.828331"
   x="0px"
   y="0px"
   version="1.1"
   id="svg12"
   sodipodi:docname="noun_mind_1604702.svg"
   inkscape:version="0.92.3 (2405546, 2018-03-11)"
   width="84.670891"
   height="95.828331">
  <metadata
     id="metadata18">
    <rdf:RDF>
      <cc:Work
         rdf:about="">
        <dc:format>image/svg+xml</dc:format>
        <dc:type
           rdf:resource="http://purl.org/dc/dcmitype/StillImage" />
      </cc:Work>
    </rdf:RDF>
  </metadata>
  <defs
     id="defs16" />
  <sodipodi:namedview
     pagecolor="#ffffff"
     bordercolor="#666666"
     borderopacity="1"
     objecttolerance="10"
     gridtolerance="10"
     guidetolerance="10"
     inkscape:pageopacity="0"
     inkscape:pageshadow="2"
     inkscape:window-width="1920"
     inkscape:window-height="1001"
     id="namedview14"
     showgrid="false"
     inkscape:zoom="1.888"
     inkscape:cx="42.34706"
     inkscape:cy="35.445327"
     inkscape:window-x="-9"
     inkscape:window-y="-9"
     inkscape:window-maximized="1"
     inkscape:current-layer="svg12" />
  <title
     id="title2">Artboard 3</title>
  <path
     d="m 2.7970596,65.333005 a 6.13,6.13 0 0 0 1.07,0.48 l 0.63,0.2 3.39,1.08 0.12,8.91 v 2.55 0.67 c 0,0.28 0,0.56 0.06,0.83 a 9.47,9.47 0 0 0 0.36,1.62 8.57,8.57 0 0 0 4.0000004,4.84 8.47,8.47 0 0 0 2.93,1 9.25,9.25 0 0 0 1.46,0.08 h 1.14 l 4.44,-0.09 7,-0.18 2.39,7.44 a 1.43,1.43 0 0 0 1.81,1 1.45,1.45 0 0 0 0.83,-1.74 l -2.21,-8.85 a 1.6,1.6 0 0 0 -1.45,-1.29 h -0.1 l -8.19,-0.21 -4.44,-0.09 h -1.14 c -0.22,0 -0.31,0 -0.45,0 a 2.12,2.12 0 0 1 -0.4,-0.05 4.41,4.41 0 0 1 -3.46,-3.1 5.3,5.3 0 0 1 -0.15,-0.82 c 0,-0.14 0,-0.28 0,-0.42 0,-0.14 0,-0.4 0,-0.6 v -2.55 l 0.14,-10.64 a 2.32,2.32 0 0 0 -1.57,-2.22 h -0.05 l -4.9500004,-1.7 -0.63,-0.21 -0.13,-0.07 a 0.64,0.64 0 0 1 -0.2,-0.2 0.67,0.67 0 0 1 -0.08,-0.55 l 4.38,-9.75 1.1700004,-2.57 0.59,-1.31 c 0.22,-0.5 0.42,-1 0.6,-1.52 a 20.11,20.11 0 0 0 1.17,-6.42 36.12,36.12 0 0 1 1.79,-10.62 33.25,33.25 0 0 1 23.2,-21.69 32.21,32.21 0 0 1 10.88,-1 34.15,34.15 0 0 1 10.48,2.49 32.9,32.9 0 0 1 9,5.58 34.27,34.27 0 0 1 6.72,7.78 36.33,36.33 0 0 1 4,9.07 35.38,35.38 0 0 1 0.87,4.71 28.34,28.34 0 0 1 0.22,4.68 33.88,33.88 0 0 1 -1.31,8.82 35,35 0 0 1 -7.71,13.8 l -0.06,0.06 a 1.75,1.75 0 0 0 -0.38,1.68 c 2.64,8.73 4.22,13.7 5.59,17.87 a 1.39,1.39 0 0 0 1.77,1 v 0 a 1.42,1.42 0 0 0 0.8,-1.69 c -1,-4.11 -2.22,-8.94 -4.42,-17.13 a 37.41,37.41 0 0 0 10.31,-24.3 32.36,32.36 0 0 0 -0.16,-5.31 39.45,39.45 0 0 0 -0.88,-5.41 40.62,40.62 0 0 0 -4.34,-10.5 38.92,38.92 0 0 0 -7.6,-9.08 37.77,37.77 0 0 0 -10.3,-6.57 39.14,39.14 0 0 0 -12.17,-2.99999998 37.31,37.31 0 0 0 -12.69,1.14999998 38.37,38.37 0 0 0 -26.9300004,25.23 41,41 0 0 0 -2,12.32 15,15 0 0 1 -0.77,4.79 c -0.13,0.38 -0.27,0.76 -0.43,1.13 l -0.56,1.28 -1.13,2.58 -2.23,5.11 -1.09,2.53 -0.53999997,1.25 -0.27,0.62 -0.07,0.17 -0.12,0.28 a 4.29,4.29 0 0 0 -0.18,0.58 5.6,5.6 0 0 0 0.85999997,4.59 5.52,5.52 0 0 0 1.77,1.6 z"
     id="path4"
     inkscape:connector-curvature="0" />
  <path
     d="m 60.97706,33.483005 a 7.84,7.84 0 0 0 0.07,-11.35 7.86,7.86 0 0 0 -2.32,-1.59 8.08,8.08 0 0 0 -5.8,-0.29 8.32,8.32 0 0 0 -2.68,1.49 8.14,8.14 0 0 0 -2,2.47 c -0.1,0.19 -0.18,0.38 -0.27,0.58 l -1,-1.14 -0.63,-0.77 c -0.07,-0.08 -0.32,-0.36 -0.53,-0.58 a 5.81,5.81 0 0 0 -0.72,-0.59 5.75,5.75 0 0 0 -7.08,0.39 6.71,6.71 0 0 0 -0.64,0.65 l -0.34,0.39 -0.69,0.79 q -1.39,1.58 -2.85,3.13 -2.92,3.1 -6.12,6.06 -1.59,1.48 -3.25,2.9 l -0.83,0.71 c -0.29,0.26 -0.47,0.37 -1.06,0.95 a 5.93,5.93 0 0 0 -0.38,7.66 6.1,6.1 0 0 0 0.7,0.76 l 0.19,0.17 0.1,0.09 0.21,0.18 0.83,0.71 q 1.66,1.42 3.26,2.91 c 2.14,2 4.19,4 6.15,6.1 q 1.47,1.56 2.87,3.16 l 0.7,0.8 0.35,0.4 0.2,0.23 0.34,0.36 a 5.82,5.82 0 0 0 7.22,0.71 5.61,5.61 0 0 0 0.76,-0.59 4.31,4.31 0 0 0 0.34,-0.34 l 0.27,-0.3 0.67,-0.78 0.92,-1.07 c 0,0.08 0.06,0.16 0.1,0.24 a 8.24,8.24 0 0 0 14.5,0.65 8,8 0 0 0 -1.07,-9.6 7.71,7.71 0 0 0 -3.86,-2.25 l 2.74,-2.58 a 4.71,4.71 0 0 0 1.46,-3.15 4.57,4.57 0 0 0 -0.89,-3 1.09,1.09 0 0 0 -1.79,0.18 1.87,1.87 0 0 0 -0.49,1.35 1.71,1.71 0 0 1 -0.46,2.2 l -4.22,3.42 a 1.4,1.4 0 0 0 -0.38,0.48 l -0.06,0.12 a 3.16,3.16 0 0 0 0.06,2.83 3.39,3.39 0 0 0 0.56,0.76 l 0.14,0.15 a 3.18,3.18 0 0 0 0.36,0.32 3.25,3.25 0 0 0 0.89,0.48 c 0.8,0.24 0.78,0.17 1,0.25 a 3.82,3.82 0 0 1 2.75,3.36 3.64,3.64 0 0 1 -2.53,3.73 3.47,3.47 0 0 1 -2.4,-0.12 3.37,3.37 0 0 1 -1.74,-1.71 3.41,3.41 0 0 1 -0.2,-0.6 c 0,-0.11 0,-0.21 -0.06,-0.32 a 4.71,4.71 0 0 0 -0.1,-0.52 3.93,3.93 0 0 0 -0.26,-0.73 3.77,3.77 0 0 0 -0.44,-0.71 3.81,3.81 0 0 0 -0.28,-0.32 l -0.1,-0.1 -0.11,-0.11 a 3.91,3.91 0 0 0 -0.31,-0.28 3.77,3.77 0 0 0 -0.71,-0.45 3.85,3.85 0 0 0 -3.26,0 v 0 a 2.45,2.45 0 0 0 -0.8,0.59 l -2.84,3.15 -0.72,0.8 a 0.45,0.45 0 0 1 -0.09,0.09 c 0,0 0,0 0,0 l -0.08,0.05 a 0.57,0.57 0 0 1 -0.35,0.07 0.53,0.53 0 0 1 -0.3,-0.16 l -1.36,-1.52 q -1.44,-1.69 -3,-3.34 c -2,-2.2 -4.16,-4.35 -6.39,-6.42 q -1.67,-1.55 -3.4,-3.05 l -0.87,-0.74 -0.23,-0.18 -0.11,-0.09 v 0 l -0.06,-0.06 a 0.45,0.45 0 0 1 0,-0.56 l 1.48,-1.28 q 1.72,-1.5 3.38,-3.06 c 2.31,-2.08 4.37,-4.22 6.37,-6.42 q 1.5,-1.64 2.92,-3.32 l 0.7,-0.84 0.35,-0.42 c 0.08,-0.08 0.06,-0.08 0.1,-0.11 a 0.55,0.55 0 0 1 0.34,-0.16 0.58,0.58 0 0 1 0.39,0.08 c 0,0 0.05,0 0.09,0.06 0.04,0.06 0,0 0.18,0.19 l 0.71,0.78 2.79,3.08 a 2.45,2.45 0 0 0 0.79,0.57 v 0 a 3.75,3.75 0 0 0 3.3,-0.11 4.08,4.08 0 0 0 1,-0.81 l 0.19,-0.2 a 3.67,3.67 0 0 0 0.27,-0.34 3.73,3.73 0 0 0 0.39,-0.73 3.87,3.87 0 0 0 0.21,-0.74 v -0.32 a 3.07,3.07 0 0 1 0.07,-0.34 3.55,3.55 0 0 1 0.22,-0.64 3.44,3.44 0 0 1 0.78,-1.07 3.76,3.76 0 0 1 1.14,-0.71 3.66,3.66 0 0 1 2.59,0 3.59,3.59 0 0 1 1.12,0.68 3.51,3.51 0 0 1 0.82,1 4,4 0 0 1 -0.44,4.62 4.05,4.05 0 0 1 -2,1.19 h -0.14 -0.21 a 3.16,3.16 0 0 0 -0.79,0.27 2.9,2.9 0 0 0 -0.73,0.52 l -0.35,0.38 a 2.86,2.86 0 0 0 -0.41,3.1 l 0.06,0.12 a 1.19,1.19 0 0 0 0.3,0.37 c 1.77,1.48 2.66,2.18 3.49,2.82 0.41,0.32 1.12,0.08 1.58,-0.52 a 1.21,1.21 0 0 0 0.16,-1.51 c -0.6,-0.61 -1.26,-1.25 -2.4,-2.33 h 0.1 a 7.45,7.45 0 0 0 3.89,-1.81 z m -13.63,23.27 z m 0.1,-30 z"
     id="path6"
     inkscape:connector-curvature="0" />
</svg>
