<svg xmlns="http://www.w3.org/2000/svg" data-name="Layer 1" viewBox="0 0 100 125" x="0px" y="0px"><title>Artboard 3</title><path d="M99.26,9.81V69.19A16.79,16.79,0,0,1,85.55,85.68L28.16,95a4.88,4.88,0,0,1-3.78-1.8A5,5,0,0,1,23.3,90V78.87a.78.78,0,0,1,.9-.76,26.64,26.64,0,0,0,7.91,0,.78.78,0,0,1,.9.76v3.52L68.44,64.84a4.85,4.85,0,0,1,7,4.37,7.06,7.06,0,0,0,7.7,7,7.24,7.24,0,0,0,6.39-7.3V14.67H33V25a.78.78,0,0,1-.9.77,26.53,26.53,0,0,0-7.91,0,.78.78,0,0,1-.9-.77V9.81A4.86,4.86,0,0,1,28.16,5H94.41A4.86,4.86,0,0,1,99.26,9.81ZM2.19,77.9a5,5,0,0,1,0-7.06l9.12-9.12a19.46,19.46,0,1,1,30.59,4h0a19.49,19.49,0,0,1-23.52,3.05L9.26,77.9a5,5,0,0,1-7.06,0ZM21.44,58.65a9.48,9.48,0,1,0,0-13.41A9.49,9.49,0,0,0,21.44,58.65ZM78.29,23.38h-34a3.7,3.7,0,0,0,0,7.4h34a3.7,3.7,0,1,0,0-7.4Zm0,14.45H54.9a3.7,3.7,0,0,0,0,7.4H78.29a3.7,3.7,0,1,0,0-7.4Zm0,14.41H56.78a3.7,3.7,0,0,0,0,7.4H78.29a3.7,3.7,0,1,0,0-7.4Z"/><text x="0" y="115" fill="#000000" font-size="5px" font-weight="bold" font-family="'Helvetica Neue', Helvetica, Arial-Unicode, Arial, Sans-serif">Created by Gregor Cresnar</text><text x="0" y="120" fill="#000000" font-size="5px" font-weight="bold" font-family="'Helvetica Neue', Helvetica, Arial-Unicode, Arial, Sans-serif">from the Noun Project</text></svg>