<svg xmlns="http://www.w3.org/2000/svg" xmlns:xlink="http://www.w3.org/1999/xlink" version="1.1" x="0px" y="0px" viewBox="0 0 96 120" style="enable-background:new 0 0 96 96;" xml:space="preserve"><g><g><path d="M24.2,87.1l3.8,1.3c1.1,0.4,2.3,0.6,3.4,0.6c4.7,0,9-3,10.5-7.6l6.3-19.2c1.6-4.8-0.3-10.1-4.6-12.8l-3.2,5.1    c2,1.2,2.8,3.7,2.1,5.9l-6.3,19.2c-0.9,2.7-3.7,4.1-6.4,3.2l-3.8-1.3c-2.7-0.9-4.1-3.7-3.3-6.4l6.3-19.2c0.7-2.2,2.8-3.6,5.2-3.5    l0.4-6c-5.1-0.3-9.7,2.8-11.2,7.6l-6.3,19.2C15.2,78.9,18.4,85.2,24.2,87.1z"/><path d="M77.1,10.4C72.8,6,65.8,6,61.4,10.3L47.2,24.6c-3.6,3.6-4.3,9.1-1.7,13.5l5.2-3.1c-1.2-2-0.9-4.5,0.8-6.2l14.3-14.3    c2-2,5.2-2,7.2,0l2.9,2.9c1,1,1.5,2.2,1.5,3.6c0,1.4-0.5,2.6-1.5,3.6L61.5,39c-1.6,1.6-4.2,2-6.2,0.8l-3.1,5.2    c1.8,1,3.7,1.5,5.6,1.5c2.9,0,5.7-1.1,7.8-3.2L80,28.9c2.1-2.1,3.2-4.9,3.2-7.8c0-3-1.2-5.7-3.3-7.8L77.1,10.4z"/><rect x="23.5" y="13.8" transform="matrix(0.7071 -0.7071 0.7071 0.7071 -8.7611 25.5754)" width="6" height="19.1"/><rect x="36.7" y="12.6" width="6" height="13"/><rect x="15.7" y="32.6" width="13" height="6"/></g></g><text x="0" y="111" fill="#000000" font-size="5px" font-weight="bold" font-family="'Helvetica Neue', Helvetica, Arial-Unicode, Arial, Sans-serif">Created by Shastry</text><text x="0" y="116" fill="#000000" font-size="5px" font-weight="bold" font-family="'Helvetica Neue', Helvetica, Arial-Unicode, Arial, Sans-serif">from the Noun Project</text></svg>