<svg xmlns="http://www.w3.org/2000/svg" xmlns:xlink="http://www.w3.org/1999/xlink" version="1.1" x="0px" y="0px" viewBox="0 0 95 118.75" enable-background="new 0 0 95 95" xml:space="preserve"><g><path d="M49.304,26.139c-6.371,0-12.637,0-19.004,0c0,0.312,0,0.625,0,0.938c0,4.377-0.02,8.755,0.016,13.132   c0.004,0.778-0.229,1.046-1.004,0.997c-0.938-0.06-1.879-0.031-2.818-0.011c-0.516,0.011-0.699-0.188-0.697-0.712   c0.007-2.828-0.001-5.656-0.001-8.484h-3.401c0,3.848,0,7.696,0,11.543c0,0.318,0,0.636,0,1.006c3.82,0,7.516,0,11.312,0   c0-0.359,0-0.675,0-0.988c0-4.379,0.014-8.758-0.016-13.137c-0.006-0.705,0.191-0.916,0.904-0.909   c3.439,0.035,6.877,0.015,10.316,0.018c0.283,0.001,0.564,0.038,0.945,0.064c0,10.462,0,20.839,0,31.219c1.176,0,2.242,0,3.428,0   c0-2.616,0-5.204,0-7.885c1.362,0,2.705,0,4.056,0v-3.667c-1.34,0-2.676,0-4.036,0C49.304,41.575,49.304,33.886,49.304,26.139z"/><path d="M83.815,33.996c-4.539-0.03-9.08-0.016-13.619-0.016c-0.309,0-0.619,0-0.943,0c0,1.197,0,2.264,0,3.391   c6.303,0,12.574,0,18.863,0c0-6.359,0-12.678,0-18.964c-27.131,0-54.189,0-81.232,0c0,6.923,0,13.763,0,20.719   c2.361,0,4.678,0,7.072,0c0,6.979,0,13.842,0,20.709c1.121,0,2.158,0,3.221,0c0-11.411,0-20.781,0-32.166c-1.096,0-2.131,0-3.289,0   c0,3.373,0,4.708,0,8.098c-1.057,0-1.996-0.035-2.93,0.013c-0.639,0.033-0.824-0.177-0.82-0.816c0.027-4.083,0.029-8.166,0-12.25   c-0.004-0.672,0.199-0.869,0.865-0.864c3.41,0.029,6.822,0.013,10.234,0.014c1.152,0,1.156,0.001,1.156,1.129   c0,1.337,0,2.673,0,4.01h3.4c-0.002-1.468,0.004-2.936,0-4.404c0-0.561,0.186-0.744,0.744-0.743   c8.701,0.014,17.402,0.009,26.104,0.014c0.18,0,0.359,0.047,0.625,0.084c0,7.587,0,15.145,0,22.747c1.178,0,2.268,0,3.453,0   c0-5.022,0-10.026,0-15.101c1.5,0,2.906,0,4.385,0c0,6.524,0,13.061,0,19.665c-1.14,0-2.287,0-3.432,0v3.667   c2.326,0,4.65,0,6.992,0c0-2.66,0-5.227,0-7.884c0.828,0,1.572,0,2.318,0c2.955,0.001,5.91-0.009,8.865,0.017   c0.248,0.002,0.707,0.225,0.711,0.359c0.055,1.328,0.033,2.661,0.033,4.067c-2.566,0-1.998,0-4.447,0c0,1.24,0,2.4,0,3.555   c3.633,0,4.197,0,7.811,0c0-3.842,0-7.634,0-11.515c-5.125,0-10.186,0-15.27,0c0-4.022,0-7.958,0-12.004c5.164,0,7.277,0,12.398,0   c0-1.197,0-2.283,0-3.444c-0.482,0-0.906,0-1.332,0c-7.039,0-11.076-0.005-18.115,0.009c-0.592,0.001-0.975-0.047-0.916-0.805   c0.064-0.828,0.064-1.669,0-2.497c-0.061-0.761,0.223-0.942,0.951-0.94c8.73,0.022,17.459,0.022,26.191,0   c0.699-0.002,0.932,0.188,0.926,0.902c-0.029,3.438-0.033,6.876,0.002,10.314C84.8,33.824,84.534,34,83.815,33.996z"/></g><path d="M25.956,53.464c-0.002-0.696,0.264-0.837,0.9-0.834c4.594,0.023,9.188,0.014,13.781,0.014c0.314,0,0.629,0,0.973,0  c0-6.363,0-9.632,0-15.899c-1.16,0-2.27,0-3.449,0c0,5.16,0,7.256,0,12.464c-5.184,0-10.295,0-15.471,0c0,0.463,0,0.811,0,1.156  c0,3.157,0,6.313,0,9.471h3.271C25.96,57.711,25.964,55.588,25.956,53.464z"/><path d="M53.892,57.217c0,3.899,0,7.674,0,11.465c3.516,0,4.986,0,8.451,0c0-1.155,0-2.245,0-3.427c-2.396,0-2.744,0-5.182,0  c0-1.345,0.035-2.604-0.014-3.857c-0.023-0.665,0.182-0.873,0.857-0.868c1.478,0.014,2.955-0.003,4.434,0v-3.312  C59.59,57.217,56.74,57.217,53.892,57.217z"/><path d="M84.749,41.934c0,10.428,0,20.806,0,31.203c-4.1,0-8.094,0-12.092,0c-0.041-0.141-0.094-0.243-0.094-0.346  c-0.008-3.896-0.01-7.79-0.02-11.686c0-0.478,0.254-0.573,0.666-0.566c1.049,0.016,2.098,0.038,3.145-0.008  c0.641-0.028,0.84,0.195,0.828,0.829c-0.031,1.986-0.012,1.976-0.008,3.963c0,0.31,0.029,0.619,0.043,0.906c1.168,0,2.229,0,3.285,0  c0-3.731,0-5.393,0-9.013c-4.369,0-8.721,0-13.066,0v3.312c0.294-0.002,0.589,0.003,0.883,0c0.729-0.008,0.975,0.187,0.969,0.941  c-0.037,3.6-0.037,7.199,0,10.799c0.008,0.768-0.256,0.928-0.971,0.926c-5.99-0.026-11.98-0.016-17.973-0.018  c-0.285,0-0.57-0.023-0.947-0.04c0-2.74,0-5.408,0-8.156c-5.244,0-10.391,0-15.637,0c0-1.312,0.031-2.54-0.014-3.767  c-0.021-0.634,0.18-0.839,0.816-0.828c2.066,0.033,2.137,0.014,4.205,0.01c0.283-0.002,0.566-0.032,0.857-0.051  c0-1.102,0-2.113,0-3.189c-3.779,0-5.525,0-9.277,0c0,3.771,0,7.492,0,11.322c5.162,0,10.275,0,15.406,0c0,1.604,0,3.098,0,4.663  c-6.621,0-13.141,0-19.715,0c-0.025-0.267-0.066-0.501-0.066-0.737c-0.002-2.523-0.007-5.047-0.007-7.57H22.69  c0,2.188,0,4.377,0,6.565c0,1.78,0,1.78-1.773,1.78c-1.115,0-2.23,0-3.42,0c0-2.87,0-5.6,0-8.356c-1.133,0-2.188,0-3.344,0  c0,2.809,0,5.557,0,8.318c-1.357,0-2.613,0-3.98,0c0-9.506,0-18.972,0-28.448c-1.195,0-2.279,0-3.355,0c0,10.676,0,21.294,0,31.9  c27.164,0,54.258,0,81.365,0c0-11.587,0-23.123,0-34.659C87.032,41.934,85.944,41.934,84.749,41.934z"/><text x="0" y="110" fill="#000000" font-size="5px" font-weight="bold" font-family="'Helvetica Neue', Helvetica, Arial-Unicode, Arial, Sans-serif">Created by Lilit Kalachyan</text><text x="0" y="115" fill="#000000" font-size="5px" font-weight="bold" font-family="'Helvetica Neue', Helvetica, Arial-Unicode, Arial, Sans-serif">from the Noun Project</text></svg>