<svg xmlns="http://www.w3.org/2000/svg" xmlns:xlink="http://www.w3.org/1999/xlink" version="1.1" x="0px" y="0px" viewBox="0 0 200 250" style="enable-background:new 0 0 200 200;" xml:space="preserve"><style type="text/css">
	.st0{fill:#FFFFFF;stroke:#000000;stroke-width:4;stroke-linecap:round;stroke-miterlimit:10;}
</style><path class="st0" d="M1059,201.7"/><g><path d="M63.3,75v14.7c0,1.4,0.9,2.5,2.2,2.9c1.3,0.4,2.7-0.2,3.4-1.4l9.4-15.8h13.8l5.1,15.3c0.4,1.2,1.6,2,2.8,2s2.4-0.8,2.8-2   l5.1-15.3h13.8l9.4,15.8c0.5,0.9,1.5,1.5,2.6,1.5c0.3,0,0.5,0,0.8-0.1c1.3-0.4,2.2-1.5,2.2-2.9V75c5-0.9,9.7-3.3,13.3-7   c4.8-4.8,7.4-11.1,7.4-17.8c0-13.9-11.3-25.2-25.2-25.2H67.8c-6.7,0-13.1,2.6-17.8,7.4c-4.8,4.8-7.4,11.1-7.4,17.8   C42.6,62.5,51.5,72.9,63.3,75z M54.2,36.6C57.8,33,62.6,31,67.8,31h64.4c10.6,0,19.2,8.6,19.2,19.2c0,5.1-2,10-5.6,13.6   c-3.3,3.3-7.7,5.3-12.3,5.6c-1.6,0.1-2.8,1.4-2.8,3v6.4l-4.7-7.9c-0.5-0.9-1.5-1.5-2.6-1.5h-17.7c-1.3,0-2.4,0.8-2.8,2l-2.9,8.8   l-2.9-8.8c-0.4-1.2-1.6-2-2.8-2H76.5c-1.1,0-2,0.6-2.6,1.5l-4.7,7.9v-6.4c0-1.6-1.2-2.9-2.8-3c-10-0.7-17.9-9.1-17.9-19.2   C48.6,45.1,50.6,40.3,54.2,36.6z"/><path d="M110.8,121.3c1.3-2,2-4.3,2-6.8c0-7.1-5.7-12.8-12.8-12.8s-12.8,5.7-12.8,12.8c0,2.5,0.7,4.9,2,6.8   c-8.2,0.4-14.8,7.3-14.8,15.7v24.4c0,4.3,3.5,7.8,7.8,7.8c0.6,0,1.2-0.1,1.8-0.2v3c0,1.7,1.3,3,3,3s3-1.3,3-3v-10.6v-21   c0-1.7-1.3-3-3-3s-3,1.3-3,3v21c0,1-0.8,1.8-1.8,1.8c-1,0-1.8-0.8-1.8-1.8V137c0-5.4,4.3-9.7,9.6-9.7h20c5.3,0,9.6,4.4,9.6,9.7   v24.1c0,1.2-0.9,2.1-2.1,2.1c-1.2,0-2.1-1-2.1-2.1v-20.7c0-1.7-1.3-3-3-3s-3,1.3-3,3v20.7V172c0,1.7,1.3,3,3,3s3-1.3,3-3v-3   c0.7,0.2,1.4,0.3,2.1,0.3c4.5,0,8.1-3.7,8.1-8.1V137C125.6,128.6,119,121.8,110.8,121.3z M100,107.7c3.7,0,6.8,3,6.8,6.8   c0,3.7-3,6.8-6.8,6.8s-6.8-3-6.8-6.8C93.2,110.8,96.3,107.7,100,107.7z"/><path d="M58.7,120.8H67c6.2,0,11.3-5.1,11.3-11.3S73.3,98.2,67,98.2c-6.2,0-11.3,5.1-11.3,11.3c0,1.9,0.5,3.8,1.4,5.4   c-6.8,0.8-12,6.6-12,13.6v20.4c0,3.9,3.1,7,7,7c0.3,0,0.7-0.1,1-0.1v4.4c0,1.7,1.3,3,3,3s3-1.3,3-3v-11.4v-17.6c0-1.7-1.3-3-3-3   s-3,1.3-3,3v17.6c0,0.6-0.5,1-1,1s-1-0.5-1-1v-20.4C51.1,124.2,54.5,120.8,58.7,120.8z M67,104.2c2.9,0,5.3,2.4,5.3,5.3   c0,2.9-2.4,5.3-5.3,5.3s-5.3-2.4-5.3-5.3C61.7,106.6,64.1,104.2,67,104.2z"/><path d="M142.9,114.9c0.9-1.6,1.4-3.4,1.4-5.4c0-6.2-5.1-11.3-11.3-11.3c-6.2,0-11.3,5.1-11.3,11.3s5.1,11.3,11.3,11.3h8.4   c4.2,0,7.6,3.4,7.6,7.7v20.4c0,0.6-0.5,1-1,1s-1-0.5-1-1v-17.6c0-1.7-1.3-3-3-3s-3,1.3-3,3v17.6v11.4c0,1.7,1.3,3,3,3s3-1.3,3-3   v-4.4c0.3,0,0.7,0.1,1,0.1c3.9,0,7-3.2,7-7v-20.4C154.9,121.4,149.6,115.7,142.9,114.9z M127.7,109.5c0-2.9,2.4-5.3,5.3-5.3   s5.3,2.4,5.3,5.3c0,2.9-2.4,5.3-5.3,5.3S127.7,112.4,127.7,109.5z"/></g><text x="0" y="215" fill="#000000" font-size="5px" font-weight="bold" font-family="'Helvetica Neue', Helvetica, Arial-Unicode, Arial, Sans-serif">Created by Symbolon</text><text x="0" y="220" fill="#000000" font-size="5px" font-weight="bold" font-family="'Helvetica Neue', Helvetica, Arial-Unicode, Arial, Sans-serif">from the Noun Project</text></svg>