<?xml version="1.0" standalone="no"?>
<!DOCTYPE svg PUBLIC "-//W3C//DTD SVG 20010904//EN"
 "http://www.w3.org/TR/2001/REC-SVG-20010904/DTD/svg10.dtd">
<svg version="1.0" xmlns="http://www.w3.org/2000/svg"
 width="453.000000pt" height="420.000000pt" viewBox="0 0 453.000000 420.000000"
 preserveAspectRatio="xMidYMid meet">
<metadata>
Created by potrace 1.15, written by Peter Selinger 2001-2017
</metadata>
<g transform="translate(0.000000,420.000000) scale(0.100000,-0.100000)"
fill="#000000" stroke="none">
<path d="M2185 3960 c-265 -18 -483 -80 -734 -211 -155 -80 -283 -172 -414
-299 -183 -175 -292 -324 -392 -532 -104 -215 -158 -425 -175 -668 -35 -522
127 -993 474 -1380 196 -218 486 -411 767 -508 224 -79 523 -116 757 -94 466
42 868 233 1188 564 447 462 615 1090 459 1709 -54 216 -149 433 -265 606
-175 261 -446 495 -735 632 -300 143 -604 202 -930 181z m467 -174 c161 -33
258 -65 398 -132 117 -56 275 -155 343 -216 l37 -33 -129 -93 c-222 -158 -264
-165 -404 -68 -303 210 -296 206 -338 206 -22 0 -50 -5 -62 -12 -12 -6 -79
-64 -149 -130 -70 -65 -143 -125 -163 -135 -34 -16 -37 -16 -83 3 -26 11 -97
57 -158 102 -137 99 -179 122 -224 122 -46 0 -76 -20 -195 -129 -55 -50 -119
-101 -143 -112 -41 -20 -45 -21 -85 -5 -41 16 -197 130 -197 144 0 15 118 123
209 190 98 74 274 170 401 220 96 38 253 78 355 91 44 6 94 13 110 15 17 3
103 3 192 1 121 -3 192 -10 285 -29z"/>
</g>
</svg>
