<svg xmlns="http://www.w3.org/2000/svg" xmlns:xlink="http://www.w3.org/1999/xlink" version="1.1" x="0px" y="0px" viewBox="0 0 100 125" style="enable-background:new 0 0 100 100;" xml:space="preserve"><style type="text/css">
	.st0{fill:#020202;}
</style><g><path class="st0" d="M25.5,2v4.1c0,0,6.3,2.6,18.6,4.1c-1,0.9-2.3,2.2-2.8,3.9l-0.4,1.7c0,0,3.8,1.3,6.5,3.3l2.7,2.3   c0,0-3.1-6.9-3.1-8.8c0-0.8,0.1-1.5,0.3-2c7.3,0.7,16.4,1,27.3,0.3V7C74.5,7,49.3,9.2,25.5,2z"/><path class="st0" d="M39.7,17.6c-3.5,1.9-4.4,4-4.4,4c2.3-0.8,15.7,3.3,15.7,3.3C48.4,21.5,39.7,17.6,39.7,17.6z"/><path class="st0" d="M30.9,48.9c7.5-1.3,25.5-5.6,26.1-6.7c0.6-1-1.9-5.4-1.9-5.4c-2.1,0-24.6,3.1-24.6,3.1c0.2,1.9-1,5.2-1,5.2   C30.1,45.9,30.9,48.9,30.9,48.9z M36.3,42c0.7,0,1.2,0.5,1.2,1.2c0,0.7-0.5,1.2-1.2,1.2c-0.7,0-1.2-0.5-1.2-1.2   C35.1,42.6,35.7,42,36.3,42z"/><path class="st0" d="M32.8,24.4c-1,2.7-2.9,6.1-2.9,6.1c1.3,1.3,1,6.3,1,6.3s5.8-0.6,9.6-1.3c3.8-0.6,13.6-1.5,13.6-1.5l-1.7-5.8   c0,0-8.1-1.9-11.3-2.9C38,24.2,32.8,24.4,32.8,24.4z M36.3,29.1c0.7,0,1.2,0.5,1.2,1.2c0,0.7-0.5,1.2-1.2,1.2   c-0.7,0-1.2-0.5-1.2-1.2C35.1,29.6,35.7,29.1,36.3,29.1z"/><path class="st0" d="M64.3,81c-0.4-2.9-3.3-14.6-2.7-19.6c0.6-5,0.2-7.7-0.4-9.8c-0.1-0.4-0.3-1-0.6-1.5   c-5.7,8.1-6.3,12.5-7.4,18.4c-0.6,3.1,8.6,19.8,8.6,19.8s-10-14.6-10.4-19.2c-0.4-4.6,2.9-12.7,4-14.4c0.8-1.2,3-5.2,4.2-7.2   c-0.7-1.4-1.2-2.6-1.2-2.6c-6.3,3.8-27.1,6.7-27.1,6.7s0.6,2.5-0.2,4.4l2.7,3.3c0,0,13.8-1.9,18.4-3.5c0,0-9.2,5.4-18,6.3   c0,0-0.2,2.5-0.8,3.8l2.9,2.7c0,0,11.3-2.3,14.2-4c0,0-5.8,5.2-13.2,6.3l0.4,1c2.1,1.7,2.9,4,2.9,5.6c0,1.7-0.2,8.8-0.2,8.8   l2.5,2.7c2.5,2.7,5.2,3.6,6.1,3.9c2.1-1.1,5.4-2.5,7.7-2.6c0,0-3.7,1.9-6.2,3.8c3.2,2.6,7.2,3.1,7.2,3.1c2.9,1.3,8.1,0.8,8.1,0.8   s0.2-3.1-0.6-5.2C64.3,90.6,64.7,83.9,64.3,81z M38,55.5c-0.7,0-1.2-0.5-1.2-1.2c0-0.7,0.5-1.2,1.2-1.2c0.7,0,1.2,0.5,1.2,1.2   C39.2,55,38.7,55.5,38,55.5z M40.9,65.3c-0.7,0-1.2-0.5-1.2-1.2c0-0.7,0.5-1.2,1.2-1.2c0.7,0,1.2,0.5,1.2,1.2   C42.1,64.8,41.6,65.3,40.9,65.3z M46.7,78.5c-1.1,0-2-0.9-2-2c0-1.1,0.9-2,2-2c1.1,0,2,0.9,2,2C48.6,77.6,47.8,78.5,46.7,78.5z    M63.3,94.6c-1.9,2.8-4,0.2-4,0.2c1.7-1.3,2.5-3.8,2.5-3.8S64.5,92.7,63.3,94.6z"/></g><text x="0" y="115" fill="#000000" font-size="5px" font-weight="bold" font-family="'Helvetica Neue', Helvetica, Arial-Unicode, Arial, Sans-serif">Created by parkjisun</text><text x="0" y="120" fill="#000000" font-size="5px" font-weight="bold" font-family="'Helvetica Neue', Helvetica, Arial-Unicode, Arial, Sans-serif">from the Noun Project</text></svg>