<?xml version="1.0" standalone="no"?>
<!DOCTYPE svg PUBLIC "-//W3C//DTD SVG 20010904//EN"
 "http://www.w3.org/TR/2001/REC-SVG-20010904/DTD/svg10.dtd">
<svg version="1.0" xmlns="http://www.w3.org/2000/svg"
 width="463.000000pt" height="446.000000pt" viewBox="0 0 463.000000 446.000000"
 preserveAspectRatio="xMidYMid meet">
<metadata>
Created by potrace 1.15, written by Peter Selinger 2001-2017
</metadata>
<g transform="translate(0.000000,446.000000) scale(0.100000,-0.100000)"
fill="#000000" stroke="none">
<path d="M2115 4189 c-806 -53 -1490 -644 -1669 -1441 -71 -316 -51 -682 56
-1003 62 -187 197 -429 328 -590 113 -139 290 -291 452 -389 657 -399 1476
-358 2098 105 479 358 766 979 720 1559 -56 704 -442 1282 -1055 1581 -292
142 -598 200 -930 178z m479 -174 c350 -74 634 -231 882 -486 139 -145 214
-251 305 -430 115 -229 179 -513 179 -791 l0 -78 -35 0 c-49 0 -82 19 -205
115 -200 157 -230 160 -411 43 -220 -144 -285 -170 -373 -154 -19 4 -95 43
-168 88 -226 137 -267 153 -331 129 -13 -5 -83 -57 -155 -115 -161 -129 -187
-139 -265 -103 -30 14 -104 56 -164 95 -119 76 -173 98 -225 88 -21 -4 -77
-40 -148 -96 -206 -160 -201 -160 -457 13 -120 81 -139 91 -189 95 -71 6 -129
-11 -214 -64 l-70 -43 0 67 c0 210 64 476 166 692 54 114 168 287 257 390 247
287 630 498 999 554 161 24 163 24 338 20 127 -3 192 -9 284 -29z"/>
</g>
</svg>
