<svg xmlns="http://www.w3.org/2000/svg" xmlns:xlink="http://www.w3.org/1999/xlink" version="1.1" x="0px" y="0px" viewBox="0 0 500 625" style="enable-background:new 0 0 500 500;" xml:space="preserve"><title>icon-sea</title><g><path d="M340,275h22.5v-87.5h-25v-100h25L250.6,0L137.5,87.5h25v100h-25V275H160l-20,200h-27.5v25h25h225h25v-25H360L340,275z    M177.6,350h144.8l5,50H172.6L177.6,350z M237.5,212.5V250h-25v-37.5H237.5z M262.5,212.5h25V250h-25V212.5z M312.5,212.5H325h12.5   V250h-25V212.5z M250.5,31.7l39.4,30.8h-79.3L250.5,31.7z M187.5,87.5h125v100h-125V87.5z M162.5,212.5H175h12.5V250h-25V212.5z    M314.9,275l5,50H180.1l5-50H314.9z M165.1,475l5-50h159.8l5,50H165.1z"/><rect x="412.5" y="137.5" width="75" height="25"/><rect x="386.6" y="81.3" transform="matrix(0.866 -0.5 0.5 0.866 9.9446 224.6134)" width="75" height="25"/><rect x="411.6" y="168.8" transform="matrix(0.5 -0.866 0.866 0.5 33.4322 470.4067)" width="25" height="75"/><rect x="12.5" y="137.5" width="75" height="25"/><rect x="63.4" y="56.2" transform="matrix(0.5 -0.866 0.866 0.5 -43.2411 112.6043)" width="25" height="75"/><rect x="38.4" y="193.8" transform="matrix(0.866 -0.5 0.5 0.866 -92.9564 65.5807)" width="75" height="25"/><path d="M250,100c-20.7,0-37.5,16.8-37.5,37.5c0,20.7,16.8,37.5,37.5,37.5c20.7,0,37.5-16.8,37.5-37.5   C287.5,116.8,270.7,100,250,100z M250,150c-6.9,0-12.5-5.6-12.5-12.5c0-6.9,5.6-12.5,12.5-12.5s12.5,5.6,12.5,12.5   C262.5,144.4,256.9,150,250,150z"/></g><text x="0" y="515" fill="#000000" font-size="5px" font-weight="bold" font-family="'Helvetica Neue', Helvetica, Arial-Unicode, Arial, Sans-serif">Created by Alex Furgiuele</text><text x="0" y="520" fill="#000000" font-size="5px" font-weight="bold" font-family="'Helvetica Neue', Helvetica, Arial-Unicode, Arial, Sans-serif">from the Noun Project</text></svg>