<svg xmlns="http://www.w3.org/2000/svg" xmlns:xlink="http://www.w3.org/1999/xlink" version="1.1" x="0px" y="0px" viewBox="0 0 612 990" enable-background="new 0 0 612 792" xml:space="preserve"><g display="none"><g display="inline"><g><path fill="#000000" d="M514.084,452.966l-17.987-0.006l0.024-35.979l17.979,0.007c14.881,0,26.989-12.112,26.989-26.996v-71.967     c0-14.884-12.108-26.996-27.002-26.996h-17.993v-35.98h17.987c34.729,0,62.98,28.257,62.98,62.976v71.967     C577.066,424.709,548.815,452.966,514.084,452.966L514.084,452.966z"/><path fill="#000000" d="M0,580.521c0,24.863,19.964,44.98,44.64,44.98h522.713c24.677,0,44.646-20.117,44.646-44.98H0z"/><path fill="#000000" d="M260.362,79.223c20.19,60.583-31.996,76.746-31.996,76.746l-0.239,0.374     c0.526-0.881,12.638-22.118-1.903-65.743c-20.19-60.583,31.996-76.74,31.996-76.74l0.239-0.367     C257.926,14.368,245.827,35.617,260.362,79.223z"/><path fill="#000000" d="M323.063,79.223c20.188,60.583-31.996,76.746-31.996,76.746l-0.239,0.374     c0.521-0.881,12.632-22.118-1.903-65.743c-20.196-60.583,32.002-76.74,32.002-76.74l0.245-0.367     C320.633,14.368,308.527,35.617,323.063,79.223z"/><path fill="#000000" d="M385.764,79.223c20.19,60.583-31.987,76.746-31.987,76.746l-0.238,0.374     c0.52-0.881,12.632-22.118-1.903-65.743c-20.188-60.583,32.002-76.74,32.002-76.74l0.238-0.367     C383.34,14.368,371.234,35.617,385.764,79.223z"/><path fill="#000000" d="M135.065,192.078v287.878c0,39.78,32.192,71.966,71.966,71.966h197.925     c39.774,0,71.967-32.186,71.967-71.966V192.078H135.065z M422.943,470.959c0,4.964-4.033,8.997-8.997,8.997     c-4.979,0-8.996-4.033-8.996-8.997V237.054c0-4.963,4.015-8.997,8.996-8.997c4.964,0,8.997,4.033,8.997,8.997V470.959z"/></g><text transform="matrix(1 0 0 1 -9.765625e-004 717.3037)" font-family="'Arial-BoldMT'" font-size="30.6006">Created by Olivier Guin</text><text transform="matrix(1 0 0 1 -9.765625e-004 747.9063)" font-family="'Arial-BoldMT'" font-size="30.6006">from the Noun Project</text></g><g display="inline"><g><path fill="#000000" d="M361.756,194.489c-2.75,0-5-2.25-5-5V170.25c0-2.75-2.25-5-5-5H42.746c-2.75,0-5,2.25-5,5v19.239     c0,2.75,0,5.212,0,5.472c0,0.26,0,2.722,0,5.472v10.279c0,2.75,2.25,5,5,5h294.39c2.75,0,5,2.25,5,5v19.239c0,2.75,2.25,5,5,5     h231.46c2.75,0,5,2.25,5,5v280.506c0,2.75,2.25,5,5,5h4.619c2.75,0,5-2.25,5-5V199.489c0-2.75-2.25-5-5-5H361.756z"/></g><path fill="#000000" d="M564.749,258.033h-231.46c-2.75,0-5-2.25-5-5v-19.239c0-2.75-2.25-5-5-5H14.279c-2.75,0-5,2.25-5,5v19.239    c0,2.75,0,5.212,0,5.472c0,0.259,0,2.721,0,5.471V594c0,2.75,2.25,5,5,5h30.784c2.75,0,4.992-0.282,4.981-0.627c0,0,0,0,0-0.316    c0-26.307,16.469-47.631,36.785-47.631c20.315,0,36.785,21.324,36.785,47.631c0,0.316,0,0.316,0,0.316    c-0.01,0.345,2.231,0.627,4.981,0.627h318.27c2.75,0,4.992-0.282,4.979-0.627c0,0,0,0,0-0.316    c0-26.307,16.472-47.631,36.785-47.631c20.314,0,36.784,21.324,36.784,47.631c0,0.316,0,0.316,0,0.316    c-0.01,0.345,2.23,0.627,4.98,0.627h34.351c2.75,0,5-2.25,5-5V263.033C569.749,260.283,567.499,258.033,564.749,258.033z     M183.504,466.905H51.463c0-0.117-0.003-0.235-0.003-0.354c0-36.002,17.411-66.751,41.982-79.124    c-8.416-7.192-13.758-17.877-13.758-29.815c0-21.657,17.557-39.214,39.214-39.214c21.657,0,39.214,17.557,39.214,39.214    c0,12.443-5.802,23.524-14.841,30.708c23.649,12.925,40.236,43.084,40.236,78.231C183.508,466.67,183.505,466.788,183.504,466.905    z M265.095,395.456v-8.864c0-2.75,2.25-5,5-5h106.014c2.75,0,5,2.25,5,5v8.864c0,2.75-2.25,5-5,5H270.095    C267.345,400.456,265.095,398.206,265.095,395.456z M536.736,439.787c0,2.75-2.25,5-5,5H359.699c-2.75,0-5-2.25-5-5v-6.271    c0-2.75,2.25-5,5-5h172.037c2.75,0,5,2.25,5,5V439.787z M536.736,395.456c0,2.75-2.25,5-5,5h-128.65c-2.75,0-5-2.25-5-5v-8.864    c0-2.75,2.25-5,5-5h128.65c2.75,0,5,2.25,5,5V395.456z M540.509,347.353c0,2.75-2.25,5-5,5H270.095c-2.75,0-5-2.25-5-5v-6.035    c0-2.75,2.25-5,5-5h265.414c2.75,0,5,2.25,5,5V347.353L540.509,347.353z"/></g></g><path fill="#000000" d="M303.637,208.869c-60.264,0-109.117,48.854-109.117,109.117c0,60.263,48.854,109.117,109.117,109.117  s109.117-48.854,109.117-109.117C412.754,257.723,363.9,208.869,303.637,208.869z M303.637,374.121  c-31.003,0-56.135-25.133-56.135-56.135c0-31.003,25.132-56.136,56.135-56.136c31.002,0,56.135,25.133,56.135,56.136  C359.771,348.988,334.639,374.121,303.637,374.121z"/><g><g><polygon fill="#000000" points="591.249,313.282 526.413,276.616 526.561,293.216 435.144,293.216 435.144,334.5 526.929,334.5     527.077,351.1   "/><polygon fill="#000000" points="20.751,316.78 81.135,280.114 80.997,296.713 166.137,296.713 166.137,337.998 80.654,337.998     80.517,354.597   "/></g><g><polygon fill="#000000" points="306.355,25.983 268.825,90.323 285.424,90.398 284.201,181.807 325.482,182.359 326.711,90.582     343.311,90.656   "/><polygon fill="#000000" points="302.218,596.478 266.363,535.608 282.959,535.969 284.099,450.836 325.379,451.39     324.235,536.864 340.832,537.224   "/></g></g><g><g><polygon fill="#000000" points="507.333,116.914 435.488,136.57 447.287,148.246 382.409,212.651 411.494,241.95 476.634,177.286     488.434,188.962   "/><polygon fill="#000000" points="104.92,521.319 121.942,452.756 133.538,464.634 193.961,404.651 223.047,433.951     162.381,494.175 173.977,506.052   "/></g><g><polygon fill="#000000" points="102.741,113.731 121.434,185.833 133.267,174.192 196.797,239.926 226.483,211.235     162.698,145.236 174.53,133.594   "/><polygon fill="#000000" points="501.726,521.521 433.396,503.583 445.428,492.146 386.259,430.925 415.946,402.236     475.353,463.703 487.384,452.265   "/></g></g><text x="0" y="807" fill="#000000" font-size="5px" font-weight="bold" font-family="'Helvetica Neue', Helvetica, Arial-Unicode, Arial, Sans-serif">Created by Colleen Wilson</text><text x="0" y="812" fill="#000000" font-size="5px" font-weight="bold" font-family="'Helvetica Neue', Helvetica, Arial-Unicode, Arial, Sans-serif">from the Noun Project</text></svg>