<?xml version="1.0" standalone="no"?>
<!DOCTYPE svg PUBLIC "-//W3C//DTD SVG 20010904//EN"
 "http://www.w3.org/TR/2001/REC-SVG-20010904/DTD/svg10.dtd">
<svg version="1.0" xmlns="http://www.w3.org/2000/svg"
 width="395.000000pt" height="391.000000pt" viewBox="0 0 395.000000 391.000000"
 preserveAspectRatio="xMidYMid meet">
<metadata>
Created by potrace 1.15, written by Peter Selinger 2001-2017
</metadata>
<g transform="translate(0.000000,391.000000) scale(0.100000,-0.100000)"
fill="#000000" stroke="none">
<path d="M965 3656 c-22 -14 -51 -42 -63 -64 -22 -40 -22 -45 -20 -357 l3
-318 169 0 c132 0 170 3 177 14 5 8 9 98 9 202 l0 187 1045 0 1045 0 -2 -1042
-3 -1043 -29 -53 c-83 -149 -268 -184 -396 -75 -48 42 -90 121 -90 173 0 88
-50 168 -117 191 -79 26 -93 20 -787 -324 -363 -180 -661 -327 -663 -327 -1 0
-3 28 -3 63 0 34 -4 67 -8 72 -4 7 -71 11 -179 11 l-173 0 0 -243 c0 -194 3
-250 14 -272 22 -42 81 -89 122 -97 26 -5 162 14 443 60 223 36 424 68 446 72
167 24 1270 206 1310 215 175 41 333 169 412 334 65 137 63 92 63 1355 0 1092
-1 1147 -19 1185 -21 46 -54 79 -94 94 -20 8 -423 11 -1300 11 l-1272 0 -40
-24z"/>
<path d="M1583 2980 c-62 -37 -82 -124 -43 -187 40 -66 10 -63 747 -63 636 0
669 1 699 19 42 26 68 83 61 135 -4 31 -15 50 -46 78 l-40 38 -673 0 c-650 0
-674 -1 -705 -20z"/>
<path d="M881 2640 c-96 -26 -169 -59 -246 -115 -277 -197 -375 -570 -233
-884 l28 -65 -189 -190 c-182 -184 -190 -193 -196 -239 -23 -155 128 -268 263
-198 20 11 115 98 211 194 l173 175 64 -29 c76 -35 160 -55 264 -64 216 -19
464 95 606 279 99 130 147 274 147 441 0 125 -19 201 -80 325 -38 79 -61 109
-132 180 -72 72 -102 94 -181 132 -52 26 -127 54 -167 62 -98 22 -240 20 -332
-4z m321 -382 c272 -127 267 -509 -9 -635 -46 -21 -72 -26 -139 -26 -74 0 -91
4 -148 32 -124 61 -198 178 -198 313 0 150 78 265 220 325 79 33 192 29 274
-9z"/>
<path d="M2025 2463 c-95 -15 -145 -125 -92 -204 46 -70 40 -69 547 -69 507 0
501 -1 547 69 40 59 23 138 -38 182 l-34 24 -450 1 c-247 1 -463 -1 -480 -3z"/>
<path d="M2042 1910 c-35 -22 -62 -72 -62 -116 0 -40 30 -94 64 -115 29 -18
58 -19 470 -19 422 0 440 1 471 20 36 22 65 73 65 115 0 41 -30 95 -64 116
-29 18 -58 19 -471 19 -424 0 -441 -1 -473 -20z"/>
</g>
</svg>
