<?xml version="1.0" standalone="no"?>
<!DOCTYPE svg PUBLIC "-//W3C//DTD SVG 20010904//EN"
 "http://www.w3.org/TR/2001/REC-SVG-20010904/DTD/svg10.dtd">
<svg version="1.0" xmlns="http://www.w3.org/2000/svg"
 width="338.000000pt" height="308.000000pt" viewBox="0 0 338.000000 308.000000"
 preserveAspectRatio="xMidYMid meet">
<metadata>
Created by potrace 1.15, written by Peter Selinger 2001-2017
</metadata>
<g transform="translate(0.000000,308.000000) scale(0.100000,-0.100000)"
fill="#000000" stroke="none">
<path d="M2019 2896 c-60 -16 -130 -58 -165 -98 -15 -18 -41 -62 -58 -98 -29
-60 -31 -73 -31 -170 0 -90 5 -119 32 -205 51 -160 53 -152 -46 -181 -46 -14
-120 -39 -165 -56 -148 -59 -204 -143 -316 -477 -56 -166 -62 -190 -57 -242
10 -112 135 -291 334 -478 l105 -99 -25 -48 c-19 -39 -29 -87 -46 -234 -12
-102 -24 -200 -28 -217 l-5 -33 -734 0 -734 0 0 -55 0 -55 764 0 763 0 196
169 195 170 172 325 c94 179 178 326 185 326 7 0 41 -9 76 -20 125 -38 462
-121 517 -126 195 -21 291 139 199 331 -35 73 -163 273 -306 479 l-83 119 27
55 c23 47 27 65 23 123 -3 56 -9 76 -34 111 -53 76 -153 112 -243 88 -49 -13
-123 -76 -141 -120 -9 -21 -19 -30 -36 -30 -33 0 -31 15 16 125 58 137 74 205
67 297 -9 129 -80 248 -177 298 -39 20 -127 40 -168 39 -15 0 -48 -6 -73 -13z
m207 -137 c56 -37 96 -114 102 -198 4 -57 0 -80 -28 -156 -105 -292 -109 -306
-81 -334 12 -12 31 -21 44 -21 56 -1 53 -10 -51 -206 l-101 -189 -38 -2 c-72
-4 -104 -14 -139 -45 -82 -72 -94 -161 -34 -244 l32 -45 -37 -72 c-21 -40 -41
-75 -45 -80 -3 -4 -54 62 -113 146 -58 85 -113 160 -122 167 -23 19 -67 1 -79
-31 -8 -23 -1 -38 50 -115 32 -48 108 -153 167 -233 115 -155 138 -204 119
-246 -24 -53 -94 -24 -231 98 -168 149 -321 357 -321 437 0 14 27 102 59 195
109 315 134 353 263 405 46 18 130 44 187 58 136 34 139 38 112 163 -11 52
-32 132 -46 178 -44 147 -26 267 52 343 51 50 75 58 164 55 62 -2 82 -7 115
-28z m419 -553 c19 -8 44 -30 55 -48 34 -57 27 -98 -42 -229 l-62 -117 -41 33
c-43 36 -109 68 -163 80 l-32 7 56 106 c64 120 86 149 129 168 39 17 58 17
100 0z m-210 -416 c34 -16 71 -40 84 -54 l23 -25 -48 -90 c-26 -50 -53 -91
-60 -91 -7 0 -49 18 -93 39 -44 21 -94 44 -111 50 l-31 10 53 101 53 101 35
-6 c19 -3 62 -19 95 -35z m353 -107 c119 -170 246 -369 266 -417 9 -21 16 -58
16 -81 0 -36 -5 -48 -27 -65 -25 -20 -36 -21 -94 -16 -36 3 -171 35 -300 70
-437 120 -610 187 -659 257 -19 26 -21 34 -10 60 33 78 127 67 353 -42 43 -21
151 -61 238 -90 170 -55 200 -56 211 -11 12 44 -13 65 -117 98 -55 18 -108 35
-118 38 -17 4 -9 24 65 165 45 88 84 161 85 161 1 0 42 -57 91 -127z m-736
-432 c18 -10 70 -32 115 -47 46 -16 83 -33 83 -37 0 -7 -286 -554 -297 -566
-2 -3 -16 7 -31 22 -27 26 -169 97 -193 97 -10 0 -10 3 -1 12 9 9 18 9 37 0
42 -20 108 -15 145 11 95 64 105 164 28 290 l-29 48 51 95 c28 52 53 94 55 94
2 0 19 -9 37 -19z m-267 -650 c33 -16 73 -40 88 -53 l28 -23 -71 -62 -72 -62
-45 22 -45 22 7 85 c4 47 9 88 12 93 8 14 38 7 98 -22z"/>
</g>
</svg>
