<?xml version="1.0" standalone="no"?>
<!DOCTYPE svg PUBLIC "-//W3C//DTD SVG 20010904//EN"
 "http://www.w3.org/TR/2001/REC-SVG-20010904/DTD/svg10.dtd">
<svg version="1.0" xmlns="http://www.w3.org/2000/svg"
 width="384.000000pt" height="389.000000pt" viewBox="0 0 384.000000 389.000000"
 preserveAspectRatio="xMidYMid meet">
<metadata>
Created by potrace 1.15, written by Peter Selinger 2001-2017
</metadata>
<g transform="translate(0.000000,389.000000) scale(0.100000,-0.100000)"
fill="#000000" stroke="none">
<path d="M306 3644 c-14 -14 -16 -81 -16 -589 0 -508 2 -575 16 -589 13 -14
55 -16 309 -16 l294 0 40 -122 c62 -192 109 -356 134 -468 l23 -104 -50 -71
c-99 -137 -147 -286 -125 -387 12 -55 68 -137 131 -191 l49 -42 -20 -58 c-50
-144 -142 -268 -271 -366 -117 -88 -306 -175 -477 -221 -67 -17 -81 -71 -27
-106 22 -15 31 -14 139 20 353 112 588 292 709 546 20 41 36 80 36 87 0 28 25
20 127 -38 337 -195 1099 -479 1871 -698 162 -46 182 -48 205 -23 31 34 15 83
-31 96 -9 3 -75 21 -147 41 -459 129 -1041 325 -1384 467 -175 72 -398 180
-506 246 l-80 48 2 50 c7 171 2 381 -10 464 l-15 95 52 53 c82 86 247 214 446
346 184 123 509 321 514 315 2 -2 12 -125 23 -274 17 -234 17 -275 5 -304 -7
-19 -14 -66 -14 -103 0 -110 57 -205 156 -263 65 -37 133 -45 297 -33 187 13
244 8 291 -22 90 -60 116 -172 60 -261 -16 -24 -41 -50 -56 -58 -47 -25 -47
-95 0 -107 78 -20 190 112 201 236 14 150 -80 281 -233 326 -54 16 -76 16
-244 5 -127 -8 -196 -9 -219 -2 -101 31 -164 144 -131 237 10 26 65 55 578
299 556 266 567 272 570 301 4 45 -254 996 -275 1012 -9 6 -22 12 -29 12 -32
0 -1001 -263 -1013 -275 -17 -17 -17 -17 5 -334 18 -251 18 -254 -2 -268 -10
-8 -111 -69 -224 -136 -336 -201 -600 -386 -727 -510 -29 -28 -54 -49 -56 -46
-2 2 -18 62 -36 133 -18 71 -55 198 -82 282 -27 83 -49 157 -49 163 0 8 20 11
63 9 l62 -3 3 -129 c1 -75 7 -135 14 -143 6 -7 24 -13 41 -13 27 0 64 33 300
269 225 224 270 273 270 296 0 47 -23 55 -165 55 l-128 0 0 423 c0 398 -1 425
-18 440 -17 15 -72 17 -590 17 -505 0 -572 -2 -586 -16z m575 -137 c-30 -18
-88 -57 -130 -88 l-76 -57 -88 80 c-48 44 -90 84 -93 89 -3 5 93 9 218 9 l223
-1 -54 -32z m507 -344 l-3 -378 -66 -3 -65 -3 -247 247 -247 248 23 24 c36 40
194 139 271 171 100 42 211 70 279 70 l57 1 -2 -377z m-823 82 c-22 -26 -119
-168 -152 -221 -9 -15 -12 29 -12 211 l-1 230 95 -95 94 -94 -24 -31z m2445
-115 c-45 -77 -85 -140 -90 -140 -4 0 -45 18 -91 39 -46 22 -124 51 -174 66
-49 14 -97 29 -105 32 -8 3 109 38 260 78 151 40 277 71 279 69 2 -2 -34 -66
-79 -144z m256 -156 c35 -132 69 -254 74 -272 8 -32 7 -31 -58 29 -64 58 -202
167 -239 187 -15 9 -7 27 67 156 46 80 85 144 87 142 2 -2 33 -111 69 -242z
m-2507 -111 c55 -150 101 -277 101 -283 0 -6 -80 -10 -230 -10 -126 0 -230 4
-230 9 0 34 34 189 55 250 43 128 179 350 195 320 4 -8 53 -137 109 -286z
m1756 150 c44 -8 129 -33 188 -56 87 -32 106 -42 95 -52 -13 -12 -313 -198
-400 -248 l-47 -28 -5 23 c-5 26 -26 317 -26 362 l0 28 58 -6 c31 -4 93 -14
137 -23z m-1413 -250 l68 -67 0 -64 0 -63 -91 3 -91 3 -34 93 -33 92 52 35
c28 19 54 35 57 35 2 0 35 -30 72 -67z m1947 10 c137 -98 340 -318 315 -343
-5 -4 -153 -77 -329 -161 -588 -279 -549 -262 -533 -237 8 13 115 195 238 406
122 210 227 382 232 382 6 0 40 -21 77 -47z m-273 -40 c-8 -16 -48 -86 -90
-158 l-76 -130 0 101 0 101 88 56 c48 31 88 57 90 57 1 0 -4 -12 -12 -27z
m-1186 -66 c0 -1 -70 -72 -155 -157 l-155 -155 0 158 0 157 155 0 c85 0 155
-1 155 -3z m900 -262 l0 -165 -46 -80 c-26 -44 -49 -78 -52 -75 -6 5 -31 304
-31 375 -1 45 0 45 57 77 31 18 60 32 65 33 4 0 7 -74 7 -165z m-1347 -892 c9
-87 9 -227 0 -276 l-6 -38 -29 28 c-50 47 -71 99 -64 157 6 51 68 196 84 196
5 0 12 -30 15 -67z"/>
</g>
</svg>
