<?xml version="1.0" standalone="no"?>
<!DOCTYPE svg PUBLIC "-//W3C//DTD SVG 20010904//EN"
 "http://www.w3.org/TR/2001/REC-SVG-20010904/DTD/svg10.dtd">
<svg version="1.0" xmlns="http://www.w3.org/2000/svg"
 width="448.000000pt" height="442.000000pt" viewBox="0 0 448.000000 442.000000"
 preserveAspectRatio="xMidYMid meet">
<metadata>
Created by potrace 1.15, written by Peter Selinger 2001-2017
</metadata>
<g transform="translate(0.000000,442.000000) scale(0.100000,-0.100000)"
fill="#000000" stroke="none">
<path d="M1527 4137 c-161 -52 -201 -258 -71 -365 42 -35 119 -57 164 -47 34
7 60 -7 60 -33 0 -9 -63 -79 -139 -157 -111 -111 -141 -148 -150 -180 -16 -61
1 -109 64 -174 l53 -56 22 28 c39 50 83 85 139 114 51 25 66 28 161 28 100 0
108 -1 168 -34 76 -41 135 -104 170 -179 23 -48 27 -71 27 -147 0 -82 -3 -97
-33 -157 -21 -43 -51 -84 -87 -116 l-55 -50 56 -51 c68 -62 117 -79 176 -62
33 10 72 42 179 148 109 107 142 134 161 131 21 -3 23 -9 29 -78 8 -108 47
-169 133 -204 149 -62 320 78 285 234 -26 114 -97 170 -217 170 -59 0 -82 11
-82 40 0 8 59 74 131 145 72 72 137 143 146 159 18 34 19 105 2 138 -6 12 -73
85 -148 161 -159 161 -160 168 -43 178 120 9 201 78 218 185 12 84 -41 180
-120 218 -44 21 -138 21 -179 0 -81 -41 -135 -134 -124 -213 5 -43 -7 -71 -31
-71 -10 0 -65 48 -122 106 -58 58 -127 124 -153 145 -45 36 -54 39 -108 39
l-60 0 -155 -147 c-181 -171 -186 -172 -195 -52 -6 78 -22 120 -61 155 -55 51
-144 72 -211 51z"/>
<path d="M505 3131 c-22 -10 -53 -31 -69 -47 -89 -89 -73 -245 32 -319 36 -24
55 -30 115 -33 75 -4 97 -13 97 -41 0 -9 -59 -75 -131 -146 -72 -72 -137 -143
-146 -159 -21 -40 -19 -109 6 -148 11 -18 76 -89 146 -158 69 -69 125 -130
125 -137 0 -24 -33 -45 -62 -39 -105 21 -220 -67 -242 -184 -22 -125 110 -256
237 -236 114 19 176 91 186 220 10 116 16 114 189 -56 123 -121 154 -148 186
-153 58 -11 112 10 173 68 l54 51 -28 21 c-47 34 -90 86 -119 144 -25 49 -28
67 -29 151 0 83 4 102 27 152 35 76 104 148 175 184 53 27 67 29 163 29 95 0
111 -3 162 -28 35 -17 77 -50 109 -85 l52 -56 49 53 c55 60 68 86 68 136 0 61
-19 88 -156 222 -79 78 -134 140 -134 152 0 29 25 44 60 36 78 -17 186 41 221
119 85 187 -107 368 -291 276 -73 -37 -110 -104 -110 -198 0 -58 -11 -82 -38
-82 -8 0 -75 63 -150 139 -211 215 -229 215 -443 4 -109 -107 -142 -134 -161
-131 -21 3 -23 9 -29 78 -6 85 -23 124 -73 168 -60 53 -149 66 -221 33z"/>
<path d="M3777 3136 c-67 -18 -97 -43 -130 -107 -22 -43 -28 -65 -25 -105 3
-51 -11 -84 -36 -84 -6 0 -72 61 -146 136 -168 170 -210 190 -299 145 -35 -18
-111 -92 -111 -109 0 -4 14 -16 30 -27 46 -30 108 -121 126 -183 11 -38 15
-79 12 -131 -10 -171 -122 -300 -295 -341 -116 -27 -254 20 -341 114 l-49 55
-50 -52 c-61 -62 -73 -84 -73 -132 0 -58 31 -103 164 -235 69 -69 126 -132
126 -141 0 -28 -27 -42 -64 -35 -79 15 -177 -37 -216 -115 -27 -51 -27 -137 0
-188 69 -136 265 -157 353 -39 33 45 39 63 46 142 10 115 17 113 183 -51 220
-216 235 -217 449 -6 109 107 142 134 161 131 21 -3 23 -9 29 -78 6 -81 21
-120 66 -162 65 -62 156 -74 240 -33 72 36 106 90 111 175 4 81 -23 140 -87
185 -35 24 -54 30 -114 33 -75 4 -97 14 -97 40 0 9 63 79 139 157 113 115 141
148 146 178 15 78 3 99 -143 253 -75 80 -138 154 -140 164 -4 24 31 43 67 35
89 -19 209 66 230 164 23 107 -40 216 -142 246 -59 18 -58 18 -120 1z"/>
<path d="M1516 2135 c-79 -28 -138 -111 -138 -194 0 -124 89 -213 217 -215
120 -2 115 -22 -46 -181 -72 -72 -137 -143 -146 -159 -21 -40 -19 -109 6 -148
11 -18 76 -89 146 -158 69 -69 125 -130 125 -136 0 -21 -38 -46 -59 -39 -12 3
-45 1 -74 -5 -175 -36 -229 -255 -90 -369 96 -79 240 -56 310 50 22 34 28 56
31 113 4 69 17 96 46 96 5 0 73 -63 151 -141 210 -208 219 -207 431 2 77 76
144 139 148 139 4 0 16 -5 27 -10 15 -9 19 -22 19 -71 0 -95 36 -161 110 -199
54 -27 96 -33 149 -20 170 41 220 257 84 369 -40 33 -124 56 -167 45 -31 -7
-56 10 -56 38 0 11 56 74 139 156 114 112 142 144 150 177 16 61 -2 109 -63
172 l-51 54 -65 -64 c-84 -81 -152 -110 -260 -110 -129 0 -233 57 -310 168
-99 144 -71 349 65 473 l55 50 -56 51 c-66 60 -114 77 -176 61 -33 -9 -69 -39
-184 -151 -128 -125 -145 -139 -163 -129 -18 9 -21 21 -21 73 -1 109 -60 192
-156 216 -55 14 -80 13 -128 -4z"/>
</g>
</svg>
