<?xml version="1.0" standalone="no"?>
<!DOCTYPE svg PUBLIC "-//W3C//DTD SVG 20010904//EN"
 "http://www.w3.org/TR/2001/REC-SVG-20010904/DTD/svg10.dtd">
<svg version="1.0" xmlns="http://www.w3.org/2000/svg"
 width="342.000000pt" height="413.000000pt" viewBox="0 0 342.000000 413.000000"
 preserveAspectRatio="xMidYMid meet">
<metadata>
Created by potrace 1.15, written by Peter Selinger 2001-2017
</metadata>
<g transform="translate(0.000000,413.000000) scale(0.100000,-0.100000)"
fill="#000000" stroke="none">
<path d="M960 3756 l0 -74 78 -26 c112 -37 275 -74 451 -101 85 -14 156 -27
159 -30 3 -3 1 -5 -4 -5 -19 0 -88 -103 -99 -148 l-12 -47 73 -32 c90 -40 143
-72 212 -131 28 -24 52 -43 52 -40 0 2 -15 39 -33 83 -55 131 -78 210 -75 257
l3 43 65 -1 c36 0 184 -4 330 -9 146 -4 345 -4 443 0 l177 7 0 72 0 71 -277
-3 c-515 -7 -950 39 -1362 144 -96 24 -176 44 -178 44 -2 0 -3 -33 -3 -74z"/>
<path d="M1450 3234 c-33 -22 -120 -106 -120 -116 0 -4 16 -8 36 -8 52 0 257
-43 403 -85 69 -19 127 -35 130 -35 16 0 -57 62 -134 112 -93 62 -255 148
-278 148 -7 0 -24 -7 -37 -16z"/>
<path d="M1183 2895 c-51 -101 -54 -112 -43 -140 6 -16 14 -69 17 -117 l6 -88
31 0 c17 0 94 9 171 20 77 11 172 25 210 30 39 6 152 19 253 29 101 10 185 21
188 23 5 6 -53 199 -63 208 -4 4 -75 24 -158 44 -82 20 -199 49 -260 65 -73
19 -142 30 -204 33 l-94 3 -54 -110z"/>
<path d="M1895 2528 c-163 -19 -660 -85 -712 -93 -25 -5 -33 -11 -34 -28 0
-12 -8 -53 -19 -92 l-18 -70 25 -72 c18 -50 31 -73 42 -73 61 0 734 161 866
207 96 33 100 43 60 144 -39 101 -34 99 -210 77z"/>
<path d="M2102 2209 c-123 -57 -488 -145 -809 -195 l-111 -18 -4 -85 -4 -86
45 -55 c25 -30 46 -56 47 -58 4 -8 402 59 567 96 48 11 87 18 87 15 0 -2 -47
-26 -104 -53 -135 -64 -357 -138 -457 -152 -72 -10 -79 -13 -79 -34 0 -12 -5
-45 -11 -71 l-12 -49 49 -47 c27 -26 58 -47 69 -47 32 0 375 86 433 109 67 27
60 14 -26 -42 -87 -59 -208 -114 -301 -138 -41 -10 -77 -21 -80 -24 -2 -3 5
-18 17 -33 103 -127 105 -135 100 -361 l-3 -174 85 -87 c78 -78 183 -150 220
-150 7 0 57 18 111 40 54 21 116 42 136 45 44 7 46 8 -85 -73 l-93 -57 32 -27
c36 -31 121 -65 244 -99 57 -15 110 -22 185 -23 l105 -1 -1 66 c-1 37 -10 93
-19 125 -12 40 -20 121 -26 254 -6 153 -15 229 -39 350 -63 317 -64 329 -65
610 -1 226 -4 273 -19 320 -18 54 -18 55 -36 33 -39 -49 -134 -219 -166 -299
-38 -94 -80 -253 -90 -345 -9 -83 32 -197 177 -487 64 -129 113 -230 109 -225
-47 52 -276 444 -322 551 -30 70 -33 86 -32 167 3 159 65 343 191 562 115 199
109 183 87 237 -11 25 -23 46 -29 45 -5 0 -39 -14 -73 -30z m-299 -1091 c55
-65 -36 -156 -101 -100 -12 9 -24 29 -28 44 -5 22 0 34 25 59 25 25 37 30 59
25 15 -4 35 -16 45 -28z m539 -615 c55 -52 23 -143 -49 -143 -20 0 -44 7 -54
16 -17 16 -16 19 17 62 19 25 37 56 40 69 8 29 12 29 46 -4z"/>
</g>
</svg>
