<?xml version="1.0" standalone="no"?>
<!DOCTYPE svg PUBLIC "-//W3C//DTD SVG 20010904//EN"
 "http://www.w3.org/TR/2001/REC-SVG-20010904/DTD/svg10.dtd">
<svg version="1.0" xmlns="http://www.w3.org/2000/svg"
 width="338.000000pt" height="243.000000pt" viewBox="0 0 338.000000 243.000000"
 preserveAspectRatio="xMidYMid meet">
<metadata>
Created by potrace 1.15, written by Peter Selinger 2001-2017
</metadata>
<g transform="translate(0.000000,243.000000) scale(0.100000,-0.100000)"
fill="#000000" stroke="none">
<path d="M376 2130 c-74 -23 -115 -109 -87 -182 5 -13 118 -151 251 -307 132
-156 247 -293 255 -305 13 -17 15 -94 15 -481 0 -345 3 -464 12 -473 17 -17
64 -15 82 4 14 14 16 72 16 490 0 298 -4 482 -10 494 -6 10 -125 155 -265 321
-141 166 -254 306 -252 313 12 36 52 -1 245 -229 111 -132 216 -255 232 -272
l28 -33 249 0 c228 0 251 -2 280 -20 63 -38 64 -40 61 -447 -3 -360 -3 -368
-23 -368 -20 0 -20 7 -22 305 -2 203 -7 312 -14 327 -15 28 -48 36 -76 17
l-23 -14 0 -438 c0 -327 3 -441 12 -450 7 -7 24 -12 39 -12 39 0 59 33 59 97
0 50 1 53 25 53 43 0 94 27 115 62 19 32 20 49 20 423 0 356 -2 393 -19 430
-35 78 -126 144 -198 145 -17 0 -34 4 -37 8 -3 5 2 28 10 53 19 53 15 129 -10
180 -72 151 -275 190 -394 76 -46 -44 -64 -81 -77 -155 l-10 -63 -180 212
c-98 116 -188 217 -199 224 -30 19 -76 25 -110 15z m828 -301 c56 -44 72 -118
36 -176 -64 -105 -232 -77 -254 42 -9 46 21 113 61 137 41 25 123 24 157 -3z"/>
<path d="M1787 1959 c-114 -27 -197 -131 -197 -247 0 -84 64 -177 149 -215 39
-18 73 -22 216 -27 140 -4 176 -8 198 -23 57 -37 57 -43 55 -444 -3 -360 -3
-368 -23 -368 -19 0 -20 8 -25 313 l-5 314 -24 19 c-29 24 -33 24 -62 0 l-24
-19 -3 -419 c-2 -467 -2 -468 58 -468 42 0 60 28 60 98 0 44 2 47 25 47 43 0
94 27 115 62 19 32 20 49 20 422 0 376 -1 391 -21 433 -39 81 -124 142 -196
143 -17 0 -34 4 -37 8 -3 5 2 28 10 53 19 53 15 129 -10 180 -49 102 -173 164
-279 138z m137 -130 c106 -83 49 -243 -86 -241 -100 2 -162 97 -119 185 26 55
63 76 127 77 37 0 59 -6 78 -21z"/>
<path d="M2523 1960 c-44 -9 -107 -45 -135 -77 -32 -35 -59 -112 -59 -167 0
-94 49 -171 138 -216 44 -22 63 -25 225 -30 171 -5 177 -6 203 -30 54 -49 55
-61 55 -438 0 -299 -2 -351 -15 -362 -12 -10 -18 -10 -30 0 -13 11 -15 58 -15
316 0 293 -1 305 -21 325 -22 22 -55 19 -76 -9 -10 -12 -13 -116 -13 -443 0
-470 -1 -459 60 -459 38 0 50 23 50 94 l0 56 34 0 c43 0 96 36 118 80 16 31
18 72 18 396 0 422 -2 437 -79 514 -48 48 -96 70 -152 70 -36 0 -39 7 -22 48
19 46 19 137 0 183 -45 110 -166 173 -284 149z m134 -128 c50 -27 74 -107 49
-165 -40 -96 -191 -105 -246 -14 -24 38 -25 75 -6 122 31 72 124 99 203 57z"/>
</g>
</svg>
