<?xml version="1.0" standalone="no"?>
<!DOCTYPE svg PUBLIC "-//W3C//DTD SVG 20010904//EN"
 "http://www.w3.org/TR/2001/REC-SVG-20010904/DTD/svg10.dtd">
<svg version="1.0" xmlns="http://www.w3.org/2000/svg"
 width="391.000000pt" height="440.000000pt" viewBox="0 0 391.000000 440.000000"
 preserveAspectRatio="xMidYMid meet">
<metadata>
Created by potrace 1.15, written by Peter Selinger 2001-2017
</metadata>
<g transform="translate(0.000000,440.000000) scale(0.100000,-0.100000)"
fill="#000000" stroke="none">
<path d="M1545 3852 l-409 -317 87 -3 87 -3 -2 -372 -3 -372 -92 -3 -93 -3 0
-319 0 -320 85 0 c47 0 85 -3 85 -7 1 -19 -141 -1441 -146 -1460 -4 -22 -9
-23 -104 -23 l-100 0 0 -90 0 -90 1020 0 1020 0 0 90 0 89 -102 3 -103 3 -73
730 c-40 401 -70 735 -68 742 4 9 29 13 81 13 l75 0 0 320 0 319 -87 3 -88 3
-3 372 -2 372 87 3 88 3 -403 315 c-222 173 -409 316 -415 317 -7 1 -196 -140
-422 -315z m560 -22 c66 -51 127 -99 135 -106 12 -12 -31 -14 -273 -14 -185 0
-286 3 -282 10 16 26 279 219 289 212 6 -5 65 -50 131 -102z m315 -675 l0
-375 -460 0 -460 0 0 375 0 375 460 0 460 0 0 -375z m-925 -695 l0 -135 -92
-3 -93 -3 0 141 0 141 93 -3 92 -3 0 -135z m373 -2 l3 -138 -96 0 -95 0 0 140
0 141 93 -3 92 -3 3 -137z m372 2 l0 -140 -95 0 -95 0 0 140 0 140 95 0 95 0
0 -140z m370 0 l0 -141 -92 3 -93 3 -3 124 c-1 69 0 131 2 138 4 9 31 13 96
13 l90 0 0 -140z m-170 -322 c24 -224 37 -365 33 -370 -6 -11 -1020 -10 -1027
0 -7 11 28 344 37 360 6 9 114 12 483 12 261 0 474 -1 474 -2z m55 -570 c5
-15 35 -300 35 -334 l0 -24 -570 0 -570 0 0 33 c0 17 7 93 15 167 8 74 15 143
15 153 0 16 32 17 535 17 420 0 537 -3 540 -12z m59 -570 c3 -13 10 -77 16
-143 6 -66 13 -139 17 -162 l5 -43 -632 0 -633 0 6 48 c4 26 11 103 17 172 7
69 13 131 16 138 3 9 130 12 593 12 l591 0 4 -22z"/>
<path d="M1845 3406 c-135 -62 -198 -224 -140 -362 38 -92 150 -164 255 -164
247 0 368 305 188 477 -78 75 -204 95 -303 49z m155 -171 c35 -18 50 -43 50
-82 0 -61 -65 -106 -120 -83 -75 31 -82 126 -12 164 35 19 46 19 82 1z"/>
<path d="M427 3623 c-34 -59 -42 -81 -34 -89 19 -17 453 -264 465 -264 10 0
98 148 91 154 -3 3 -423 245 -471 272 -3 2 -26 -31 -51 -73z"/>
<path d="M3208 3562 c-131 -75 -238 -140 -238 -144 0 -15 83 -148 93 -148 9 0
436 241 464 262 8 6 -2 32 -34 88 -25 44 -46 80 -47 80 0 -1 -108 -62 -238
-138z"/>
<path d="M200 3065 l0 -95 275 0 275 0 0 95 0 95 -275 0 -275 0 0 -95z"/>
<path d="M3160 3065 l0 -95 280 0 280 0 0 95 0 95 -280 0 -280 0 0 -95z"/>
<path d="M618 2723 l-237 -136 31 -58 c18 -32 39 -67 48 -80 l17 -22 229 133
c126 73 233 136 237 140 8 7 -72 160 -83 160 -3 0 -112 -62 -242 -137z"/>
<path d="M3011 2784 c-24 -42 -40 -79 -35 -84 5 -4 112 -67 239 -140 l229
-133 16 23 c8 13 30 49 47 80 l33 57 -233 134 c-127 74 -236 135 -242 137 -5
1 -30 -32 -54 -74z"/>
</g>
</svg>
