<?xml version="1.0" standalone="no"?>
<!DOCTYPE svg PUBLIC "-//W3C//DTD SVG 20010904//EN"
 "http://www.w3.org/TR/2001/REC-SVG-20010904/DTD/svg10.dtd">
<svg version="1.0" xmlns="http://www.w3.org/2000/svg"
 width="418.000000pt" height="388.000000pt" viewBox="0 0 418.000000 388.000000"
 preserveAspectRatio="xMidYMid meet">
<metadata>
Created by potrace 1.15, written by Peter Selinger 2001-2017
</metadata>
<g transform="translate(0.000000,388.000000) scale(0.100000,-0.100000)"
fill="#000000" stroke="none">
<path d="M2581 3601 c-26 -26 -26 -22 8 -223 l28 -167 -30 -181 c-30 -177 -30
-180 -11 -201 47 -52 245 11 333 106 l41 45 53 -40 c101 -77 271 -130 415
-130 155 0 302 72 452 220 145 143 145 223 -1 368 -178 177 -347 242 -551 213
-115 -16 -204 -49 -290 -108 l-78 -52 -50 50 c-62 61 -154 107 -237 115 -53 6
-63 4 -82 -15z m957 -116 c111 -33 322 -210 322 -270 0 -33 -107 -148 -189
-202 -96 -64 -162 -85 -260 -84 -165 1 -291 52 -389 156 -34 36 -67 65 -73 65
-23 0 -50 -23 -69 -58 -38 -71 -107 -133 -165 -148 -26 -6 -28 -5 -22 16 3 12
14 77 23 144 17 119 17 123 -5 250 -12 71 -19 131 -16 134 2 3 23 -3 46 -13
42 -20 139 -117 139 -140 0 -20 40 -55 63 -55 10 0 49 31 86 70 72 74 134 109
240 135 77 18 206 18 269 0z"/>
<path d="M880 2440 c-11 -11 -20 -27 -20 -35 0 -9 25 -83 55 -164 30 -82 55
-153 55 -158 0 -5 -12 -20 -26 -34 -46 -42 -154 -180 -195 -249 -57 -96 -105
-223 -130 -341 -27 -135 -23 -369 10 -492 42 -159 130 -314 252 -442 38 -40
69 -76 69 -79 0 -4 -87 -50 -193 -101 -107 -51 -201 -101 -210 -110 -24 -23
-21 -61 5 -79 20 -14 178 -16 1490 -16 1320 0 1468 2 1482 16 20 19 21 68 2
83 -7 6 -108 53 -225 105 -117 52 -215 96 -218 100 -3 3 34 47 83 98 244 252
343 519 304 824 -31 249 -130 459 -301 639 l-70 73 56 147 c30 82 55 160 55
176 0 63 82 59 -1171 59 -1126 0 -1139 0 -1159 -20z m2190 -104 c0 -2 -22 -65
-50 -140 -27 -75 -50 -138 -50 -141 0 -3 40 -48 89 -101 175 -188 257 -347
292 -567 17 -108 7 -283 -21 -372 -49 -158 -165 -324 -334 -479 -53 -48 -96
-96 -96 -105 0 -30 41 -57 165 -111 66 -28 122 -54 124 -56 2 -2 -522 -4
-1165 -3 l-1169 0 120 60 c123 62 145 79 145 111 0 11 -40 57 -91 106 -143
136 -219 249 -268 399 -42 125 -56 265 -42 404 25 235 114 420 291 603 53 55
90 101 90 113 0 11 -11 49 -24 84 -13 35 -36 94 -50 132 l-25 67 1034 0 c569
0 1035 -2 1035 -4z"/>
<path d="M1650 2150 c-11 -11 -20 -23 -20 -27 0 -5 14 -87 30 -183 l30 -175
-31 -179 c-27 -164 -28 -180 -14 -202 19 -29 74 -32 156 -8 71 21 113 46 174
105 l50 48 44 -35 c136 -107 381 -161 541 -119 118 30 265 126 366 238 60 66
77 108 72 169 -6 60 -61 133 -165 221 -150 126 -281 175 -439 164 -147 -10
-289 -61 -373 -134 -22 -18 -41 -33 -43 -33 -2 0 -29 24 -59 53 -100 97 -268
148 -319 97z m1025 -144 c58 -29 100 -60 166 -125 117 -113 117 -120 12 -223
-175 -170 -316 -213 -525 -159 -107 28 -152 54 -231 132 -37 38 -73 69 -78 69
-25 0 -49 -23 -78 -75 -19 -33 -50 -68 -79 -89 -42 -31 -89 -52 -97 -44 -2 2
6 53 16 113 10 61 19 133 19 160 0 43 -19 181 -36 254 -4 21 -2 23 21 17 61
-15 111 -62 178 -166 36 -55 57 -51 134 28 109 110 223 153 399 149 94 -2 105
-4 179 -41z"/>
<path d="M1423 1156 c-35 -13 -88 -39 -119 -57 -66 -39 -224 -185 -255 -235
-27 -44 -29 -116 -4 -164 26 -51 154 -173 240 -229 128 -84 243 -111 389 -92
134 18 247 62 339 134 l38 29 53 -50 c65 -62 134 -97 219 -113 58 -11 69 -10
91 5 33 21 33 31 0 234 l-27 162 27 163 c31 190 31 200 9 222 -13 14 -30 16
-82 13 -87 -6 -171 -47 -238 -114 l-52 -52 -53 40 c-115 87 -215 119 -388 124
-113 4 -131 2 -187 -20z m315 -107 c97 -24 172 -66 237 -134 84 -86 114 -86
158 0 22 44 79 99 128 124 42 20 44 20 47 3 2 -11 -6 -74 -18 -142 l-21 -123
22 -134 c12 -73 19 -136 16 -139 -9 -9 -102 45 -130 75 -14 14 -38 49 -54 76
-44 75 -68 74 -143 -8 -99 -108 -247 -163 -417 -155 -72 4 -93 10 -160 44 -97
48 -263 203 -263 244 0 18 23 47 88 110 94 90 196 154 274 170 51 11 169 5
236 -11z"/>
</g>
</svg>
