<?xml version="1.0" encoding="UTF-8" standalone="no"?>
<svg
   xmlns:dc="http://purl.org/dc/elements/1.1/"
   xmlns:cc="http://creativecommons.org/ns#"
   xmlns:rdf="http://www.w3.org/1999/02/22-rdf-syntax-ns#"
   xmlns:svg="http://www.w3.org/2000/svg"
   xmlns="http://www.w3.org/2000/svg"
   xmlns:sodipodi="http://sodipodi.sourceforge.net/DTD/sodipodi-0.dtd"
   xmlns:inkscape="http://www.inkscape.org/namespaces/inkscape"
   xml:space="preserve"
   version="1.0"
   style="clip-rule:evenodd;fill-rule:evenodd;image-rendering:optimizeQuality;shape-rendering:geometricPrecision;text-rendering:geometricPrecision"
   viewBox="0 0 4697.8857 3701.898"
   x="0px"
   y="0px"
   id="svg60"
   sodipodi:docname="noun_connection_1905750.svg"
   width="4697.8857"
   height="3701.8979"
   inkscape:version="0.92.3 (2405546, 2018-03-11)"><metadata
   id="metadata64"><rdf:RDF><cc:Work
       rdf:about=""><dc:format>image/svg+xml</dc:format><dc:type
         rdf:resource="http://purl.org/dc/dcmitype/StillImage" /><dc:title></dc:title></cc:Work></rdf:RDF></metadata><sodipodi:namedview
   pagecolor="#ffffff"
   bordercolor="#666666"
   borderopacity="1"
   objecttolerance="10"
   gridtolerance="10"
   guidetolerance="10"
   inkscape:pageopacity="0"
   inkscape:pageshadow="2"
   inkscape:window-width="1920"
   inkscape:window-height="1001"
   id="namedview62"
   showgrid="false"
   inkscape:snap-page="true"
   inkscape:zoom="0.01"
   inkscape:cx="73202.114"
   inkscape:cy="-19224.565"
   inkscape:window-x="-9"
   inkscape:window-y="-9"
   inkscape:window-maximized="1"
   inkscape:current-layer="g54" /><defs
   id="defs4"><style
     type="text/css"
     id="style2">
   
    .fil0 {fill:black;fill-rule:nonzero}
   
  </style></defs><g
   id="g54"
   transform="translate(-0.05859375,-6319.1539)"><g
     id="g32" /><g
     id="g36" /><path
     class="fil0"
     d="m 2791.0948,7776.6459 c -92.2006,-61.7635 29.8022,-169.8497 122.0028,-107.7271 300.3504,202.1678 332.4809,552.2808 79.1621,782.0985 L 1931.4874,9429.5382 C 1751.7429,9615.547 1501.6838,9712.5013 1200.8677,9671.565 626.24397,9593.6425 424.61342,9061.1116 775.255,8757.3213 L 1870.9517,7741.0959 c 77.7651,-72.1771 220.7226,19.3909 142.9575,91.5681 L 913.55586,8852.8393 c -362.28306,331.7994 105.70474,824.8303 628.64024,649.2352 139.6979,-46.6818 167.1718,-91.209 244.0056,-161.9497 L 2850.6992,8358.013 c 186.2638,-168.7724 163.9122,-430.9083 -59.6044,-581.3671 z m -282.1896,446.7082 c 92.2006,61.7635 -29.8022,169.8497 -122.0028,107.7271 -300.3504,-202.1678 -332.4809,-552.2808 -79.1621,-782.0985 l 1060.7723,-978.5209 c 179.7445,-186.0088 429.8036,-282.9631 730.6197,-242.0268 574.6237,77.9225 776.2543,610.4534 425.6127,914.2437 L 3429.0483,8258.9041 c -77.7651,72.1771 -220.7226,-19.3909 -142.9575,-91.5681 L 4386.4441,7147.1607 c 362.2831,-331.7994 -105.7047,-824.8303 -628.6402,-649.2352 -139.6979,46.6818 -167.1718,91.209 -244.0056,161.9497 L 2449.3008,7641.987 c -186.2638,168.7724 -163.9122,430.9083 59.6044,581.3671 z"
     id="path52"
     inkscape:connector-curvature="0"
     style="fill:#000000;fill-rule:nonzero;stroke-width:0.40891778" /></g><text
   x="-0.05859375"
   y="3695.8457"
   font-size="5px"
   font-weight="bold"
   id="text56"
   style="font-weight:bold;font-size:5px;font-family:'Helvetica Neue', Helvetica, Arial-Unicode, Arial, Sans-serif;fill:#000000">Created by rizqa anindita</text>

<text
   x="-0.05859375"
   y="3700.8457"
   font-size="5px"
   font-weight="bold"
   id="text58"
   style="font-weight:bold;font-size:5px;font-family:'Helvetica Neue', Helvetica, Arial-Unicode, Arial, Sans-serif;fill:#000000">from the Noun Project</text>

</svg>