<?xml version="1.0" standalone="no"?>
<!DOCTYPE svg PUBLIC "-//W3C//DTD SVG 20010904//EN"
 "http://www.w3.org/TR/2001/REC-SVG-20010904/DTD/svg10.dtd">
<svg version="1.0" xmlns="http://www.w3.org/2000/svg"
 width="337.000000pt" height="381.000000pt" viewBox="0 0 337.000000 381.000000"
 preserveAspectRatio="xMidYMid meet">
<metadata>
Created by potrace 1.15, written by Peter Selinger 2001-2017
</metadata>
<g transform="translate(0.000000,381.000000) scale(0.100000,-0.100000)"
fill="#000000" stroke="none">
<path d="M2356 3509 c-100 -25 -143 -60 -478 -397 -350 -354 -364 -372 -388
-499 -6 -34 -8 -86 -4 -115 7 -59 40 -154 55 -164 6 -3 53 20 105 51 76 45 94
60 88 73 -16 40 -16 129 1 163 23 46 600 625 647 650 45 23 115 25 165 4 42
-18 183 -156 208 -205 23 -44 23 -125 1 -171 -9 -20 -153 -171 -324 -341 -358
-356 -341 -345 -492 -313 -23 5 -30 -3 -75 -82 -27 -49 -51 -93 -53 -99 -2 -6
21 -22 50 -35 45 -20 69 -24 158 -24 177 0 173 -3 567 388 226 225 340 345
358 379 55 100 68 205 39 313 -22 87 -56 138 -168 253 -80 83 -114 110 -174
139 -65 33 -84 37 -160 40 -48 1 -104 -2 -126 -8z"/>
<path d="M1200 3060 l0 -250 115 0 115 0 0 250 0 250 -115 0 -115 0 0 -250z"/>
<path d="M545 3150 l-80 -80 260 -260 260 -260 82 82 83 83 -257 257 c-142
142 -260 258 -263 258 -3 0 -41 -36 -85 -80z"/>
<path d="M390 2425 l0 -115 250 0 250 0 0 115 0 115 -250 0 -250 0 0 -115z"/>
<path d="M987 1989 c-97 -23 -213 -110 -259 -196 -33 -61 -286 -823 -298 -900
-19 -112 20 -242 97 -332 57 -67 140 -115 280 -162 118 -39 130 -41 216 -37
79 3 101 9 159 37 79 39 159 116 193 186 36 72 282 831 291 892 9 71 -12 177
-48 245 -28 52 -125 158 -145 158 -4 0 -34 -43 -67 -95 l-58 -96 25 -23 c14
-13 33 -38 42 -57 35 -67 26 -109 -109 -517 -70 -211 -133 -397 -141 -412 -46
-88 -147 -111 -287 -65 -153 51 -195 85 -218 177 -14 56 -19 39 141 523 104
318 122 364 151 392 37 36 94 63 133 63 22 0 25 4 25 38 0 22 3 73 6 115 l7
77 -49 -1 c-27 -1 -66 -5 -87 -10z"/>
</g>
</svg>
