<?xml version="1.0" standalone="no"?>
<!DOCTYPE svg PUBLIC "-//W3C//DTD SVG 20010904//EN"
 "http://www.w3.org/TR/2001/REC-SVG-20010904/DTD/svg10.dtd">
<svg version="1.0" xmlns="http://www.w3.org/2000/svg"
 width="437.000000pt" height="432.000000pt" viewBox="0 0 437.000000 432.000000"
 preserveAspectRatio="xMidYMid meet">
<metadata>
Created by potrace 1.15, written by Peter Selinger 2001-2017
</metadata>
<g transform="translate(0.000000,432.000000) scale(0.100000,-0.100000)"
fill="#000000" stroke="none">
<path d="M2045 4029 c-806 -53 -1490 -644 -1669 -1441 -89 -398 -37 -838 144
-1213 246 -510 723 -883 1280 -1003 436 -94 928 -15 1313 212 272 159 505 389
658 646 239 399 315 844 224 1298 -188 929 -1011 1564 -1950 1501z m479 -174
c273 -58 496 -162 711 -330 92 -72 240 -222 306 -310 342 -453 438 -1055 253
-1586 -32 -94 -123 -292 -143 -312 -4 -4 -33 11 -64 33 -138 99 -177 96 -386
-29 -180 -108 -219 -125 -286 -125 -64 0 -114 20 -250 104 -128 79 -202 112
-244 112 -53 -1 -86 -20 -205 -114 -113 -90 -162 -118 -207 -118 -34 0 -104
32 -211 98 -204 125 -226 125 -403 -9 -104 -78 -144 -99 -193 -99 -52 0 -86
17 -237 116 -126 83 -189 108 -247 99 -43 -8 -44 -7 -114 167 -77 192 -112
359 -121 578 -14 358 81 695 282 995 119 179 218 285 395 422 203 157 487 279
742 317 161 24 163 24 338 20 127 -3 192 -9 284 -29z"/>
</g>
</svg>
