<?xml version="1.0" standalone="no"?>
<!DOCTYPE svg PUBLIC "-//W3C//DTD SVG 20010904//EN"
 "http://www.w3.org/TR/2001/REC-SVG-20010904/DTD/svg10.dtd">
<svg version="1.0" xmlns="http://www.w3.org/2000/svg"
 width="362.000000pt" height="280.000000pt" viewBox="0 0 362.000000 280.000000"
 preserveAspectRatio="xMidYMid meet">
<metadata>
Created by potrace 1.15, written by Peter Selinger 2001-2017
</metadata>
<g transform="translate(0.000000,280.000000) scale(0.100000,-0.100000)"
fill="#000000" stroke="none">
<path d="M230 2115 l0 -405 140 0 140 0 0 -405 0 -405 60 0 60 0 0 630 0 631
-57 -3 -58 -3 -3 -158 -3 -158 -72 3 -72 3 0 265 0 265 235 0 235 0 3 -97 3
-98 64 0 64 0 3 98 3 97 532 3 533 2 2 -442 3 -443 68 -3 67 -3 0 296 0 295
85 0 85 0 0 -385 0 -385 -65 0 -65 0 0 -70 0 -70 135 0 134 0 3 153 3 152 217
3 c259 3 250 7 246 -102 l-3 -71 -88 -3 -88 -3 3 -67 3 -67 150 0 150 0 3 222
2 223 -297 2 -298 3 -3 232 -2 233 242 2 243 3 0 65 0 65 -395 5 -395 5 0 75
0 75 539 3 c425 2 541 0 548 -10 9 -15 11 -419 2 -442 -5 -14 -42 -16 -305
-16 l-299 0 0 -65 0 -65 370 0 370 0 -2 368 -3 367 -1587 3 -1588 2 0 -405z"/>
<path d="M1157 2213 c-4 -3 -7 -130 -7 -282 0 -152 -4 -282 -9 -289 -5 -9 -30
-12 -87 -10 l-79 3 -3 178 -2 177 -65 0 -65 0 0 -245 0 -245 220 0 220 0 2
288 3 287 235 0 235 0 3 -607 2 -608 65 0 65 0 0 155 0 155 80 0 80 0 0 70 0
70 -80 0 -80 0 -2 453 -3 452 -361 3 c-198 1 -363 -1 -367 -5z"/>
<path d="M1457 1793 c-4 -3 -7 -114 -7 -245 l0 -238 -300 0 -300 0 0 -205 0
-205 65 0 64 0 3 137 3 138 303 3 302 2 0 310 0 310 -63 0 c-35 0 -67 -3 -70
-7z"/>
<path d="M3278 993 l-3 -608 -238 -3 -237 -2 2 242 3 243 85 0 85 0 3 -107 3
-108 64 0 65 0 0 175 0 175 -255 0 -255 0 0 -64 0 -65 33 -3 32 -3 0 -240 0
-240 -387 -3 -388 -2 0 160 0 160 -305 0 -305 0 0 78 c0 47 5 83 12 90 8 8 48
12 115 12 l103 0 0 60 0 60 -180 0 -180 0 0 -220 0 -220 300 0 300 0 0 -90 0
-90 -385 0 -385 0 0 160 0 160 -65 0 -64 0 -3 -157 -3 -158 -97 -3 -98 -3 0
161 0 160 -65 0 -65 0 0 -160 0 -160 -80 0 -80 0 0 555 0 555 -65 0 -65 0 0
-625 0 -625 1588 2 1587 3 3 678 2 677 -65 0 -65 0 -2 -607z"/>
<path d="M2072 778 l3 -223 163 -3 162 -2 0 70 0 70 -100 0 -101 0 3 88 3 87
98 3 97 3 0 64 0 65 -165 0 -165 0 2 -222z"/>
</g>
</svg>
