<?xml version="1.0" standalone="no"?>
<!DOCTYPE svg PUBLIC "-//W3C//DTD SVG 20010904//EN"
 "http://www.w3.org/TR/2001/REC-SVG-20010904/DTD/svg10.dtd">
<svg version="1.0" xmlns="http://www.w3.org/2000/svg"
 width="386.000000pt" height="396.000000pt" viewBox="0 0 386.000000 396.000000"
 preserveAspectRatio="xMidYMid meet">
<metadata>
Created by potrace 1.15, written by Peter Selinger 2001-2017
</metadata>
<g transform="translate(0.000000,396.000000) scale(0.100000,-0.100000)"
fill="#000000" stroke="none">
<path d="M1763 3610 c-52 -11 -76 -23 -130 -66 -92 -75 -126 -228 -74 -336 26
-54 96 -123 147 -144 l34 -14 -2 -322 -3 -321 -55 -14 c-30 -7 -77 -27 -104
-44 l-50 -30 -155 155 -155 155 29 58 c38 79 55 145 55 223 0 135 -47 245
-146 345 -191 191 -489 190 -680 -4 -188 -189 -192 -472 -10 -668 97 -104 209
-153 351 -153 89 1 144 13 223 52 l63 31 154 -153 154 -154 -29 -50 c-15 -28
-36 -77 -45 -108 l-16 -58 -110 0 -109 0 -14 34 c-19 47 -80 112 -134 143 -33
20 -62 27 -116 31 -101 6 -168 -21 -234 -93 -87 -95 -106 -209 -53 -320 49
-103 135 -162 250 -172 108 -10 222 57 280 162 l27 50 106 3 105 3 17 -65 c10
-36 31 -86 48 -112 l29 -47 -243 -244 -243 -244 -40 8 c-104 21 -182 -3 -248
-76 -55 -61 -74 -162 -43 -235 67 -162 272 -201 393 -74 18 18 39 50 47 70 18
41 21 124 7 161 -9 22 11 44 239 272 l247 247 47 -27 c26 -15 72 -35 104 -44
l57 -17 3 -127 3 -126 -39 -10 c-83 -23 -171 -100 -216 -190 -115 -226 23
-495 278 -542 136 -25 289 43 369 163 134 202 57 457 -169 559 l-65 29 3 121
3 121 56 17 c30 10 79 30 108 46 l52 29 130 -130 130 -130 -20 -62 c-27 -79
-27 -165 -1 -236 87 -230 376 -297 553 -128 170 164 125 446 -88 552 -73 36
-185 40 -267 10 l-61 -22 -129 130 -129 130 27 53 c15 30 35 79 45 109 l17 55
277 0 277 0 20 -52 c28 -75 104 -155 186 -195 60 -30 75 -33 157 -33 82 0 97
3 156 32 79 39 140 102 177 181 23 49 27 70 27 152 0 81 -4 103 -26 150 -90
191 -330 272 -512 172 -65 -35 -139 -118 -168 -187 l-23 -55 -277 0 -277 0
-12 48 c-6 26 -25 73 -42 105 l-31 58 31 31 c31 31 31 31 74 17 116 -38 252
11 313 115 80 137 30 316 -109 388 -50 26 -143 34 -198 19 -147 -41 -234 -211
-183 -355 13 -38 13 -40 -15 -68 l-29 -29 -53 30 c-29 16 -79 37 -110 46 l-58
16 0 318 0 317 37 18 c62 29 107 72 139 128 25 46 29 63 29 133 0 64 -5 89
-23 125 -63 121 -191 185 -319 160z"/>
</g>
</svg>
