<?xml version="1.0" standalone="no"?>
<!DOCTYPE svg PUBLIC "-//W3C//DTD SVG 20010904//EN"
 "http://www.w3.org/TR/2001/REC-SVG-20010904/DTD/svg10.dtd">
<svg version="1.0" xmlns="http://www.w3.org/2000/svg"
 width="298.000000pt" height="328.000000pt" viewBox="0 0 298.000000 328.000000"
 preserveAspectRatio="xMidYMid meet">
<metadata>
Created by potrace 1.15, written by Peter Selinger 2001-2017
</metadata>
<g transform="translate(0.000000,328.000000) scale(0.100000,-0.100000)"
fill="#000000" stroke="none">
<path d="M780 2981 c-116 -37 -193 -94 -253 -184 -118 -178 -103 -413 37 -572
49 -57 133 -110 209 -135 l52 -17 5 -152 c5 -162 8 -171 58 -171 29 0 38 11
135 175 l82 140 129 0 129 0 48 -143 c27 -79 53 -150 60 -158 15 -18 63 -18
78 0 7 8 33 79 60 158 l48 143 126 3 125 3 83 -138 c45 -76 91 -148 102 -160
22 -25 71 -31 84 -10 4 6 10 79 13 162 l5 149 41 12 c146 42 264 157 314 305
18 53 21 81 18 165 -3 92 -7 107 -40 175 -61 124 -160 210 -287 249 -60 19
-95 20 -735 19 -615 0 -676 -2 -726 -18z m1472 -123 c118 -55 199 -172 206
-301 11 -187 -98 -327 -290 -372 -35 -8 -68 -22 -75 -32 -7 -9 -13 -43 -13
-76 0 -34 -4 -56 -9 -52 -6 3 -24 31 -42 62 -56 97 -45 93 -245 93 -96 0 -184
-4 -194 -10 -11 -6 -29 -42 -45 -90 -15 -44 -30 -82 -34 -84 -4 -3 -20 33 -35
80 -17 51 -34 88 -46 94 -25 13 -356 13 -380 0 -11 -6 -39 -43 -62 -83 l-43
-72 -5 67 c-3 37 -10 72 -15 77 -6 6 -45 20 -87 30 -88 23 -138 51 -190 109
-51 56 -77 111 -86 179 -24 184 76 344 251 399 33 10 178 13 712 11 l670 -2
57 -27z"/>
<path d="M814 1626 c-43 -19 -101 -81 -115 -123 -11 -34 -8 -122 5 -153 5 -12
-5 -19 -41 -30 -64 -18 -134 -89 -157 -157 -14 -44 -17 -86 -14 -282 l3 -230
30 -31 c17 -18 49 -36 73 -43 42 -11 42 -11 42 -58 0 -53 18 -79 55 -79 54 0
55 7 55 321 0 276 -1 290 -20 309 -24 24 -39 25 -66 6 -17 -13 -19 -31 -24
-198 -4 -154 -7 -183 -20 -183 -13 0 -15 30 -18 195 -3 220 3 254 52 298 33
28 37 29 162 34 147 5 183 17 238 78 90 100 55 260 -71 324 -39 19 -126 20
-169 2z m145 -123 c66 -61 28 -163 -61 -163 -30 0 -46 7 -69 29 -86 86 41 216
130 134z"/>
<path d="M2028 1620 c-118 -64 -151 -219 -66 -316 55 -63 96 -77 241 -82 120
-4 131 -6 159 -30 53 -45 58 -71 58 -297 0 -191 -1 -206 -17 -203 -16 3 -19
22 -23 183 -3 99 -9 186 -13 193 -11 17 -63 15 -81 -4 -14 -13 -16 -55 -16
-304 0 -317 1 -320 60 -320 36 0 50 23 50 83 0 44 1 45 38 50 49 8 81 32 98
73 22 52 20 453 -3 519 -23 67 -97 141 -158 157 -40 11 -45 15 -39 33 5 11 8
49 8 85 1 55 -3 71 -26 105 -44 64 -90 89 -167 92 -51 3 -74 -1 -103 -17z
m163 -121 c40 -42 40 -90 0 -130 -53 -52 -135 -33 -162 38 -13 35 -2 69 33 98
43 36 92 34 129 -6z"/>
<path d="M1450 1571 c-86 -28 -142 -84 -166 -167 -16 -56 -14 -91 11 -171 6
-19 4 -23 -16 -23 -39 0 -121 -45 -161 -86 -20 -22 -47 -61 -60 -89 -22 -48
-23 -59 -23 -325 0 -246 2 -278 18 -308 23 -42 72 -72 120 -72 35 0 37 -2 37
-33 0 -62 42 -93 91 -67 18 10 19 25 19 334 0 247 -3 326 -12 333 -27 21 -48
21 -70 3 -22 -18 -23 -24 -28 -237 l-5 -218 -25 0 -25 0 -3 264 -2 264 25 43
c46 79 68 84 336 84 229 0 233 0 275 -25 28 -17 49 -39 63 -68 20 -42 21 -57
19 -303 l-3 -259 -30 0 -30 0 -5 216 c-4 155 -9 220 -18 231 -20 25 -50 28
-75 8 -22 -18 -22 -21 -25 -322 -2 -336 0 -351 54 -356 38 -4 54 14 61 66 5
38 7 39 42 39 49 0 95 25 120 66 20 33 21 48 21 308 0 158 -4 290 -10 311 -23
82 -131 182 -211 194 -22 4 -39 9 -39 13 0 3 7 29 15 56 33 107 -17 225 -119
277 -43 22 -128 32 -166 19z m97 -112 c65 -25 100 -89 82 -153 -32 -115 -201
-115 -239 -1 -20 60 16 128 80 154 33 13 43 13 77 0z"/>
</g>
</svg>
