<?xml version="1.0" standalone="no"?>
<!DOCTYPE svg PUBLIC "-//W3C//DTD SVG 20010904//EN"
 "http://www.w3.org/TR/2001/REC-SVG-20010904/DTD/svg10.dtd">
<svg version="1.0" xmlns="http://www.w3.org/2000/svg"
 width="425.000000pt" height="308.000000pt" viewBox="0 0 425.000000 308.000000"
 preserveAspectRatio="xMidYMid meet">
<metadata>
Created by potrace 1.15, written by Peter Selinger 2001-2017
</metadata>
<g transform="translate(0.000000,308.000000) scale(0.100000,-0.100000)"
fill="#000000" stroke="none">
<path d="M2643 2450 c-83 -22 -197 -76 -265 -127 -63 -45 -155 -147 -197 -217
-113 -189 -133 -447 -50 -655 82 -206 251 -365 464 -437 63 -22 104 -28 198
-32 183 -7 311 26 450 117 219 145 339 365 339 626 1 326 -195 597 -513 712
-64 23 -93 27 -214 30 -115 2 -153 -1 -212 -17z m326 -185 c95 -23 177 -71
257 -151 220 -219 220 -559 0 -780 -112 -112 -236 -164 -396 -164 -248 0 -453
153 -536 400 -26 76 -26 234 0 310 68 201 204 332 399 385 69 18 197 18 276 0z"/>
<path d="M2737 2113 c-4 -3 -7 -71 -7 -150 l0 -143 -145 0 -145 0 0 -95 0 -95
145 0 144 0 3 -147 3 -148 98 -3 97 -3 0 151 0 150 145 0 145 0 0 95 0 95
-145 0 -145 0 0 150 0 150 -93 0 c-52 0 -97 -3 -100 -7z"/>
<path d="M1630 2390 c-349 -48 -667 -212 -915 -471 -125 -131 -205 -245 -205
-294 0 -38 61 -130 164 -248 221 -252 514 -424 848 -498 145 -32 389 -37 543
-11 113 20 281 65 298 81 4 4 -9 19 -30 33 -21 14 -63 48 -93 75 l-55 50 -90
-19 c-120 -25 -328 -34 -436 -19 -214 30 -432 118 -599 241 -92 68 -237 210
-284 278 l-29 42 39 47 c216 266 494 437 813 497 89 17 344 21 418 7 l41 -8
70 93 70 92 -86 17 c-101 20 -383 28 -482 15z"/>
<path d="M1693 2105 c-171 -48 -305 -175 -354 -337 -18 -57 -21 -87 -17 -163
4 -81 10 -104 40 -167 64 -133 173 -228 311 -270 94 -28 255 -23 337 12 86 36
86 35 39 125 -22 44 -42 81 -44 83 -2 2 -22 -6 -45 -18 -27 -14 -69 -24 -114
-27 -99 -7 -172 21 -242 91 -89 91 -109 208 -56 321 60 127 186 191 323 166
35 -7 70 -13 78 -14 8 -1 18 17 27 50 7 29 20 68 28 87 l14 34 -41 18 c-57 24
-215 29 -284 9z"/>
<path d="M1740 1829 c-100 -40 -158 -154 -129 -257 26 -94 146 -173 241 -158
39 6 112 38 121 53 3 5 -1 37 -9 73 -8 36 -15 110 -16 164 -2 99 -2 99 -33
117 -33 21 -132 25 -175 8z"/>
<path d="M3480 1175 c-14 -15 -56 -52 -93 -83 l-68 -55 173 -174 c191 -192
207 -201 275 -166 48 25 83 76 83 121 0 33 -14 50 -173 209 l-173 174 -24 -26z"/>
</g>
</svg>
