<?xml version="1.0" standalone="no"?>
<!DOCTYPE svg PUBLIC "-//W3C//DTD SVG 20010904//EN"
 "http://www.w3.org/TR/2001/REC-SVG-20010904/DTD/svg10.dtd">
<svg version="1.0" xmlns="http://www.w3.org/2000/svg"
 width="338.000000pt" height="323.000000pt" viewBox="0 0 338.000000 323.000000"
 preserveAspectRatio="xMidYMid meet">
<metadata>
Created by potrace 1.15, written by Peter Selinger 2001-2017
</metadata>
<g transform="translate(0.000000,323.000000) scale(0.100000,-0.100000)"
fill="#000000" stroke="none">
<path d="M1864 2896 c-19 -14 -19 -36 -22 -865 l-2 -851 -665 0 -665 0 -11
-24 c-10 -21 7 -63 140 -347 83 -178 159 -331 168 -341 16 -18 47 -19 752 -16
826 4 780 0 941 80 144 72 268 214 326 372 30 82 48 214 35 249 l-10 27 -453
2 -453 3 -5 853 c-4 743 -7 854 -20 862 -21 13 -33 12 -56 -4z"/>
<path d="M1648 2503 c-48 -71 -176 -262 -287 -426 -111 -165 -201 -307 -201
-317 0 -10 7 -26 16 -34 13 -14 54 -16 290 -16 l274 0 0 460 c0 253 -2 460 -3
460 -2 0 -42 -57 -89 -127z"/>
<path d="M2042 1865 l3 -440 202 0 c214 0 226 3 225 47 0 13 -58 133 -129 268
-71 135 -165 313 -208 395 -43 83 -82 154 -87 160 -4 5 -7 -181 -6 -430z"/>
</g>
</svg>
