<?xml version="1.0" standalone="no"?>
<!DOCTYPE svg PUBLIC "-//W3C//DTD SVG 20010904//EN"
 "http://www.w3.org/TR/2001/REC-SVG-20010904/DTD/svg10.dtd">
<svg version="1.0" xmlns="http://www.w3.org/2000/svg"
 width="385.000000pt" height="398.000000pt" viewBox="0 0 385.000000 398.000000"
 preserveAspectRatio="xMidYMid meet">
<metadata>
Created by potrace 1.15, written by Peter Selinger 2001-2017
</metadata>
<g transform="translate(0.000000,398.000000) scale(0.100000,-0.100000)"
fill="#000000" stroke="none">
<path d="M1325 3822 c-37 -5 -90 -44 -116 -86 -18 -29 -19 -56 -19 -509 0
-536 2 -558 70 -702 42 -90 116 -193 166 -231 l34 -26 -73 -78 c-86 -91 -147
-203 -177 -324 -19 -73 -20 -113 -20 -530 0 -449 0 -451 23 -491 16 -28 38
-47 74 -65 42 -21 96 -75 284 -281 349 -383 336 -371 373 -367 28 3 69 44 310
308 230 253 287 310 334 336 39 21 64 42 80 70 l22 39 -2 475 -3 475 -31 88
c-42 115 -84 185 -166 272 l-67 71 55 54 c97 96 158 205 194 345 19 73 20 111
20 558 0 465 -1 480 -21 516 -32 58 -77 83 -149 83 -50 0 -66 -5 -95 -27 -64
-48 -69 -64 -75 -224 l-5 -146 -405 0 -405 0 -5 145 c-4 117 -9 151 -23 175
-35 58 -104 87 -182 77z m79 -134 c14 -20 16 -81 16 -468 0 -368 3 -456 15
-505 30 -114 112 -234 199 -292 l44 -30 -58 -27 c-46 -22 -62 -26 -78 -17 -39
21 -130 133 -166 204 -70 137 -69 132 -73 645 -4 411 -2 466 12 488 20 32 68
33 89 2z m1160 0 c23 -32 24 -846 1 -965 -41 -219 -217 -419 -424 -483 -35
-11 -118 -25 -185 -31 -66 -6 -148 -20 -181 -31 -125 -42 -241 -142 -301 -260
-51 -101 -54 -130 -54 -582 0 -376 -2 -421 -17 -438 -20 -22 -61 -23 -85 -1
-17 15 -18 41 -18 417 0 230 5 428 11 465 29 179 121 326 273 432 90 63 195
97 341 110 60 5 140 18 176 29 125 37 241 135 300 252 57 113 59 131 59 618 0
491 0 490 60 490 18 0 34 -8 44 -22z m-216 -440 l3 -58 -411 0 -410 0 0 53 c0
30 3 57 7 60 4 4 187 6 407 5 l401 -3 3 -57z m2 -233 l0 -55 -410 0 -410 0 0
55 0 55 410 0 410 0 0 -55z m-6 -207 c-3 -18 -7 -43 -10 -55 l-4 -23 -390 0
-390 0 -4 23 c-3 12 -7 37 -10 55 l-5 32 409 0 410 0 -6 -32z m-131 -257 c-86
-83 -148 -106 -278 -106 -93 0 -105 2 -165 32 -61 31 -100 61 -144 111 l-19
22 334 0 334 -1 -62 -58z m182 -424 c99 -105 152 -211 174 -348 6 -37 11 -235
11 -463 0 -358 -2 -401 -17 -418 -20 -22 -61 -23 -85 -1 -17 15 -18 42 -18
437 0 464 -2 486 -61 597 -33 62 -119 156 -169 186 l-31 18 53 26 c29 14 60
27 68 28 8 0 42 -28 75 -62z m-302 -67 c40 -15 78 -41 120 -81 l62 -58 -335
-1 -334 0 39 41 c52 53 126 100 184 116 65 18 192 10 264 -17z m241 -282 c3
-13 7 -38 10 -55 l6 -33 -410 0 -409 0 5 33 c3 17 7 42 10 55 l4 22 390 0 390
0 4 -22z m16 -263 l0 -55 -410 0 -410 0 0 55 0 55 410 0 410 0 0 -55z m-2
-277 c2 -90 -5 -118 -23 -88 -3 6 -20 10 -37 10 -24 0 -45 -15 -104 -72 l-75
-72 -72 71 c-40 38 -80 73 -91 77 -14 5 -37 -13 -97 -71 l-79 -76 -74 71 c-59
57 -80 72 -104 72 -17 0 -34 -4 -37 -10 -3 -5 -10 -10 -16 -10 -10 0 -13 183
-2 193 4 4 187 6 407 5 l401 -3 3 -97z m-683 -288 c93 -94 105 -94 202 2 l73
72 73 -72 c97 -96 107 -96 204 0 l73 72 29 -28 c23 -22 30 -38 33 -81 3 -38
12 -64 32 -90 33 -42 45 -21 -108 -187 l-98 -108 -238 0 -238 0 -98 108 c-153
166 -141 145 -108 187 19 25 28 52 32 88 3 38 11 59 30 80 14 15 28 27 32 27
3 0 37 -31 75 -70z m344 -607 c-35 -38 -66 -68 -69 -68 -3 0 -34 30 -69 68
l-63 67 132 0 132 0 -63 -67z"/>
</g>
</svg>
