<?xml version="1.0" standalone="no"?>
<!DOCTYPE svg PUBLIC "-//W3C//DTD SVG 20010904//EN"
 "http://www.w3.org/TR/2001/REC-SVG-20010904/DTD/svg10.dtd">
<svg version="1.0" xmlns="http://www.w3.org/2000/svg"
 width="328.000000pt" height="330.000000pt" viewBox="0 0 328.000000 330.000000"
 preserveAspectRatio="xMidYMid meet">
<metadata>
Created by potrace 1.15, written by Peter Selinger 2001-2017
</metadata>
<g transform="translate(0.000000,330.000000) scale(0.100000,-0.100000)"
fill="#000000" stroke="none">
<path d="M950 2215 l-675 -675 97 -97 98 -98 60 60 60 59 0 -372 0 -373 -32
36 c-64 74 -163 124 -273 139 l-50 7 30 -23 c105 -79 166 -160 202 -268 12
-35 20 -66 19 -67 -2 -2 -20 4 -41 12 -20 9 -39 14 -41 12 -3 -3 2 -22 10 -43
8 -22 17 -51 20 -66 l6 -28 109 0 109 0 7 76 c4 41 5 135 2 207 l-6 132 43
-88 c24 -48 58 -132 77 -185 l34 -97 7 95 c8 112 29 292 33 288 2 -2 10 -44
19 -94 8 -50 27 -124 40 -165 l25 -74 -7 55 c-16 129 5 405 37 492 4 12 19
-25 43 -109 20 -71 55 -177 79 -238 48 -123 40 -127 69 30 7 39 32 135 56 215
24 80 44 148 44 151 0 4 -18 9 -39 13 -82 13 -154 136 -79 136 35 0 90 -32
109 -64 17 -27 19 -28 26 -10 4 10 8 76 8 146 0 69 3 124 8 121 4 -2 7 -11 7
-19 0 -19 6 -18 41 8 30 22 108 32 124 16 26 -25 -46 -88 -101 -88 l-30 0 4
-138 c4 -131 2 -146 -38 -342 -44 -212 -57 -381 -33 -424 22 -40 140 251 144
353 2 54 17 -31 29 -167 7 -73 15 -131 17 -128 3 3 20 38 37 78 67 153 66 153
59 -24 l-6 -158 41 0 c40 0 41 0 56 53 53 184 89 377 107 577 7 69 15 128 19
133 3 4 21 -161 39 -365 19 -205 37 -377 41 -381 9 -10 44 96 61 183 7 36 16
69 20 73 4 5 12 -24 18 -65 19 -118 27 -124 36 -25 8 98 0 243 -21 362 -16 96
-17 98 -4 90 18 -11 170 -246 213 -329 l42 -81 3 117 c2 94 -2 142 -22 235
-34 164 -36 168 -88 181 -73 18 -153 119 -134 167 7 19 57 19 102 0 36 -15 36
-15 30 8 -36 130 -50 232 -50 367 -1 152 12 226 54 313 l20 42 -5 -35 c-19
-119 -26 -202 -20 -247 l6 -52 47 25 c39 21 57 25 105 22 72 -5 84 -16 63 -57
-24 -45 -87 -83 -147 -89 l-50 -5 7 -40 c3 -23 28 -111 55 -197 92 -291 118
-388 135 -502 24 -162 15 -255 -43 -461 -3 -9 -1 -17 5 -17 5 0 15 21 21 47
19 74 76 188 147 296 36 54 68 96 70 94 3 -3 0 -33 -6 -68 -11 -69 -14 -327
-4 -353 5 -14 30 -16 170 -16 l164 0 0 43 c0 23 11 68 24 100 23 55 23 57 4
57 -28 0 -89 -34 -122 -69 -17 -17 -33 -31 -37 -31 -13 0 21 101 54 163 19 37
58 84 106 129 l76 70 -50 -7 c-67 -9 -144 -40 -194 -75 -22 -17 -43 -30 -46
-30 -3 0 -5 151 -5 335 0 184 3 335 7 335 4 0 31 -24 60 -52 l53 -53 98 98 97
97 -233 233 -232 232 0 278 0 277 -210 0 -210 0 0 -60 c0 -33 -3 -60 -7 -60
-5 0 -109 101 -233 225 l-225 225 -675 -675z"/>
</g>
</svg>
