<?xml version="1.0" standalone="no"?>
<!DOCTYPE svg PUBLIC "-//W3C//DTD SVG 20010904//EN"
 "http://www.w3.org/TR/2001/REC-SVG-20010904/DTD/svg10.dtd">
<svg version="1.0" xmlns="http://www.w3.org/2000/svg"
 width="336.000000pt" height="358.000000pt" viewBox="0 0 336.000000 358.000000"
 preserveAspectRatio="xMidYMid meet">
<metadata>
Created by potrace 1.15, written by Peter Selinger 2001-2017
</metadata>
<g transform="translate(0.000000,358.000000) scale(0.100000,-0.100000)"
fill="#000000" stroke="none">
<path d="M517 3383 l-47 -48 172 -172 173 -173 -173 -173 -172 -172 52 -53 53
-52 172 172 173 173 173 -173 172 -172 50 50 50 50 -173 173 -172 172 172 173
173 172 -53 52 -52 53 -173 -173 -172 -172 -170 170 c-93 93 -172 170 -175
170 -3 0 -27 -21 -53 -47z"/>
<path d="M840 2466 c0 -38 25 -181 42 -238 6 -21 16 -38 23 -38 10 0 136 40
143 45 1 1 -7 40 -18 86 -11 46 -20 98 -20 116 0 60 -5 63 -91 63 l-79 0 0
-34z"/>
<path d="M1091 1993 c-34 -25 -61 -51 -61 -58 0 -32 237 -221 255 -203 5 5 65
136 65 142 0 2 -21 17 -47 32 -27 15 -71 51 -99 80 l-52 53 -61 -46z"/>
<path d="M2136 1893 l-38 -4 6 -71 c10 -96 13 -101 49 -94 16 3 78 6 136 6
l107 0 12 77 c7 42 10 79 7 82 -7 6 -228 10 -279 4z"/>
<path d="M1675 1831 l-110 -6 -5 -79 c-4 -60 -2 -80 9 -84 15 -6 207 5 264 14
42 7 42 8 26 101 -11 62 -11 63 -43 61 -17 -1 -80 -4 -141 -7z"/>
<path d="M2662 1773 c-11 -21 -27 -55 -35 -75 l-16 -37 62 -35 c34 -19 84 -53
112 -75 l50 -40 57 56 c46 46 55 59 46 71 -23 27 -125 101 -191 137 l-66 36
-19 -38z"/>
<path d="M3050 1375 c-30 -19 -59 -36 -63 -37 -4 -2 8 -38 28 -80 19 -42 40
-100 47 -128 l12 -52 35 7 c20 4 57 11 82 16 l47 10 -9 41 c-21 90 -96 258
-116 258 -5 0 -33 -16 -63 -35z"/>
<path d="M1370 863 c0 -47 28 -150 59 -218 l30 -66 72 36 c55 28 70 40 65 53
-3 9 -17 51 -30 92 -14 41 -28 87 -31 103 -5 27 -6 27 -85 27 l-80 0 0 -27z"/>
<path d="M3086 839 c-2 -8 -7 -32 -11 -54 -4 -22 -19 -73 -35 -113 l-28 -72
47 -27 c25 -14 57 -32 69 -40 13 -8 25 -13 27 -11 26 29 108 299 94 312 -2 3
-39 8 -82 12 -61 5 -77 4 -81 -7z"/>
<path d="M1667 409 c-48 -42 -55 -54 -47 -69 12 -23 154 -137 208 -167 l40
-22 36 68 c20 38 36 73 36 77 0 5 -20 20 -45 33 -24 13 -71 48 -104 77 -32 30
-61 54 -63 54 -2 0 -30 -23 -61 -51z"/>
<path d="M2814 379 c-29 -22 -79 -54 -112 -72 l-60 -32 33 -73 c19 -39 36 -72
40 -72 23 0 167 91 234 148 l35 29 -53 56 c-30 32 -57 57 -60 57 -3 0 -29 -18
-57 -41z"/>
<path d="M2155 208 c-17 -49 -32 -144 -24 -152 12 -13 290 -20 307 -8 10 7 10
24 1 83 l-11 74 -106 0 c-59 0 -119 4 -135 8 -19 5 -29 4 -32 -5z"/>
</g>
</svg>
