<?xml version="1.0" standalone="no"?>
<!DOCTYPE svg PUBLIC "-//W3C//DTD SVG 20010904//EN"
 "http://www.w3.org/TR/2001/REC-SVG-20010904/DTD/svg10.dtd">
<svg version="1.0" xmlns="http://www.w3.org/2000/svg"
 width="359.000000pt" height="379.000000pt" viewBox="0 0 359.000000 379.000000"
 preserveAspectRatio="xMidYMid meet">
<metadata>
Created by potrace 1.15, written by Peter Selinger 2001-2017
</metadata>
<g transform="translate(0.000000,379.000000) scale(0.100000,-0.100000)"
fill="#000000" stroke="none">
<path d="M926 3535 c-147 -41 -302 -165 -364 -295 -126 -260 -54 -564 172
-724 289 -206 664 -124 845 185 62 106 87 277 57 401 -48 207 -215 381 -412
432 -75 19 -229 20 -298 1z m272 -306 c102 -50 155 -136 155 -249 1 -161 -118
-281 -278 -281 -213 0 -347 220 -251 409 31 61 68 95 136 126 80 37 157 36
238 -5z"/>
<path d="M1967 2526 c-108 -151 -197 -277 -197 -280 0 -3 77 -6 170 -6 l170 0
0 -47 c0 -82 -20 -261 -41 -370 -114 -592 -545 -1125 -1111 -1374 -188 -83
-425 -139 -646 -155 l-103 -7 3 -71 3 -71 90 3 c285 9 611 100 875 244 184
101 313 200 480 368 355 357 554 795 590 1300 5 80 10 155 10 168 0 22 2 22
143 23 227 2 228 -29 -15 279 -115 146 -212 266 -217 268 -4 1 -96 -121 -204
-272z"/>
<path d="M785 2095 c-77 -85 -144 -154 -148 -155 -5 0 -79 65 -165 145 l-157
146 -98 -103 c-53 -57 -106 -115 -117 -129 l-19 -26 160 -148 161 -148 -34
-36 c-170 -181 -258 -280 -257 -287 0 -5 56 -59 122 -121 l122 -112 60 62 c33
34 101 107 152 161 l91 99 156 -144 c87 -79 162 -144 167 -144 10 0 229 234
229 246 0 3 -70 70 -155 148 -85 78 -155 146 -155 150 0 4 65 79 145 166 115
125 143 161 133 170 -7 6 -63 57 -124 113 -61 56 -115 102 -120 102 -5 -1 -72
-70 -149 -155z"/>
<path d="M3028 1576 c-79 -86 -147 -156 -151 -156 -5 0 -79 65 -165 145 l-157
145 -68 -72 c-37 -40 -90 -98 -117 -129 l-49 -56 160 -148 161 -147 -24 -27
c-14 -14 -79 -86 -147 -159 -67 -74 -121 -137 -119 -142 8 -21 250 -232 257
-224 5 5 71 77 147 159 75 83 142 149 147 147 5 -1 76 -64 158 -140 82 -75
153 -138 158 -140 9 -3 231 233 231 246 0 5 -70 73 -155 151 -86 79 -155 147
-153 151 2 5 64 75 138 156 74 80 138 152 142 158 4 7 -41 55 -114 121 -66 61
-124 111 -128 113 -5 2 -73 -67 -152 -152z"/>
</g>
</svg>
