<?xml version="1.0" standalone="no"?>
<!DOCTYPE svg PUBLIC "-//W3C//DTD SVG 20010904//EN"
 "http://www.w3.org/TR/2001/REC-SVG-20010904/DTD/svg10.dtd">
<svg version="1.0" xmlns="http://www.w3.org/2000/svg"
 width="421.000000pt" height="426.000000pt" viewBox="0 0 421.000000 426.000000"
 preserveAspectRatio="xMidYMid meet">
<metadata>
Created by potrace 1.15, written by Peter Selinger 2001-2017
</metadata>
<g transform="translate(0.000000,426.000000) scale(0.100000,-0.100000)"
fill="#000000" stroke="none">
<path d="M2124 4029 c-129 -16 -238 -61 -334 -138 -157 -126 -244 -296 -257
-501 l-6 -95 -56 -34 c-31 -19 -75 -50 -99 -70 l-43 -35 -62 23 c-78 29 -210
38 -303 21 -165 -29 -327 -152 -396 -300 -47 -98 -59 -154 -59 -261 0 -192
107 -380 269 -476 l42 -25 2 -86 2 -87 3 83 c2 45 5 82 7 82 2 0 23 -7 47 -16
69 -25 240 -30 319 -9 131 34 265 130 336 242 41 63 81 178 89 258 19 179 -75
388 -222 497 -32 23 -60 44 -63 46 -9 6 170 132 188 132 5 0 14 -30 22 -67 7
-37 32 -105 56 -152 168 -334 558 -462 899 -297 180 88 310 256 355 459 7 31
16 57 20 57 15 0 158 -99 223 -155 68 -57 169 -169 221 -243 l27 -39 -36 -36
c-29 -29 -35 -42 -35 -77 0 -35 6 -48 35 -77 31 -31 40 -35 78 -31 23 3 48 6
56 9 31 9 102 -228 122 -408 19 -175 1 -360 -52 -540 l-22 -73 -54 0 c-125 0
-233 -105 -233 -227 0 -38 27 -118 46 -134 8 -6 14 -18 14 -25 0 -8 -44 -58
-98 -112 -141 -141 -306 -247 -498 -320 l-52 -19 -23 49 c-28 60 -103 132
-167 160 -71 32 -182 36 -253 9 -96 -36 -184 -130 -210 -224 l-9 -35 -88 23
c-119 31 -182 55 -282 105 -68 34 -151 83 -179 107 -3 2 11 20 31 41 140 146
156 379 38 554 -48 72 -139 142 -219 170 -91 31 -221 31 -306 0 -32 -12 -63
-22 -66 -22 -4 0 -13 25 -20 55 -7 30 -14 53 -16 51 -3 -3 1 -30 8 -61 l13
-57 -35 -26 c-99 -78 -160 -178 -181 -300 -40 -234 128 -468 369 -513 107 -20
240 7 328 66 20 14 40 25 46 25 5 0 34 -16 64 -35 109 -70 258 -135 370 -164
22 -5 59 -14 81 -20 l42 -11 4 -68 c7 -127 77 -228 195 -284 51 -24 74 -29
135 -29 104 0 174 28 243 96 71 71 98 141 97 250 l-1 81 67 23 c173 62 350
177 493 322 l96 98 49 -24 c90 -45 186 -30 264 41 45 41 63 87 63 164 0 89
-38 146 -138 205 -16 10 -16 15 4 80 90 288 77 631 -32 911 -24 59 -24 60 -5
96 37 72 -14 158 -94 158 -27 0 -37 6 -52 31 -33 56 -154 194 -223 253 -37 33
-108 86 -157 118 l-90 59 3 52 c3 66 -21 190 -51 264 -112 276 -408 450 -704
412z"/>
</g>
</svg>
