<?xml version="1.0" standalone="no"?>
<!DOCTYPE svg PUBLIC "-//W3C//DTD SVG 20010904//EN"
 "http://www.w3.org/TR/2001/REC-SVG-20010904/DTD/svg10.dtd">
<svg version="1.0" xmlns="http://www.w3.org/2000/svg"
 width="343.000000pt" height="309.000000pt" viewBox="0 0 343.000000 309.000000"
 preserveAspectRatio="xMidYMid meet">
<metadata>
Created by potrace 1.15, written by Peter Selinger 2001-2017
</metadata>
<g transform="translate(0.000000,309.000000) scale(0.100000,-0.100000)"
fill="#000000" stroke="none">
<path d="M1565 2968 c-113 -12 -258 -50 -367 -95 l-93 -38 -225 -5 c-207 -5
-229 -7 -276 -28 -60 -27 -113 -79 -146 -142 -22 -42 -23 -59 -28 -275 l-5
-230 -32 -75 c-76 -179 -107 -340 -107 -550 0 -210 31 -371 107 -550 l32 -75
5 -230 c5 -216 6 -233 28 -275 33 -63 86 -115 146 -142 47 -21 69 -23 276 -28
l225 -5 93 -38 c333 -137 731 -137 1064 0 l93 38 220 5 c248 6 282 14 358 88
77 74 81 90 87 342 l6 225 36 85 c80 188 112 350 111 565 0 211 -35 381 -118
575 l-35 82 0 199 c0 233 -10 276 -82 346 -86 82 -104 87 -358 93 -215 5 -228
6 -285 31 -224 98 -481 136 -730 107z m304 -184 l31 -7 -2 -241 -3 -241 -35 5
c-51 7 -219 6 -262 -2 l-38 -7 0 244 0 244 28 4 c45 7 247 7 281 1z m-420
-276 l0 -253 -77 -38 c-134 -65 -256 -186 -332 -328 l-41 -79 -250 0 -249 0 6
28 c77 326 333 649 640 810 68 34 270 111 297 112 4 0 7 -114 6 -252z m701
210 c353 -123 644 -414 767 -768 17 -47 33 -97 37 -112 l6 -28 -253 0 -253 0
-12 34 c-17 46 -86 152 -135 206 -61 67 -143 130 -225 173 l-72 38 0 250 0
249 28 -6 c15 -4 65 -20 112 -36z m-1260 -5 c0 -5 -17 -19 -37 -33 -57 -38
-189 -166 -246 -240 -28 -36 -55 -69 -60 -75 -5 -6 -7 39 -5 111 3 109 5 124
28 157 14 22 46 48 74 62 43 22 64 25 148 25 54 0 98 -3 98 -7z m1937 -25 c64
-42 83 -93 83 -217 l0 -103 -41 54 c-60 77 -154 172 -229 231 -36 28 -69 55
-75 60 -6 5 35 8 106 5 106 -3 119 -5 156 -30z m-969 -503 c159 -32 316 -132
407 -259 91 -128 129 -245 129 -396 0 -115 -14 -179 -64 -285 -108 -233 -336
-378 -595 -379 -124 -1 -184 13 -305 72 -78 38 -109 60 -172 123 -261 264
-261 676 2 939 161 161 380 228 598 185z m-898 -530 c-6 -52 -6 -198 0 -250
l5 -40 -241 -3 -241 -2 -7 31 c-3 17 -6 80 -6 139 0 59 3 122 6 139 l7 31 241
-2 241 -3 -5 -40z m2024 8 c8 -49 8 -217 0 -266 l-7 -37 -241 2 -241 3 5 40
c7 59 6 193 -2 248 l-8 47 244 0 243 0 7 -37z m-1944 -492 c76 -142 198 -263
332 -328 l77 -38 0 -253 1 -252 -27 6 c-57 14 -200 67 -258 96 -164 83 -341
234 -454 387 -85 116 -174 304 -205 434 l-6 27 249 0 250 0 41 -79z m1916 62
c-3 -10 -15 -49 -27 -88 -11 -38 -25 -74 -30 -79 -5 -6 -28 -1 -58 14 -27 12
-57 20 -66 16 -30 -11 -11 -41 43 -65 28 -14 52 -29 52 -34 0 -12 -60 -117
-67 -117 -3 0 -40 25 -83 55 -84 59 -92 62 -109 42 -15 -19 -1 -34 84 -92 39
-27 72 -50 74 -52 6 -4 -16 -42 -44 -77 l-23 -29 -52 41 c-85 68 -115 28 -33
-45 l48 -43 -48 -46 -48 -46 -68 73 c-49 53 -72 71 -84 66 -30 -11 -18 -39 43
-103 33 -34 60 -66 60 -71 0 -10 -91 -73 -105 -73 -6 0 -27 30 -48 66 -27 45
-44 64 -55 62 -29 -6 -25 -38 13 -99 20 -32 33 -64 30 -69 -8 -13 -106 -63
-111 -57 -3 3 -18 38 -33 78 -21 56 -33 74 -47 74 -28 0 -28 -33 0 -108 23
-62 24 -68 8 -76 -15 -8 -148 -51 -158 -51 -2 0 -4 114 -3 253 l0 252 77 38
c136 66 263 193 329 329 l38 77 253 0 c237 1 253 0 248 -16z m-1231 -478 c44
0 100 2 125 5 l45 5 3 -234 c1 -153 -1 -238 -8 -245 -13 -13 -201 -21 -275
-11 l-55 6 0 245 0 244 43 -7 c23 -5 78 -8 122 -8z m-1110 -143 c61 -76 173
-185 237 -231 21 -14 38 -29 38 -33 0 -12 -170 -9 -213 3 -47 13 -106 63 -123
106 -15 35 -20 254 -6 238 4 -6 34 -43 67 -83z m2268 -180 c-41 -67 -86 -86
-210 -90 -57 -3 -103 0 -103 4 1 5 28 29 61 54 66 49 209 194 249 253 l25 37
3 -107 c3 -102 1 -109 -25 -151z"/>
</g>
</svg>
