<?xml version="1.0" standalone="no"?>
<!DOCTYPE svg PUBLIC "-//W3C//DTD SVG 20010904//EN"
 "http://www.w3.org/TR/2001/REC-SVG-20010904/DTD/svg10.dtd">
<svg version="1.0" xmlns="http://www.w3.org/2000/svg"
 width="321.000000pt" height="317.000000pt" viewBox="0 0 321.000000 317.000000"
 preserveAspectRatio="xMidYMid meet">
<metadata>
Created by potrace 1.15, written by Peter Selinger 2001-2017
</metadata>
<g transform="translate(0.000000,317.000000) scale(0.100000,-0.100000)"
fill="#000000" stroke="none">
<path d="M1623 2988 c-15 -19 -163 -276 -163 -282 0 -3 16 -6 35 -6 l35 0 0
-210 0 -210 95 0 95 0 0 98 c0 53 3 148 7 210 l6 112 35 0 c27 0 33 3 28 16
-5 12 -152 270 -161 282 -1 1 -7 -3 -12 -10z"/>
<path d="M684 2573 c3 -10 22 -84 42 -166 l38 -147 28 27 28 27 149 -155 149
-154 68 67 67 67 -90 98 c-50 54 -116 123 -147 153 l-56 54 26 27 c14 15 22
29 17 32 -9 6 -304 87 -316 87 -5 0 -6 -8 -3 -17z"/>
<path d="M2445 2545 c-66 -18 -140 -38 -164 -45 l-43 -11 26 -28 26 -27 -149
-148 -150 -149 61 -69 c34 -37 65 -68 69 -68 4 0 76 66 159 146 l151 147 24
-23 c14 -13 27 -22 29 -19 6 6 88 320 84 324 -2 1 -57 -12 -123 -30z"/>
<path d="M1496 2134 c-378 -91 -515 -574 -241 -849 108 -108 246 -162 390
-152 144 10 247 59 344 162 190 204 187 505 -8 701 -129 130 -307 181 -485
138z m241 -264 c34 -17 73 -46 87 -65 80 -104 72 -250 -17 -343 -99 -104 -267
-108 -367 -11 -57 56 -80 109 -80 190 0 198 198 318 377 229z"/>
<path d="M2660 1796 l0 -36 -210 0 -210 0 0 -100 0 -100 214 0 215 0 3 -35 3
-34 133 78 c73 43 137 82 143 88 6 6 -38 36 -132 89 -78 43 -146 81 -151 82
-4 2 -8 -12 -8 -32z"/>
<path d="M435 1731 c-72 -43 -129 -82 -128 -87 1 -5 59 -46 130 -90 l128 -81
5 36 5 36 198 3 197 2 0 95 0 95 -195 0 -195 0 0 35 c0 19 -4 35 -8 35 -4 0
-66 -35 -137 -79z"/>
<path d="M2070 1175 l-63 -64 137 -142 138 -141 -28 -29 c-15 -16 -25 -29 -21
-29 3 0 73 -18 154 -40 81 -22 151 -40 154 -40 5 0 -28 176 -57 299 l-5 24
-27 -26 -28 -27 -139 140 c-77 77 -142 140 -145 140 -3 0 -34 -29 -70 -65z"/>
<path d="M958 1093 l-137 -137 -26 24 c-14 13 -27 22 -28 19 -8 -8 -78 -302
-74 -306 4 -3 107 19 296 63 l24 5 -26 27 -27 28 140 139 140 140 -67 67 c-37
38 -70 68 -73 68 -3 0 -67 -62 -142 -137z"/>
<path d="M1527 883 c-4 -75 -7 -165 -7 -200 l0 -63 -35 0 c-19 0 -35 -2 -35
-4 0 -2 37 -66 81 -141 l81 -138 89 137 c49 75 89 139 89 141 0 3 -16 5 -35 5
l-35 0 0 200 0 200 -93 0 -94 0 -6 -137z"/>
</g>
</svg>
