<?xml version="1.0" encoding="UTF-8" standalone="no"?>
<svg
   xmlns:dc="http://purl.org/dc/elements/1.1/"
   xmlns:cc="http://creativecommons.org/ns#"
   xmlns:rdf="http://www.w3.org/1999/02/22-rdf-syntax-ns#"
   xmlns:svg="http://www.w3.org/2000/svg"
   xmlns="http://www.w3.org/2000/svg"
   xmlns:sodipodi="http://sodipodi.sourceforge.net/DTD/sodipodi-0.dtd"
   xmlns:inkscape="http://www.inkscape.org/namespaces/inkscape"
   version="1.1"
   x="0px"
   y="0px"
   viewBox="0 0 96 120"
   style="enable-background:new 0 0 96 96;"
   xml:space="preserve"
   id="svg20"
   sodipodi:docname="accountability.svg"
   inkscape:version="0.92.3 (2405546, 2018-03-11)"><metadata
     id="metadata26"><rdf:RDF><cc:Work
         rdf:about=""><dc:format>image/svg+xml</dc:format><dc:type
           rdf:resource="http://purl.org/dc/dcmitype/StillImage" /></cc:Work></rdf:RDF></metadata><defs
     id="defs24" /><sodipodi:namedview
     pagecolor="#ffffff"
     bordercolor="#666666"
     borderopacity="1"
     objecttolerance="10"
     gridtolerance="10"
     guidetolerance="10"
     inkscape:pageopacity="0"
     inkscape:pageshadow="2"
     inkscape:window-width="1920"
     inkscape:window-height="1001"
     id="namedview22"
     showgrid="false"
     inkscape:zoom="1.9666667"
     inkscape:cx="48.000001"
     inkscape:cy="60.000001"
     inkscape:window-x="-9"
     inkscape:window-y="-9"
     inkscape:window-maximized="1"
     inkscape:current-layer="svg20" /><g
     id="g14"
     transform="matrix(1.4067796,0,0,1.4469419,-21.132203,-8.2523977)"><g
       id="g12"><path
         d="m 24.2,87.1 3.8,1.3 c 1.1,0.4 2.3,0.6 3.4,0.6 4.7,0 9,-3 10.5,-7.6 L 48.2,62.2 C 49.8,57.4 47.9,52.1 43.6,49.4 l -3.2,5.1 c 2,1.2 2.8,3.7 2.1,5.9 l -6.3,19.2 c -0.9,2.7 -3.7,4.1 -6.4,3.2 L 26,81.5 C 23.3,80.6 21.9,77.8 22.7,75.1 L 29,55.9 c 0.7,-2.2 2.8,-3.6 5.2,-3.5 l 0.4,-6 C 29.5,46.1 24.9,49.2 23.4,54 l -6.3,19.2 c -1.9,5.7 1.3,12 7.1,13.9 z"
         id="path2"
         inkscape:connector-curvature="0" /><path
         d="M 77.1,10.4 C 72.8,6 65.8,6 61.4,10.3 L 47.2,24.6 c -3.6,3.6 -4.3,9.1 -1.7,13.5 L 50.7,35 c -1.2,-2 -0.9,-4.5 0.8,-6.2 L 65.8,14.5 c 2,-2 5.2,-2 7.2,0 l 2.9,2.9 c 1,1 1.5,2.2 1.5,3.6 0,1.4 -0.5,2.6 -1.5,3.6 L 61.5,39 c -1.6,1.6 -4.2,2 -6.2,0.8 L 52.2,45 c 1.8,1 3.7,1.5 5.6,1.5 2.9,0 5.7,-1.1 7.8,-3.2 L 80,28.9 c 2.1,-2.1 3.2,-4.9 3.2,-7.8 0,-3 -1.2,-5.7 -3.3,-7.8 z"
         id="path4"
         inkscape:connector-curvature="0" /><rect
         x="23.5"
         y="13.8"
         transform="matrix(0.7071,-0.7071,0.7071,0.7071,-8.7611,25.5754)"
         width="6"
         height="19.1"
         id="rect6" /><rect
         x="36.700001"
         y="12.6"
         width="6"
         height="13"
         id="rect8" /><rect
         x="15.7"
         y="32.599998"
         width="13"
         height="6"
         id="rect10" /></g></g></svg>