<?xml version="1.0" encoding="UTF-8" standalone="no"?>
<svg
   xmlns:dc="http://purl.org/dc/elements/1.1/"
   xmlns:cc="http://creativecommons.org/ns#"
   xmlns:rdf="http://www.w3.org/1999/02/22-rdf-syntax-ns#"
   xmlns:svg="http://www.w3.org/2000/svg"
   xmlns="http://www.w3.org/2000/svg"
   xmlns:sodipodi="http://sodipodi.sourceforge.net/DTD/sodipodi-0.dtd"
   xmlns:inkscape="http://www.inkscape.org/namespaces/inkscape"
   viewBox="0 0 32 40.00000125"
   version="1.1"
   x="0px"
   y="0px"
   id="svg10"
   sodipodi:docname="challenges.svg"
   inkscape:version="0.92.3 (2405546, 2018-03-11)">
  <metadata
     id="metadata16">
    <rdf:RDF>
      <cc:Work
         rdf:about="">
        <dc:format>image/svg+xml</dc:format>
        <dc:type
           rdf:resource="http://purl.org/dc/dcmitype/StillImage" />
      </cc:Work>
    </rdf:RDF>
  </metadata>
  <defs
     id="defs14" />
  <sodipodi:namedview
     pagecolor="#ffffff"
     bordercolor="#666666"
     borderopacity="1"
     objecttolerance="10"
     gridtolerance="10"
     guidetolerance="10"
     inkscape:pageopacity="0"
     inkscape:pageshadow="2"
     inkscape:window-width="1920"
     inkscape:window-height="1001"
     id="namedview12"
     showgrid="false"
     inkscape:zoom="5.9"
     inkscape:cx="16"
     inkscape:cy="2.2269582"
     inkscape:window-x="-9"
     inkscape:window-y="-9"
     inkscape:window-maximized="1"
     inkscape:current-layer="svg10" />
  <g
     transform="matrix(1.1330502,0,0,1.3276442,-2.1273542,-1356.0232)"
     id="g4">
    <path
       style="color:#000000;font-style:normal;font-variant:normal;font-weight:normal;font-stretch:normal;font-size:medium;line-height:normal;font-family:sans-serif;text-indent:0;text-align:start;text-decoration:none;text-decoration-line:none;text-decoration-style:solid;text-decoration-color:#000000;letter-spacing:normal;word-spacing:normal;text-transform:none;writing-mode:lr-tb;direction:ltr;baseline-shift:baseline;text-anchor:start;white-space:normal;clip-rule:nonzero;display:inline;overflow:visible;visibility:visible;opacity:1;isolation:auto;mix-blend-mode:normal;color-interpolation:sRGB;color-interpolation-filters:linearRGB;solid-color:#000000;solid-opacity:1;fill:#000000;fill-opacity:1;fill-rule:evenodd;stroke:none;stroke-width:1px;stroke-linecap:round;stroke-linejoin:round;stroke-miterlimit:4;stroke-dasharray:none;stroke-dashoffset:0;stroke-opacity:1;color-rendering:auto;image-rendering:auto;shape-rendering:auto;text-rendering:auto;enable-background:accumulate"
       d="m 2.5058594,1.0019531 a 0.50005,0.50005 0 0 0 -0.5,0.5 v 9.4765629 a 0.50005,0.50005 0 0 0 0.5,0.5 h 4.859375 c 0.7277595,2.113889 1.3478967,4.146795 1.7148437,6.023437 -0.040124,0.04716 -0.088076,0.09333 -0.1269531,0.140625 C 8.0745234,18.711378 7.5019531,19.8324 7.5019531,21 c 0,0.7138 0.4270701,1.339422 1.0371094,1.919922 0.1722212,0.16391 0.3665792,0.325708 0.5722656,0.486328 -0.2704821,0.975239 -0.7009154,1.865096 -1.3789062,2.644531 -1.0938344,1.2576 -2.799118,2.278744 -5.359375,2.964844 a 0.50005,0.50005 0 1 0 0.2578125,0.964844 c 2.6931259,-0.7216 4.5995401,-1.829538 5.8554687,-3.273438 0.7022402,-0.807398 1.1860894,-1.717531 1.5019531,-2.697265 0.3108878,0.20086 0.6189808,0.401161 0.9726568,0.599609 1.965054,1.1025 4.54316,2.169128 7.11914,3.111328 5.151961,1.8844 10.292969,3.261719 10.292969,3.261719 a 0.50005,0.50005 0 1 0 0.259765,-0.964844 c 0,0 -5.110946,-1.371628 -10.208984,-3.236328 -2.549019,-0.9323 -5.093962,-1.990822 -6.972656,-3.044922 -0.441563,-0.247729 -0.837369,-0.494616 -1.195313,-0.738281 0.09122,-0.463425 0.149701,-0.938501 0.177735,-1.425781 0.06853,-1.191229 -0.05047,-2.457914 -0.277344,-3.771485 0.756556,-0.815244 1.725594,-1.643874 2.833984,-2.458984 1.789898,-1.31629 3.864307,-2.55786 5.898438,-3.740235 l 0.351562,4.744141 c -0.384392,0.785468 -0.360833,1.716491 0.09375,2.480469 0.487014,0.8187 1.371246,1.316231 2.320313,1.332031 a 0.50005006,0.50005006 0 0 0 0.01953,0 c 1.002271,-0.022 2.156115,-0.167269 2.832031,-0.167969 0.7677,0.01 1.443013,0.520988 1.646485,1.242188 0.203491,0.7213 -0.10234,1.460372 -0.75586,1.826172 a 0.50005006,0.50005006 0 1 0 0.488282,0.871094 c 1.047036,-0.5861 1.556295,-1.813751 1.230468,-2.96875 -0.325874,-1.1549 -1.392715,-1.959204 -2.599609,-1.970704 a 0.50005006,0.50005006 0 0 0 -0.0059,0 c -0.802236,10e-5 -1.923049,0.144616 -2.839844,0.166016 -0.60848,-0.011 -1.171778,-0.329497 -1.476563,-0.841797 -0.282216,-0.474366 -0.296837,-1.034337 -0.07031,-1.511719 l 9.595703,-4.597656 a 0.50005,0.50005 0 0 0 0.265625,-0.582031 L 27.755859,3.3671875 a 0.50005,0.50005 0 0 0 -0.480468,-0.3691406 0.50005,0.50005 0 0 0 -0.13086,0.017578 l -8.320312,2.2109375 a 0.50005,0.50005 0 0 0 -0.371094,0.5195313 l 0.353516,4.7460943 c -2.171784,1.255194 -4.435789,2.592944 -6.410157,4.044921 -0.916475,0.673956 -1.748062,1.36368 -2.4687496,2.066407 -0.3630232,-1.6426 -0.8899365,-3.360896 -1.4941406,-5.125 h 1.1542968 v 2.037109 a 0.50005,0.50005 0 0 0 0.8535154,0.353516 L 14.863281,9.4453125 A 0.50005,0.50005 0 0 0 14.509766,8.5917969 H 12.482422 V 1.5019531 a 0.50005,0.50005 0 0 0 -0.5,-0.5 z m 1.2011718,1 H 7.7265625 C 6.9489405,2.383959 6.1388362,2.9036208 5.3398438,3.6328125 Z m 7.6308598,0 h 0.144531 V 8.5917969 H 10.298828 L 8.9335938,7.2265625 a 0.50005,0.50005 0 0 0 -0.1503907,-0.1503906 0.50005,0.50005 0 0 0 -0.00195,0 L 6.0449219,4.3398438 C 8.1573289,2.4209754 10.322029,2.0561991 11.337891,2.0019531 Z m -8.3320316,0.7128907 1.6269531,1.625 C 3.904499,5.1388346 3.3872876,5.949181 3.0058594,6.7265625 Z M 26.234375,4.2890625 24.75,6.8417969 C 23.448908,6.1600789 22.2547,5.7887209 21.306641,5.5996094 Z m 0.867187,0.4941406 1.324219,4.9003907 C 27.786549,8.9619428 26.8643,8.11813 25.615234,7.3378906 Z M 5.1035156,5.3085938 6.4003906,8.7695312 a 0.50005,0.50005 0 0 0 0.027344,0.056641 C 6.6330669,9.3860936 6.8161024,9.927505 7.0117188,10.478516 H 3.0058594 V 10.333984 C 3.057822,9.3614204 3.3915753,7.3338422 5.1035156,5.3085938 Z M 6.5136719,6.2207031 7.71875,7.4257812 7.1152344,7.828125 Z M 19.501953,6.3867188 c 0.435316,-0.00757 2.086892,0.042692 4.294922,1.0859374 l -2.552734,1.5996094 a 0.50005006,0.50005006 0 0 0 -0.02344,0.017578 C 20.769827,9.3500319 20.245184,9.6602479 19.765625,9.9355469 Z M 8.4394531,8.1464844 9.5878906,9.2949219 V 10.478516 H 8.078125 C 7.8793484,9.916682 7.684824,9.3585485 7.4765625,8.7890625 Z m 16.6738279,0.054687 c 2.299771,1.4398656 3.291533,3.0004156 3.523438,3.4140626 l -7.638672,3.658204 z m -1.478515,0.5546875 -1.625,2.7929691 V 9.7734375 Z m -13.046875,0.835938 h 2.714843 l -2.714843,2.7167971 z m 10.421875,0.7773441 v 2.898437 l -0.882813,1.517578 -0.279297,-3.742187 c 0.38818,-0.223404 0.788031,-0.458963 1.16211,-0.673828 z M 9.3066406,18.847656 c 0.1236359,0.935553 0.1769896,1.830228 0.1289063,2.666016 -0.015358,0.26695 -0.05926,0.516204 -0.09375,0.771484 -0.032239,-0.02922 -0.082872,-0.06091 -0.1132813,-0.08984 C 8.7174613,21.708912 8.5019531,21.2871 8.5019531,21 c 0,-0.668301 0.2864935,-1.3937 0.8046875,-2.152344 z"
       transform="translate(0,1020.3622)"
       id="path2"
       inkscape:connector-curvature="0" />
  </g>
</svg>
