<?xml version="1.0" encoding="UTF-8" standalone="no"?>
<svg
   xmlns:dc="http://purl.org/dc/elements/1.1/"
   xmlns:cc="http://creativecommons.org/ns#"
   xmlns:rdf="http://www.w3.org/1999/02/22-rdf-syntax-ns#"
   xmlns:svg="http://www.w3.org/2000/svg"
   xmlns="http://www.w3.org/2000/svg"
   xmlns:sodipodi="http://sodipodi.sourceforge.net/DTD/sodipodi-0.dtd"
   xmlns:inkscape="http://www.inkscape.org/namespaces/inkscape"
   data-name="Layer 1"
   viewBox="0 0 100 125"
   x="0px"
   y="0px"
   version="1.1"
   id="svg16"
   sodipodi:docname="collaborators.svg"
   inkscape:version="0.92.3 (2405546, 2018-03-11)">
  <metadata
     id="metadata22">
    <rdf:RDF>
      <cc:Work
         rdf:about="">
        <dc:format>image/svg+xml</dc:format>
        <dc:type
           rdf:resource="http://purl.org/dc/dcmitype/StillImage" />
      </cc:Work>
    </rdf:RDF>
  </metadata>
  <defs
     id="defs20" />
  <sodipodi:namedview
     pagecolor="#ffffff"
     bordercolor="#666666"
     borderopacity="1"
     objecttolerance="10"
     gridtolerance="10"
     guidetolerance="10"
     inkscape:pageopacity="0"
     inkscape:pageshadow="2"
     inkscape:window-width="1920"
     inkscape:window-height="1001"
     id="namedview18"
     showgrid="false"
     inkscape:zoom="1.888"
     inkscape:cx="50"
     inkscape:cy="62.5"
     inkscape:window-x="-9"
     inkscape:window-y="-9"
     inkscape:window-maximized="1"
     inkscape:current-layer="svg16" />
  <title
     id="title2">Artboard 8</title>
  <path
     d="m 44.701992,52.236251 2.242086,2.70352 a 4.327747,5.1942639 0 0 0 6.121416,0 l 6.632402,-7.960366 a 1.126257,1.3517602 0 0 1 1.595532,0 1.1158288,1.3392439 0 0 1 0.30242,1.25163 5.9858478,7.1843554 0 1 0 4.61974,-5.557236 1.1054004,1.3267276 0 0 1 -1.04283,-0.362973 1.126257,1.3517602 0 0 1 0,-1.914994 l 6.726256,-7.985398 a 4.327747,5.1942639 0 0 0 0,-7.347068 l -6.632402,-7.960365 a 1.126257,1.3517602 0 0 1 0,-1.914994 1.1054004,1.3267276 0 0 1 1.04283,-0.362973 5.9858478,7.1843554 0 1 0 -4.61974,-5.5572362 1.1158288,1.3392439 0 0 1 -0.30242,1.2516302 v 0 a 1.126257,1.3517602 0 0 1 -1.59553,0 L 53.065494,2.4589314 a 4.327747,5.1942639 0 0 0 -6.121416,0 l -6.642831,7.9728826 a 1.126257,1.3517602 0 0 1 -1.595531,0 1.1158288,1.3392439 0 0 1 -0.30242,-1.2516303 5.9858478,7.1843554 0 1 0 -4.61974,5.5572363 1.1054004,1.3267276 0 0 1 1.04283,0.362973 1.126257,1.3517602 0 0 1 0,1.914994 l -6.726258,7.997914 a 4.327747,5.1942639 0 0 0 0,7.397133 l 2.231658,2.678488 a 10.59516,12.716559 0 0 1 3.305774,-4.080314 10.34488,12.416168 0 0 1 11.283426,0 10.428306,12.516299 0 0 1 -0.271136,21.277708 z"
     id="path4"
     inkscape:connector-curvature="0"
     style="stroke-width:1.14247012" />
  <path
     d="m 5.6375574,76.367674 a 5.9858478,7.1843554 0 1 0 4.6301686,5.54472 1.1054004,1.3267276 0 0 1 0.30242,-1.251629 1.126257,1.3517602 0 0 1 1.595531,0 l 6.642831,8.073012 a 4.327747,5.1942639 0 0 0 6.163129,0 l 2.231657,-2.678488 a 10.605588,12.729076 0 0 1 -3.399628,-3.967666 10.34488,12.416168 0 0 1 0,-13.542635 10.428306,12.516299 0 0 1 17.728122,0.325423 l 2.2108,-2.753585 a 4.327747,5.1942639 0 0 0 0,-7.347068 L 37.0789,50.809393 a 1.126257,1.3517602 0 0 1 0,-1.914994 1.1158288,1.3392439 0 0 1 1.042831,-0.362973 5.9858478,7.1843554 0 1 0 -4.630167,-5.54472 1.1054004,1.3267276 0 0 1 -0.302422,1.25163 1.126257,1.3517602 0 0 1 -1.59553,0 l -6.621975,-8.073013 a 4.327747,5.1942639 0 0 0 -6.121415,0 l -6.632404,7.960366 a 1.126257,1.3517602 0 0 1 -1.59553,0 1.1054004,1.3267276 0 0 1 -0.302422,-1.25163 5.9858478,7.1843554 0 1 0 -4.6301671,5.544721 1.1158288,1.3392439 0 0 1 1.0428306,0.362972 v 0 a 1.126257,1.3517602 0 0 1 0,1.914994 l -6.71582914,8.073012 a 4.327747,5.1942639 0 0 0 0,7.347068 l 6.64283104,7.972882 a 1.126257,1.3517602 0 0 1 0,1.914994 1.1158288,1.3392439 0 0 1 -1.021974,0.362972 z"
     id="path6"
     inkscape:connector-curvature="0"
     style="stroke-width:1.14247012" />
  <path
     d="m 76.247618,42.874059 a 10.34488,12.416168 0 0 1 0,13.542635 10.428306,12.516299 0 0 1 -17.72812,-0.325423 l -2.262942,2.691004 a 4.327747,5.1942639 0 0 0 0,7.347067 l 6.632402,7.960366 a 1.126257,1.3517602 0 0 1 0,1.914994 1.1158288,1.3392439 0 0 1 -1.04283,0.362972 5.9858478,7.1843554 0 1 0 4.630168,5.54472 1.1054004,1.3267276 0 0 1 0.30242,-1.251629 1.126257,1.3517602 0 0 1 1.595532,0 l 6.653258,8.073012 a 4.327747,5.1942639 0 0 0 6.121416,0 l 6.632402,-7.960366 a 1.126257,1.3517602 0 0 1 1.595532,0 1.1054004,1.3267276 0 0 1 0.30242,1.25163 5.9858478,7.1843554 0 1 0 4.630168,-5.54472 1.1158288,1.3392439 0 0 1 -1.04283,-0.362973 v 0 a 1.126257,1.3517602 0 0 1 0,-1.914993 l 6.632402,-7.960366 a 4.327747,5.1942639 0 0 0 0,-7.347068 l -6.559404,-8.085528 a 1.126257,1.3517602 0 0 1 0,-1.914994 1.1158288,1.3392439 0 0 1 1.04283,-0.362973 5.9858478,7.1843554 0 1 0 -4.630168,-5.54472 1.1054004,1.3267276 0 0 1 -0.30242,1.25163 1.126257,1.3517602 0 0 1 -1.595531,0 l -6.663687,-8.073013 a 4.327747,5.1942639 0 0 0 -6.16313,0 l -2.189944,2.74107 a 10.605588,12.729076 0 0 1 3.410056,3.967666 z"
     id="path8"
     inkscape:connector-curvature="0"
     style="stroke-width:1.14247012" />
  <path
     d="m 33.783556,110.13665 a 5.9858478,7.1843554 0 1 0 4.61974,5.55723 1.1158288,1.3392439 0 0 1 0.30242,-1.25163 v 0 a 1.126257,1.3517602 0 0 1 1.595531,0 l 6.632403,7.96037 a 4.327747,5.1942639 0 0 0 6.121416,0 l 6.632402,-7.96037 a 1.126257,1.3517602 0 0 1 1.59553,0 1.1158288,1.3392439 0 0 1 0.302422,1.25163 5.9858478,7.1843554 0 1 0 4.61974,-5.55723 1.1054004,1.3267276 0 0 1 -1.042832,-0.36298 1.126257,1.3517602 0 0 1 0,-1.91499 l 6.736686,-7.972881 a 4.327747,5.1942639 0 0 0 0,-7.397132 l -2.283798,-2.628423 a 10.605588,12.729076 0 0 1 -3.305774,4.09283 10.34488,12.416168 0 0 1 -11.283426,0 10.428306,12.516299 0 0 1 0.271136,-21.277708 l -2.242086,-2.716037 a 4.327747,5.1942639 0 0 0 -6.121416,0 l -6.632403,7.997915 a 1.126257,1.3517602 0 0 1 -1.595531,0 1.1158288,1.3392439 0 0 1 -0.30242,-1.25163 5.9858478,7.1843554 0 1 0 -4.61974,5.557237 1.1054004,1.3267276 0 0 1 1.04283,0.362972 1.126257,1.3517602 0 0 1 0,1.914994 l -6.726258,7.94785 a 4.327747,5.1942639 0 0 0 0,7.347067 l 6.632404,7.960366 a 1.126257,1.3517602 0 0 1 0,1.91499 1.1054004,1.3267276 0 0 1 -0.948976,0.42556 z"
     id="path10"
     inkscape:connector-curvature="0"
     style="stroke-width:1.14247012" />
</svg>
