<?xml version="1.0" encoding="UTF-8" standalone="no"?>
<svg
   xmlns:dc="http://purl.org/dc/elements/1.1/"
   xmlns:cc="http://creativecommons.org/ns#"
   xmlns:rdf="http://www.w3.org/1999/02/22-rdf-syntax-ns#"
   xmlns:svg="http://www.w3.org/2000/svg"
   xmlns="http://www.w3.org/2000/svg"
   xmlns:sodipodi="http://sodipodi.sourceforge.net/DTD/sodipodi-0.dtd"
   xmlns:inkscape="http://www.inkscape.org/namespaces/inkscape"
   version="1.1"
   x="0px"
   y="0px"
   viewBox="0 0 100 125"
   enable-background="new 0 0 100 100"
   xml:space="preserve"
   id="svg8"
   sodipodi:docname="community.svg"
   inkscape:version="0.92.3 (2405546, 2018-03-11)"><metadata
     id="metadata14"><rdf:RDF><cc:Work
         rdf:about=""><dc:format>image/svg+xml</dc:format><dc:type
           rdf:resource="http://purl.org/dc/dcmitype/StillImage" /></cc:Work></rdf:RDF></metadata><defs
     id="defs12" /><sodipodi:namedview
     pagecolor="#ffffff"
     bordercolor="#666666"
     borderopacity="1"
     objecttolerance="10"
     gridtolerance="10"
     guidetolerance="10"
     inkscape:pageopacity="0"
     inkscape:pageshadow="2"
     inkscape:window-width="1920"
     inkscape:window-height="1001"
     id="namedview10"
     showgrid="false"
     inkscape:zoom="1.888"
     inkscape:cx="50"
     inkscape:cy="62.5"
     inkscape:window-x="-9"
     inkscape:window-y="-9"
     inkscape:window-maximized="1"
     inkscape:current-layer="svg8" /><path
     d="m 87.758005,52.870899 c -5.262578,0 -9.741367,4.753203 -10.861065,11.234845 H 60.10148 c -0.335909,-3.024766 -1.343638,-5.905495 -2.687274,-8.354116 l 1.903485,-2.44862 c 1.119698,0.720182 2.463335,1.296329 3.806971,1.296329 4.59076,0 8.285761,-4.753205 8.285761,-10.6587 0,-5.905496 -3.695001,-10.6587 -8.285761,-10.6587 -4.590759,0 -8.28576,4.753204 -8.28576,10.6587 0,1.728437 0.335909,3.456876 1.007727,4.89724 l -1.903485,2.44862 C 52.039658,49.55806 49.800264,48.261732 47.448898,47.829622 V 22.911311 c 3.583033,-1.440365 6.270306,-5.617423 6.270306,-10.802737 0,-6.1935683 -3.91894,-11.23484519 -8.73364,-11.23484519 -4.814698,0 -8.733639,5.04127689 -8.733639,11.23484519 0,5.041278 2.687273,9.362372 6.270306,10.802737 v 24.918311 c -2.351365,0.43211 -4.59076,1.728438 -6.494246,3.456875 L 26.622527,39.187434 C 28.302073,36.162667 29.3098,32.417718 29.3098,28.24066 c 0,-10.370626 -6.606214,-18.8687787 -14.668035,-18.8687787 -8.0618211,0 -14.66803619,8.4981527 -14.66803619,18.8687787 0,10.370627 6.60621509,18.868779 14.66803619,18.868779 3.135153,0 6.046366,-1.296328 8.5097,-3.456875 l 9.405459,12.099064 c -1.343637,2.448621 -2.351366,5.32935 -2.687275,8.354116 h -6.606214 c -1.119697,-4.753203 -4.47879,-8.354116 -8.62167,-8.354116 -4.9266691,0 -8.9575789,5.185314 -8.9575789,11.522919 0,6.337606 4.0309098,11.522918 8.9575789,11.522918 4.03091,0 7.501973,-3.600912 8.62167,-8.354116 h 6.606214 c 0.335909,3.024767 1.343638,5.905496 2.687275,8.354116 L 17.664948,97.954317 c -0.895759,-0.576145 -1.903486,-0.864219 -3.023183,-0.864219 -3.918941,0 -7.1660632,4.177062 -7.1660632,9.218332 0,5.04128 3.2471222,9.21834 7.1660632,9.21834 3.918941,0 7.166064,-4.17706 7.166064,-9.21834 0,-1.44036 -0.22394,-2.73669 -0.67182,-3.88898 L 36.027985,83.262596 c 1.903486,1.728439 4.142881,3.024767 6.494246,3.456876 v 9.79448 c -5.150609,1.440365 -8.95758,7.345858 -8.95758,14.403648 0,8.06604 5.150608,14.69172 11.420913,14.69172 6.270306,0 11.420914,-6.62568 11.420914,-14.69172 0,-7.05779 -3.806971,-12.963283 -8.95758,-14.403648 v -9.79448 c 2.351366,-0.432109 4.59076,-1.728437 6.494246,-3.456876 l 8.061821,10.370627 c -0.895758,2.01651 -1.455607,4.321094 -1.455607,6.769717 0,7.34586 4.59076,13.25135 10.301217,13.25135 5.710456,0 10.301216,-5.90549 10.301216,-13.25135 0,-7.345863 -4.59076,-13.251358 -10.301216,-13.251358 -1.903486,0 -3.806971,0.720181 -5.262578,1.872474 L 57.526175,78.65343 c 1.343638,-2.448621 2.351365,-5.329351 2.687274,-8.354118 h 16.795462 c 1.119696,6.337606 5.598487,11.234846 10.861064,11.234846 6.158336,0 11.196974,-6.481641 11.196974,-14.403647 0,-7.922007 -5.150607,-14.259612 -11.308944,-14.259612 z"
     id="path2"
     inkscape:connector-curvature="0"
     style="stroke-width:1.26994991" /></svg>