<?xml version="1.0" encoding="UTF-8" standalone="no"?>
<svg
   xmlns:dc="http://purl.org/dc/elements/1.1/"
   xmlns:cc="http://creativecommons.org/ns#"
   xmlns:rdf="http://www.w3.org/1999/02/22-rdf-syntax-ns#"
   xmlns:svg="http://www.w3.org/2000/svg"
   xmlns="http://www.w3.org/2000/svg"
   xmlns:sodipodi="http://sodipodi.sourceforge.net/DTD/sodipodi-0.dtd"
   xmlns:inkscape="http://www.inkscape.org/namespaces/inkscape"
   version="1.1"
   x="0px"
   y="0px"
   viewBox="0 0 95 118.75"
   enable-background="new 0 0 95 95"
   xml:space="preserve"
   id="svg18"
   sodipodi:docname="communitychallenges.svg"
   inkscape:version="0.92.3 (2405546, 2018-03-11)"><metadata
     id="metadata24"><rdf:RDF><cc:Work
         rdf:about=""><dc:format>image/svg+xml</dc:format><dc:type
           rdf:resource="http://purl.org/dc/dcmitype/StillImage" /></cc:Work></rdf:RDF></metadata><defs
     id="defs22" /><sodipodi:namedview
     pagecolor="#ffffff"
     bordercolor="#666666"
     borderopacity="1"
     objecttolerance="10"
     gridtolerance="10"
     guidetolerance="10"
     inkscape:pageopacity="0"
     inkscape:pageshadow="2"
     inkscape:window-width="1920"
     inkscape:window-height="1001"
     id="namedview20"
     showgrid="false"
     inkscape:zoom="1.9873684"
     inkscape:cx="47.499999"
     inkscape:cy="59.374999"
     inkscape:window-x="-9"
     inkscape:window-y="-9"
     inkscape:window-maximized="1"
     inkscape:current-layer="svg18" /><g
     id="g6"
     transform="matrix(1.1731578,0,0,2.0204519,-7.7219099,-36.394688)"><path
       d="m 49.304,26.139 c -6.371,0 -12.637,0 -19.004,0 0,0.312 0,0.625 0,0.938 0,4.377 -0.02,8.755 0.016,13.132 0.004,0.778 -0.229,1.046 -1.004,0.997 -0.938,-0.06 -1.879,-0.031 -2.818,-0.011 -0.516,0.011 -0.699,-0.188 -0.697,-0.712 0.007,-2.828 -0.001,-5.656 -0.001,-8.484 h -3.401 c 0,3.848 0,7.696 0,11.543 0,0.318 0,0.636 0,1.006 3.82,0 7.516,0 11.312,0 0,-0.359 0,-0.675 0,-0.988 0,-4.379 0.014,-8.758 -0.016,-13.137 -0.006,-0.705 0.191,-0.916 0.904,-0.909 3.439,0.035 6.877,0.015 10.316,0.018 0.283,0.001 0.564,0.038 0.945,0.064 0,10.462 0,20.839 0,31.219 1.176,0 2.242,0 3.428,0 0,-2.616 0,-5.204 0,-7.885 1.362,0 2.705,0 4.056,0 v -3.667 c -1.34,0 -2.676,0 -4.036,0 0,-7.688 0,-15.377 0,-23.124 z"
       id="path2"
       inkscape:connector-curvature="0" /><path
       d="m 83.815,33.996 c -4.539,-0.03 -9.08,-0.016 -13.619,-0.016 -0.309,0 -0.619,0 -0.943,0 0,1.197 0,2.264 0,3.391 6.303,0 12.574,0 18.863,0 0,-6.359 0,-12.678 0,-18.964 -27.131,0 -54.189,0 -81.232,0 0,6.923 0,13.763 0,20.719 2.361,0 4.678,0 7.072,0 0,6.979 0,13.842 0,20.709 1.121,0 2.158,0 3.221,0 0,-11.411 0,-20.781 0,-32.166 -1.096,0 -2.131,0 -3.289,0 0,3.373 0,4.708 0,8.098 -1.057,0 -1.996,-0.035 -2.93,0.013 -0.639,0.033 -0.824,-0.177 -0.82,-0.816 0.027,-4.083 0.029,-8.166 0,-12.25 -0.004,-0.672 0.199,-0.869 0.865,-0.864 3.41,0.029 6.822,0.013 10.234,0.014 1.152,0 1.156,10e-4 1.156,1.129 0,1.337 0,2.673 0,4.01 h 3.4 c -0.002,-1.468 0.004,-2.936 0,-4.404 0,-0.561 0.186,-0.744 0.744,-0.743 8.701,0.014 17.402,0.009 26.104,0.014 0.18,0 0.359,0.047 0.625,0.084 0,7.587 0,15.145 0,22.747 1.178,0 2.268,0 3.453,0 0,-5.022 0,-10.026 0,-15.101 1.5,0 2.906,0 4.385,0 0,6.524 0,13.061 0,19.665 -1.14,0 -2.287,0 -3.432,0 v 3.667 c 2.326,0 4.65,0 6.992,0 0,-2.66 0,-5.227 0,-7.884 0.828,0 1.572,0 2.318,0 2.955,10e-4 5.91,-0.009 8.865,0.017 0.248,0.002 0.707,0.225 0.711,0.359 0.055,1.328 0.033,2.661 0.033,4.067 -2.566,0 -1.998,0 -4.447,0 0,1.24 0,2.4 0,3.555 3.633,0 4.197,0 7.811,0 0,-3.842 0,-7.634 0,-11.515 -5.125,0 -10.186,0 -15.27,0 0,-4.022 0,-7.958 0,-12.004 5.164,0 7.277,0 12.398,0 0,-1.197 0,-2.283 0,-3.444 -0.482,0 -0.906,0 -1.332,0 -7.039,0 -11.076,-0.005 -18.115,0.009 -0.592,0.001 -0.975,-0.047 -0.916,-0.805 0.064,-0.828 0.064,-1.669 0,-2.497 -0.061,-0.761 0.223,-0.942 0.951,-0.94 8.73,0.022 17.459,0.022 26.191,0 0.699,-0.002 0.932,0.188 0.926,0.902 -0.029,3.438 -0.033,6.876 0.002,10.314 0.01,0.758 -0.256,0.934 -0.975,0.93 z"
       id="path4"
       inkscape:connector-curvature="0" /></g><path
     d="m 22.728573,71.626757 c -0.0024,-1.406235 0.309715,-1.691118 1.055843,-1.685057 5.389487,0.04647 10.778973,0.02829 16.167287,0.02829 0.368372,0 0.737916,0 1.141483,0 0,-12.856137 0,-19.460994 0,-32.123166 -1.360863,0 -2.663069,0 -4.046221,0 0,10.425531 0,14.660399 0,25.182913 -6.081651,0 -12.07766,0 -18.149925,0 0,0.935469 0,1.638587 0,2.335643 0,6.378566 0,12.755113 0,19.135701 h 3.837399 c -0.0012,-4.293461 0.0035,-8.582881 -0.0059,-12.874321 z"
     id="path8"
     inkscape:connector-curvature="0"
     style="stroke-width:1.5395807" /><path
     d="m 55.501909,79.209514 c 0,7.877741 0,15.504948 0,23.164486 4.124823,0 5.849365,0 9.914357,0 0,-2.33363 0,-4.535918 0,-6.924093 -2.810886,0 -3.219145,0 -6.079303,0 0,-2.717509 0.04106,-5.261257 -0.01643,-7.792884 -0.02698,-1.343601 0.213515,-1.763853 1.005396,-1.753752 1.733928,0.02829 3.466682,-0.006 5.201782,0 v -6.691736 c -3.341154,-0.002 -6.684654,-0.002 -10.025807,-0.002 z"
     id="path10"
     inkscape:connector-curvature="0"
     style="stroke-width:1.5395807" /><path
     d="m 91.702039,48.330946 c 0,21.069274 0,42.037524 0,63.044164 -4.809947,0 -9.495539,0 -14.185823,0 -0.0481,-0.28488 -0.110277,-0.49097 -0.110277,-0.69908 -0.0093,-7.87168 -0.01174,-15.739318 -0.02347,-23.610999 0,-0.965775 0.297981,-1.157719 0.781323,-1.143576 1.230642,0.03232 2.461285,0.07678 3.689581,-0.01616 0.751994,-0.05656 0.985453,0.393988 0.971375,1.674953 -0.03637,4.012619 -0.01407,3.992414 -0.0093,8.007052 0,0.62634 0.03402,1.25066 0.05045,1.83053 1.370249,0 2.614969,0 3.853824,0 0,-7.538307 0,-10.896298 0,-18.210335 -5.125527,0 -10.231109,0 -15.32848,0 v 6.691738 c 0.344909,-0.004 0.69099,0.006 1.035898,0 0.855233,-0.01616 1.143829,0.377824 1.136791,1.901245 -0.04341,7.273627 -0.04341,14.545232 0,21.818862 0.0093,1.55171 -0.300329,1.87498 -1.139136,1.87094 -7.027216,-0.0525 -14.054431,-0.0323 -21.085165,-0.0364 -0.334351,0 -0.6687,-0.0465 -1.110981,-0.0808 0,-5.53604 0,-10.9266 0,-16.478803 -6.15204,0 -12.190282,0 -18.344669,0 0,-2.650832 0.03637,-5.131948 -0.01643,-7.611042 -0.02464,-1.280967 0.211168,-1.69516 0.957296,-1.672934 2.423744,0.06668 2.507038,0.02829 4.933128,0.02021 0.332004,-0.004 0.664008,-0.06466 1.005397,-0.103048 0,-2.226538 0,-4.269215 0,-6.443222 -4.433364,0 -6.481697,0 -10.883385,0 0,7.619125 0,15.137227 0,22.875559 6.055841,0 12.054197,0 18.073669,0 0,3.2408 0,6.25936 0,9.42136 -7.767477,0 -15.416467,0 -23.128806,0 -0.02933,-0.53945 -0.07743,-1.01224 -0.07743,-1.48906 -0.0024,-5.0976 -0.0082,-10.197224 -0.0082,-15.294823 h -3.842091 c 0,4.420748 0,8.843523 0,13.264263 0,3.59641 0,3.59641 -2.080009,3.59641 -1.308071,0 -2.616142,0 -4.0122,0 0,-5.7987 0,-11.31453 0,-16.882899 -1.329187,0 -2.566869,0 -3.9230396,0 0,5.675449 0,11.227649 0,16.806119 -1.5919745,0 -3.0654613,0 -4.6691678,0 0,-19.206415 0,-38.332015 0,-57.477818 -1.4019233,0 -2.6736264,0 -3.93594416,0 0,21.570346 0,43.023506 0,64.452418 31.86765856,0 63.65319456,0 95.45398256,0 0,-23.410976 0,-46.71891 0,-70.026845 -1.350304,0.002 -2.6267,0.002 -4.028623,0.002 z"
     id="path12"
     inkscape:connector-curvature="0"
     style="stroke-width:1.5395807" /></svg>