<?xml version="1.0" encoding="UTF-8" standalone="no"?>
<svg
   xmlns:dc="http://purl.org/dc/elements/1.1/"
   xmlns:cc="http://creativecommons.org/ns#"
   xmlns:rdf="http://www.w3.org/1999/02/22-rdf-syntax-ns#"
   xmlns:svg="http://www.w3.org/2000/svg"
   xmlns="http://www.w3.org/2000/svg"
   xmlns:sodipodi="http://sodipodi.sourceforge.net/DTD/sodipodi-0.dtd"
   xmlns:inkscape="http://www.inkscape.org/namespaces/inkscape"
   version="1.1"
   x="0px"
   y="0px"
   viewBox="0 0 200 250"
   style="enable-background:new 0 0 200 200;"
   xml:space="preserve"
   id="svg20"
   sodipodi:docname="communitydefinitions.svg"
   inkscape:version="0.92.3 (2405546, 2018-03-11)"><metadata
     id="metadata26"><rdf:RDF><cc:Work
         rdf:about=""><dc:format>image/svg+xml</dc:format><dc:type
           rdf:resource="http://purl.org/dc/dcmitype/StillImage" /></cc:Work></rdf:RDF></metadata><defs
     id="defs24" /><sodipodi:namedview
     pagecolor="#ffffff"
     bordercolor="#666666"
     borderopacity="1"
     objecttolerance="10"
     gridtolerance="10"
     guidetolerance="10"
     inkscape:pageopacity="0"
     inkscape:pageshadow="2"
     inkscape:window-width="1920"
     inkscape:window-height="1001"
     id="namedview22"
     showgrid="false"
     inkscape:zoom="0.944"
     inkscape:cx="100"
     inkscape:cy="125"
     inkscape:window-x="-9"
     inkscape:window-y="-9"
     inkscape:window-maximized="1"
     inkscape:current-layer="svg20" /><style
     type="text/css"
     id="style2">
	.st0{fill:#FFFFFF;stroke:#000000;stroke-width:4;stroke-linecap:round;stroke-miterlimit:10;}
</style><path
     class="st0"
     d="M1059,201.7"
     id="path4" /><g
     id="g14"
     transform="matrix(1.7105209,0,0,1.6497175,-71.581749,-37.429378)"><path
       d="m 63.3,75 v 14.7 c 0,1.4 0.9,2.5 2.2,2.9 1.3,0.4 2.7,-0.2 3.4,-1.4 l 9.4,-15.8 h 13.8 l 5.1,15.3 c 0.4,1.2 1.6,2 2.8,2 1.2,0 2.4,-0.8 2.8,-2 l 5.1,-15.3 h 13.8 l 9.4,15.8 c 0.5,0.9 1.5,1.5 2.6,1.5 0.3,0 0.5,0 0.8,-0.1 1.3,-0.4 2.2,-1.5 2.2,-2.9 V 75 c 5,-0.9 9.7,-3.3 13.3,-7 4.8,-4.8 7.4,-11.1 7.4,-17.8 C 157.4,36.3 146.1,25 132.2,25 H 67.8 c -6.7,0 -13.1,2.6 -17.8,7.4 -4.8,4.8 -7.4,11.1 -7.4,17.8 0,12.3 8.9,22.7 20.7,24.8 z M 54.2,36.6 C 57.8,33 62.6,31 67.8,31 h 64.4 c 10.6,0 19.2,8.6 19.2,19.2 0,5.1 -2,10 -5.6,13.6 -3.3,3.3 -7.7,5.3 -12.3,5.6 -1.6,0.1 -2.8,1.4 -2.8,3 v 6.4 L 126,70.9 c -0.5,-0.9 -1.5,-1.5 -2.6,-1.5 h -17.7 c -1.3,0 -2.4,0.8 -2.8,2 l -2.9,8.8 -2.9,-8.8 c -0.4,-1.2 -1.6,-2 -2.8,-2 H 76.5 c -1.1,0 -2,0.6 -2.6,1.5 l -4.7,7.9 v -6.4 c 0,-1.6 -1.2,-2.9 -2.8,-3 -10,-0.7 -17.9,-9.1 -17.9,-19.2 0.1,-5.1 2.1,-9.9 5.7,-13.6 z"
       id="path6"
       inkscape:connector-curvature="0" /><path
       d="m 110.8,121.3 c 1.3,-2 2,-4.3 2,-6.8 0,-7.1 -5.7,-12.8 -12.8,-12.8 -7.1,0 -12.8,5.7 -12.8,12.8 0,2.5 0.7,4.9 2,6.8 -8.2,0.4 -14.8,7.3 -14.8,15.7 v 24.4 c 0,4.3 3.5,7.8 7.8,7.8 0.6,0 1.2,-0.1 1.8,-0.2 v 3 c 0,1.7 1.3,3 3,3 1.7,0 3,-1.3 3,-3 v -10.6 -21 c 0,-1.7 -1.3,-3 -3,-3 -1.7,0 -3,1.3 -3,3 v 21 c 0,1 -0.8,1.8 -1.8,1.8 -1,0 -1.8,-0.8 -1.8,-1.8 V 137 c 0,-5.4 4.3,-9.7 9.6,-9.7 h 20 c 5.3,0 9.6,4.4 9.6,9.7 v 24.1 c 0,1.2 -0.9,2.1 -2.1,2.1 -1.2,0 -2.1,-1 -2.1,-2.1 v -20.7 c 0,-1.7 -1.3,-3 -3,-3 -1.7,0 -3,1.3 -3,3 v 20.7 10.9 c 0,1.7 1.3,3 3,3 1.7,0 3,-1.3 3,-3 v -3 c 0.7,0.2 1.4,0.3 2.1,0.3 4.5,0 8.1,-3.7 8.1,-8.1 V 137 c 0,-8.4 -6.6,-15.2 -14.8,-15.7 z M 100,107.7 c 3.7,0 6.8,3 6.8,6.8 0,3.7 -3,6.8 -6.8,6.8 -3.8,0 -6.8,-3 -6.8,-6.8 0,-3.7 3.1,-6.8 6.8,-6.8 z"
       id="path8"
       inkscape:connector-curvature="0" /><path
       d="M 58.7,120.8 H 67 c 6.2,0 11.3,-5.1 11.3,-11.3 0,-6.2 -5,-11.3 -11.3,-11.3 -6.2,0 -11.3,5.1 -11.3,11.3 0,1.9 0.5,3.8 1.4,5.4 -6.8,0.8 -12,6.6 -12,13.6 v 20.4 c 0,3.9 3.1,7 7,7 0.3,0 0.7,-0.1 1,-0.1 v 4.4 c 0,1.7 1.3,3 3,3 1.7,0 3,-1.3 3,-3 v -11.4 -17.6 c 0,-1.7 -1.3,-3 -3,-3 -1.7,0 -3,1.3 -3,3 v 17.6 c 0,0.6 -0.5,1 -1,1 -0.5,0 -1,-0.5 -1,-1 v -20.4 c 0,-4.2 3.4,-7.6 7.6,-7.6 z M 67,104.2 c 2.9,0 5.3,2.4 5.3,5.3 0,2.9 -2.4,5.3 -5.3,5.3 -2.9,0 -5.3,-2.4 -5.3,-5.3 0,-2.9 2.4,-5.3 5.3,-5.3 z"
       id="path10"
       inkscape:connector-curvature="0" /><path
       d="m 142.9,114.9 c 0.9,-1.6 1.4,-3.4 1.4,-5.4 0,-6.2 -5.1,-11.3 -11.3,-11.3 -6.2,0 -11.3,5.1 -11.3,11.3 0,6.2 5.1,11.3 11.3,11.3 h 8.4 c 4.2,0 7.6,3.4 7.6,7.7 v 20.4 c 0,0.6 -0.5,1 -1,1 -0.5,0 -1,-0.5 -1,-1 v -17.6 c 0,-1.7 -1.3,-3 -3,-3 -1.7,0 -3,1.3 -3,3 v 17.6 11.4 c 0,1.7 1.3,3 3,3 1.7,0 3,-1.3 3,-3 v -4.4 c 0.3,0 0.7,0.1 1,0.1 3.9,0 7,-3.2 7,-7 v -20.4 c -0.1,-7.2 -5.4,-12.9 -12.1,-13.7 z m -15.2,-5.4 c 0,-2.9 2.4,-5.3 5.3,-5.3 2.9,0 5.3,2.4 5.3,5.3 0,2.9 -2.4,5.3 -5.3,5.3 -2.9,0 -5.3,-2.4 -5.3,-5.3 z"
       id="path12"
       inkscape:connector-curvature="0" /></g></svg>