<?xml version="1.0" encoding="UTF-8" standalone="no"?>
<svg
   xmlns:dc="http://purl.org/dc/elements/1.1/"
   xmlns:cc="http://creativecommons.org/ns#"
   xmlns:rdf="http://www.w3.org/1999/02/22-rdf-syntax-ns#"
   xmlns:svg="http://www.w3.org/2000/svg"
   xmlns="http://www.w3.org/2000/svg"
   xmlns:sodipodi="http://sodipodi.sourceforge.net/DTD/sodipodi-0.dtd"
   xmlns:inkscape="http://www.inkscape.org/namespaces/inkscape"
   version="1.1"
   x="0px"
   y="0px"
   viewBox="0 0 75 93.75"
   enable-background="new 0 0 75 75"
   xml:space="preserve"
   id="svg14"
   sodipodi:docname="facilitate.svg"
   inkscape:version="0.92.3 (2405546, 2018-03-11)"><metadata
     id="metadata20"><rdf:RDF><cc:Work
         rdf:about=""><dc:format>image/svg+xml</dc:format><dc:type
           rdf:resource="http://purl.org/dc/dcmitype/StillImage" /></cc:Work></rdf:RDF></metadata><defs
     id="defs18" /><sodipodi:namedview
     pagecolor="#ffffff"
     bordercolor="#666666"
     borderopacity="1"
     objecttolerance="10"
     gridtolerance="10"
     guidetolerance="10"
     inkscape:pageopacity="0"
     inkscape:pageshadow="2"
     inkscape:window-width="640"
     inkscape:window-height="480"
     id="namedview16"
     showgrid="false"
     inkscape:zoom="2.5173333"
     inkscape:cx="37.5"
     inkscape:cy="67.391921"
     inkscape:window-x="0"
     inkscape:window-y="0"
     inkscape:window-maximized="0"
     inkscape:current-layer="svg14" /><g
     id="g8"
     transform="matrix(1.5793043,0,0,1.872454,-21.326666,-22.587257)"><path
       d="m 61.500515,48.524902 c 0,7.600098 -6.179993,13.790039 -13.789978,13.790039 H 20.500515 c -0.390015,0 -0.73999,-0.22998 -0.909973,-0.580078 L 13.590543,48.945068 c -0.140015,-0.310058 -0.119995,-0.670166 0.07001,-0.960205 0.179993,-0.289795 0.5,-0.459961 0.839966,-0.459961 H 40.810514 V 13.685059 c 0,-0.550049 0.440002,-1 1,-1 0.549987,0 1,0.449951 1,1 v 33.839843 h 17.690001 c 0.549988,0 1,0.450196 1,1 z"
       id="path2"
       inkscape:connector-curvature="0" /><path
       d="m 53.450527,42.205078 c 0.179993,-0.300049 0.190003,-0.670166 0.02997,-0.97998 L 44.8074,24.682617 v 18.002441 h 7.783142 c 0.349975,1e-6 0.669983,-0.180175 0.859985,-0.47998 z"
       id="path4"
       inkscape:connector-curvature="0" /><path
       d="M 27.940517,36.88501 H 38.8074 V 17.977783 L 27.1105,35.324951 c -0.199951,0.300049 -0.21997,0.699951 -0.04999,1.03003 0.169982,0.320068 0.510009,0.530029 0.880004,0.530029 z"
       id="path6"
       inkscape:connector-curvature="0" /></g></svg>