<?xml version="1.0" encoding="UTF-8" standalone="no"?>
<svg
   xmlns:dc="http://purl.org/dc/elements/1.1/"
   xmlns:cc="http://creativecommons.org/ns#"
   xmlns:rdf="http://www.w3.org/1999/02/22-rdf-syntax-ns#"
   xmlns:svg="http://www.w3.org/2000/svg"
   xmlns="http://www.w3.org/2000/svg"
   xmlns:sodipodi="http://sodipodi.sourceforge.net/DTD/sodipodi-0.dtd"
   xmlns:inkscape="http://www.inkscape.org/namespaces/inkscape"
   stroke-width="0.501"
   stroke-linejoin="bevel"
   fill-rule="evenodd"
   version="1.1"
   overflow="visible"
   viewBox="0 0 96 120"
   x="0px"
   y="0px"
   id="svg14"
   sodipodi:docname="involvement.svg"
   inkscape:version="0.92.3 (2405546, 2018-03-11)">
  <metadata
     id="metadata20">
    <rdf:RDF>
      <cc:Work
         rdf:about="">
        <dc:format>image/svg+xml</dc:format>
        <dc:type
           rdf:resource="http://purl.org/dc/dcmitype/StillImage" />
      </cc:Work>
    </rdf:RDF>
  </metadata>
  <defs
     id="defs18" />
  <sodipodi:namedview
     pagecolor="#ffffff"
     bordercolor="#666666"
     borderopacity="1"
     objecttolerance="10"
     gridtolerance="10"
     guidetolerance="10"
     inkscape:pageopacity="0"
     inkscape:pageshadow="2"
     inkscape:window-width="640"
     inkscape:window-height="480"
     id="namedview16"
     showgrid="false"
     inkscape:zoom="1.9666667"
     inkscape:cx="48.000001"
     inkscape:cy="60.000001"
     inkscape:window-x="0"
     inkscape:window-y="0"
     inkscape:window-maximized="0"
     inkscape:current-layer="svg14" />
  <g
     font-size="16"
     transform="matrix(1.347417,0,0,-1.8741036,-17.658244,-35.9031)"
     id="g8"
     style="font-size:16px;font-family:'Times New Roman';fill:none;stroke:#000000">
    <g
       transform="translate(0,-96)"
       id="g6">
      <g
         id="g4">
        <path
           d="m 17.072,16.223 c 0.909,-0.21 1.758,-0.528 2.485,-1.067 -0.673,3.923 -2.803,7.178 -6.783,9.564 4.039,-0.167 7.208,-1.68 9.376,-4.739 v 19.361 l -3.121,-3.12 -5.035,5.034 34.945,34.945 11.934,-11.934 v 3.389 H 71.766 V 53.375 l 12.12,-12.12 -5.035,-5.035 -3.114,3.114 -10e-4,-18.018 c 2.03,2.04 4.711,3.072 7.974,3.206 -4.095,-2.453 -6.188,-5.848 -6.726,-9.952 1.152,2.046 2.95,2.931 4.979,3.399 -0.976,-1.962 -1.634,-3.846 -1.416,-5.508 h -8.533 c -0.567,3.985 -0.464,7.971 0.53,11.957 -2.91,-3.781 -5.373,-7.672 -6.248,-11.957 h -0.478 c -0.022,0.133 -0.046,0.267 -0.07,0.401 0.301,0.715 0.559,1.441 0.756,2.163 0.574,2.104 0.92,4.197 0.866,6.387 -0.055,2.24 -0.339,4.291 -0.829,6.476 -1.24,5.531 -3.602,10.737 -4.703,16.3 0.844,-0.191 1.811,-0.129 2.751,0.235 1.476,0.569 2.503,1.733 2.779,2.969 -1.033,0.731 -2.576,0.901 -4.053,0.332 -0.743,-0.287 -1.373,-0.724 -1.85,-1.245 -0.32,2.617 -0.206,5.372 0.414,7.932 0.197,0.816 0.461,1.57 0.698,2.369 -0.239,-0.488 -0.521,-0.955 -0.758,-1.45 -0.346,-0.724 -0.652,-1.486 -0.905,-2.247 -1.141,-3.434 -1.218,-6.999 -0.732,-10.557 0.265,-1.938 0.694,-3.879 1.18,-5.771 0.062,-0.243 0.125,-0.486 0.188,-0.728 -1.172,0.807 -2.547,1.036 -3.654,0.685 -0.113,-1.26 0.512,-2.682 1.747,-3.672 0.921,-0.741 2.003,-1.097 2.995,-1.071 0.231,-0.872 0.458,-1.746 0.671,-2.623 0.536,-2.21 1.049,-4.72 1.091,-6.996 0.016,-0.879 0.034,-1.738 -0.048,-2.616 -0.051,-0.539 -0.126,-1.046 -0.198,-1.577 -1.654,4.007 -4.194,7.793 -7.046,11.501 1.277,-5.131 1.479,-10.261 0.856,-15.391 L 56.84,20.67 C 56.474,17.933 55.887,15.196 54.703,12.461 H 54.652 L 52.675,34.104 C 52.173,26.888 51.256,19.675 48.95,12.461 h -1.892 c -0.088,2.825 0.036,5.702 0.276,8.608 -1.114,-2.06 -2.049,-4.149 -2.843,-6.261 l -0.951,9.61 c -0.297,-3.936 -1.464,-7.679 -3.751,-11.173 -0.89,3.157 -0.343,6.716 0.347,9.83 1.027,4.635 2.297,9.421 0.962,14.094 0.614,-0.204 1.354,-0.191 2.072,0.086 0.978,0.377 1.658,1.149 1.841,1.968 -0.684,0.484 -1.707,0.597 -2.686,0.22 -0.691,-0.267 -1.234,-0.731 -1.557,-1.268 -0.266,0.715 -0.61,1.463 -0.996,2.094 0.241,-0.784 0.405,-1.896 0.458,-2.718 0.07,-1.075 0.054,-2.005 -0.02,-3.078 -0.065,-0.931 -0.251,-1.915 -0.457,-2.843 -0.17,0.668 -0.588,1.329 -1.221,1.838 -0.916,0.735 -2.046,0.962 -2.941,0.678 -0.084,-0.936 0.38,-1.991 1.297,-2.726 0.816,-0.656 1.801,-0.906 2.639,-0.752 -0.538,-2.18 -1.275,-4.317 -1.895,-6.472 -0.71,-2.469 -1.191,-4.803 -1.25,-7.092 -1.889,4.319 -3.33,8.637 -4.262,12.956 -1.203,-5.22 -2.049,-10.47 -0.609,-15.909 -1.434,3.291 -2.129,6.737 -2.451,10.261 -0.574,-3.758 -0.95,-7.453 -1.03,-11.055 -1.027,3.481 -2.368,6.911 -4.18,10.264 0.311,-3.785 0.426,-7.522 0.133,-11.16 h -5.785 c 0.004,1.158 -0.468,2.437 -1.126,3.762 z"
           stroke-miterlimit="79.8403193612775"
           id="path2"
           inkscape:connector-curvature="0"
           style="fill:#000000;stroke:none;stroke-width:0.75;stroke-linecap:round;stroke-linejoin:round;stroke-miterlimit:79.84031677;marker-start:none;marker-end:none" />
      </g>
    </g>
  </g>
</svg>
