<?xml version="1.0" encoding="UTF-8" standalone="no"?>
<svg
   xmlns:dc="http://purl.org/dc/elements/1.1/"
   xmlns:cc="http://creativecommons.org/ns#"
   xmlns:rdf="http://www.w3.org/1999/02/22-rdf-syntax-ns#"
   xmlns:svg="http://www.w3.org/2000/svg"
   xmlns="http://www.w3.org/2000/svg"
   xmlns:sodipodi="http://sodipodi.sourceforge.net/DTD/sodipodi-0.dtd"
   xmlns:inkscape="http://www.inkscape.org/namespaces/inkscape"
   version="1.1"
   x="0px"
   y="0px"
   viewBox="0 0 200 250"
   style="enable-background:new 0 0 200 200;"
   xml:space="preserve"
   id="svg18"
   sodipodi:docname="state.svg"
   inkscape:version="0.92.3 (2405546, 2018-03-11)"><metadata
     id="metadata24"><rdf:RDF><cc:Work
         rdf:about=""><dc:format>image/svg+xml</dc:format><dc:type
           rdf:resource="http://purl.org/dc/dcmitype/StillImage" /></cc:Work></rdf:RDF></metadata><defs
     id="defs22" /><sodipodi:namedview
     pagecolor="#ffffff"
     bordercolor="#666666"
     borderopacity="1"
     objecttolerance="10"
     gridtolerance="10"
     guidetolerance="10"
     inkscape:pageopacity="0"
     inkscape:pageshadow="2"
     inkscape:window-width="640"
     inkscape:window-height="480"
     id="namedview20"
     showgrid="false"
     inkscape:zoom="0.944"
     inkscape:cx="100"
     inkscape:cy="125"
     inkscape:window-x="0"
     inkscape:window-y="0"
     inkscape:window-maximized="0"
     inkscape:current-layer="svg18" /><style
     type="text/css"
     id="style2">
	.st0{fill:#FFFFFF;stroke:#000000;stroke-width:4;stroke-linecap:round;stroke-miterlimit:10;}
</style><path
     class="st0"
     d="M1059,201.7"
     id="path4" /><g
     id="g12"
     transform="matrix(1.3111394,0,0.02220446,2.5987212,-35.422491,-135.49554)"><path
       d="m 83,82 h -1.3 c 1.4,-2.1 2.2,-4.6 2.2,-7.3 0,-7.3 -6,-13.3 -13.5,-13.3 -7.5,0 -13.4,6 -13.4,13.3 0,1.1 0.1,2.1 0.4,3.1 L 38,54.9 C 35.4,51.8 30.8,51.4 27.6,54 26,55.4 25,57.4 25,59.6 c 0,1.7 0.6,3.4 1.7,4.7 l 26.8,31.6 v 48.8 c 0,1.7 1.3,3 3,3 1.7,0 3,-1.3 3,-3 V 94.8 c 0,-0.7 -0.3,-1.4 -0.7,-1.9 L 31.3,60.4 C 31.1,60.2 31,59.9 31,59.6 c 0,-0.3 0.1,-0.7 0.5,-1 0.6,-0.5 1.5,-0.4 2,0.2 L 57.3,87 c 0,0 0.1,0.1 0.1,0.1 0.1,0.1 0.1,0.1 0.2,0.2 0.1,0.1 0.1,0.1 0.2,0.2 0.1,0.1 0.2,0.1 0.2,0.2 0.1,0.1 0.2,0.1 0.3,0.1 0.1,0 0.2,0.1 0.3,0.1 0.1,0 0.2,0.1 0.3,0.1 0.1,0 0.2,0 0.3,0 0.1,0 0.2,0 0.3,0 0,0 0.1,0 0.1,0 H 83 c 4.2,0 7.6,3.4 7.6,7.6 v 36.2 c 0,0.9 -0.7,1.6 -1.5,1.6 -0.5,0 -0.9,-0.2 -1.2,-0.6 -0.1,-0.1 -0.2,-0.2 -0.4,-0.4 v -31.9 c 0,-1.7 -1.3,-3 -3,-3 -1.7,0 -3,1.3 -3,3 v 44.2 c 0,1.7 1.3,3 3,3 1.7,0 3,-1.3 3,-3 v -5.5 c 0.5,0.1 1,0.2 1.5,0.2 4.2,0 7.5,-3.4 7.5,-7.6 V 95.6 C 96.6,88.1 90.5,82 83,82 Z M 70.5,67.4 c 4.1,0 7.5,3.3 7.5,7.3 0,4 -3.4,7.3 -7.5,7.3 -4.1,0 -7.5,-3.2 -7.5,-7.3 0,-4 3.4,-7.3 7.5,-7.3 z"
       id="path6"
       inkscape:connector-curvature="0" /><path
       d="m 121.8,82 h -1.3 c 1.4,-2.1 2.2,-4.6 2.2,-7.3 0,-7.3 -6,-13.3 -13.5,-13.3 -7.5,0 -13.5,6 -13.5,13.3 0,7.3 6,13.3 13.5,13.3 h 12.5 c 4.2,0 7.6,3.4 7.6,7.6 v 36.2 c 0,0.9 -0.7,1.6 -1.5,1.6 -0.5,0 -0.9,-0.2 -1.2,-0.6 -0.1,-0.1 -0.2,-0.2 -0.4,-0.4 v -31.9 c 0,-1.7 -1.3,-3 -3,-3 -1.7,0 -3,1.3 -3,3 v 44.2 c 0,1.7 1.3,3 3,3 1.7,0 3,-1.3 3,-3 v -5.5 c 0.5,0.1 1,0.2 1.5,0.2 4.2,0 7.5,-3.4 7.5,-7.6 V 95.6 C 135.3,88.1 129.3,82 121.8,82 Z m -20,-7.3 c 0,-4 3.4,-7.3 7.5,-7.3 4.1,0 7.5,3.3 7.5,7.3 0,4 -3.4,7.3 -7.5,7.3 -4.1,0 -7.5,-3.2 -7.5,-7.3 z"
       id="path8"
       inkscape:connector-curvature="0" /><path
       d="m 161.4,82 h -1.3 c 1.4,-2.1 2.2,-4.6 2.2,-7.3 0,-7.3 -6,-13.3 -13.5,-13.3 -7.4,0 -13.5,6 -13.5,13.3 0,7.3 6,13.3 13.5,13.3 h 12.5 c 4.2,0 7.6,3.4 7.6,7.6 v 36.2 c 0,0.9 -0.7,1.6 -1.5,1.6 -0.5,0 -0.9,-0.2 -1.2,-0.6 -0.1,-0.1 -0.2,-0.2 -0.4,-0.4 v -31.9 c 0,-1.7 -1.3,-3 -3,-3 -1.7,0 -3,1.3 -3,3 v 44.2 c 0,1.7 1.3,3 3,3 1.7,0 3,-1.3 3,-3 v -5.5 c 0.5,0.1 1,0.2 1.5,0.2 4.2,0 7.5,-3.4 7.5,-7.6 V 95.6 C 175,88.1 168.9,82 161.4,82 Z m -19.9,-7.3 c 0,-4 3.4,-7.3 7.5,-7.3 4.1,0 7.5,3.3 7.5,7.3 0,4 -3.4,7.3 -7.5,7.3 -4.2,0 -7.5,-3.2 -7.5,-7.3 z"
       id="path10"
       inkscape:connector-curvature="0" /></g></svg>