<?xml version="1.0" encoding="UTF-8" standalone="no"?>
<svg
   xmlns:dc="http://purl.org/dc/elements/1.1/"
   xmlns:cc="http://creativecommons.org/ns#"
   xmlns:rdf="http://www.w3.org/1999/02/22-rdf-syntax-ns#"
   xmlns:svg="http://www.w3.org/2000/svg"
   xmlns="http://www.w3.org/2000/svg"
   xmlns:sodipodi="http://sodipodi.sourceforge.net/DTD/sodipodi-0.dtd"
   xmlns:inkscape="http://www.inkscape.org/namespaces/inkscape"
   version="1.1"
   x="0px"
   y="0px"
   viewBox="0 0 59.482929 60"
   xml:space="preserve"
   id="svg38"
   sodipodi:docname="noun_Challenges_1677688.svg"
   width="59.482929"
   height="60"
   inkscape:version="0.92.3 (2405546, 2018-03-11)"><metadata
     id="metadata44"><rdf:RDF><cc:Work
         rdf:about=""><dc:format>image/svg+xml</dc:format><dc:type
           rdf:resource="http://purl.org/dc/dcmitype/StillImage" /></cc:Work></rdf:RDF></metadata><defs
     id="defs42" /><sodipodi:namedview
     pagecolor="#ffffff"
     bordercolor="#666666"
     borderopacity="1"
     objecttolerance="10"
     gridtolerance="10"
     guidetolerance="10"
     inkscape:pageopacity="0"
     inkscape:pageshadow="2"
     inkscape:window-width="1920"
     inkscape:window-height="1001"
     id="namedview40"
     showgrid="false"
     inkscape:zoom="2.95"
     inkscape:cx="29.999931"
     inkscape:cy="22"
     inkscape:window-x="-9"
     inkscape:window-y="-9"
     inkscape:window-maximized="1"
     inkscape:current-layer="svg38" /><path
     d="m 0.02593057,59.226 c 0.105,0.454 0.509,0.774 0.974,0.774 H 50.999931 c 0.473,0 0.881,-0.331 0.979,-0.794 0.098,-0.463 -0.143,-0.931 -0.576,-1.121 l -7.637,-3.36 c 3.684,-3.276 7.098,-7.49 7.098,-13.725 0,-5.487 -2.322,-10.579 -6.554,-14.412 l 1.946,-5.239 c 0.114,-0.308 0.07,-0.65 -0.117,-0.92 -0.186,-0.269 -0.493,-0.429 -0.821,-0.429 H 6.6819306 c -0.328,0 -0.634,0.16 -0.821,0.429 -0.187,0.27 -0.23,0.612 -0.117,0.92 l 1.946,5.239 c -4.232,3.833 -6.554,8.925 -6.554,14.412 0,5.499 1.933,9.799 6.23,13.764 l -6.80600003,3.339 c -0.418,0.204 -0.639,0.669 -0.534,1.123 z M 9.5959306,55.897 c 0.304,-0.148 0.5120004,-0.442 0.5530004,-0.778 0.04,-0.337 -0.093,-0.671 -0.3540004,-0.888 -4.668,-3.883 -6.659,-7.84 -6.659,-13.231 0,-5.115 2.266,-9.857 6.379,-13.354 0.32,-0.272 0.437,-0.716 0.29,-1.11 L 8.1199306,22 H 43.879931 l -1.685,4.536 c -0.146,0.395 -0.03,0.838 0.29,1.11 4.113,3.496 6.379,8.238 6.379,13.354 0,6.091 -3.839,10.106 -7.594,13.231 -0.266,0.222 -0.399,0.564 -0.351,0.908 0.048,0.343 0.271,0.636 0.587,0.775 l 4.738,2.086 H 5.3099306 Z"
     id="path2"
     inkscape:connector-curvature="0" /><path
     d="m 32.762931,42.354 c -0.19,-0.225 -0.469,-0.354 -0.763,-0.354 -2.312,0 -4.462,1.168 -5.752,3.024 -1.829,-1.874 -4.88,-3.024 -8.248,-3.024 -3.895,0 -7.17,3.182 -8.7750004,5.078 -0.944,1.113 -0.944,2.73 0,3.844 C 10.829931,52.818 14.104931,56 17.999931,56 c 3.368,0 6.419,-1.15 8.248,-3.024 1.29,1.856 3.44,3.024 5.752,3.024 0.294,0 0.573,-0.129 0.763,-0.354 0.19,-0.225 0.271,-0.521 0.223,-0.811 l -0.972,-5.835 0.973,-5.836 c 0.048,-0.29 -0.034,-0.586 -0.224,-0.81 z m -1.969,11.496 c -1.555,-0.393 -2.872,-1.528 -3.46,-3.067 -0.138,-0.36 -0.471,-0.609 -0.856,-0.64 -0.384,-0.025 -0.753,0.165 -0.945,0.5 -1.153,2.007 -4.179,3.357 -7.533,3.357 -3.087,0 -5.867,-2.738 -7.25,-4.371 -0.304,-0.358 -0.304,-0.899 0,-1.258 1.383,-1.633 4.163,-4.371 7.25,-4.371 3.354,0 6.38,1.35 7.532,3.357 0.192,0.335 0.563,0.536 0.945,0.5 0.385,-0.03 0.718,-0.279 0.856,-0.64 0.588,-1.539 1.906,-2.675 3.46,-3.067 l -0.781,4.686 c -0.018,0.108 -0.018,0.22 0,0.328 z"
     id="path4"
     inkscape:connector-curvature="0" /><rect
     x="13.99993"
     y="48"
     width="2"
     height="2"
     id="rect6" /><path
     d="m 42.774931,33.922 c 0.944,-1.113 0.944,-2.73 0,-3.844 -1.605,-1.896 -4.88,-5.078 -8.775,-5.078 -3.368,0 -6.419,1.15 -8.248,3.024 -1.29,-1.856 -3.44,-3.024 -5.752,-3.024 -0.294,0 -0.573,0.129 -0.763,0.354 -0.19,0.225 -0.271,0.521 -0.223,0.811 l 0.972,5.835 -0.973,5.836 c -0.048,0.29 0.033,0.586 0.223,0.811 0.19,0.225 0.47,0.353 0.764,0.353 2.312,0 4.462,-1.168 5.752,-3.024 1.829,1.874 4.88,3.024 8.248,3.024 3.895,0 7.17,-3.182 8.775,-5.078 z m -1.525,-1.293 c -1.383,1.633 -4.163,4.371 -7.25,4.371 -3.354,0 -6.38,-1.35 -7.532,-3.357 -0.179,-0.312 -0.511,-0.503 -0.868,-0.503 -0.025,0 -0.052,10e-4 -0.078,0.003 -0.385,0.03 -0.718,0.279 -0.856,0.64 -0.588,1.539 -1.906,2.675 -3.46,3.067 l 0.781,-4.686 c 0.018,-0.108 0.018,-0.22 0,-0.328 l -0.781,-4.686 c 1.555,0.393 2.872,1.528 3.46,3.067 0.138,0.36 0.471,0.609 0.856,0.64 0.395,0.028 0.753,-0.165 0.945,-0.5 1.153,-2.007 4.179,-3.357 7.533,-3.357 3.087,0 5.867,2.738 7.25,4.371 0.304,0.358 0.304,0.9 0,1.258 z"
     id="path8"
     inkscape:connector-curvature="0" /><rect
     x="35.999931"
     y="31"
     width="2"
     height="2"
     id="rect10" /><rect
     x="5.9999304"
     y="43"
     width="2"
     height="2"
     id="rect12" /><rect
     x="7.9999304"
     y="39"
     width="2"
     height="2"
     id="rect14" /><rect
     x="9.9999304"
     y="35"
     width="2"
     height="2"
     id="rect16" /><path
     d="m 58.774931,8.922 c 0.944,-1.113 0.944,-2.73 0,-3.844 -1.605,-1.896 -4.88,-5.078 -8.775,-5.078 -3.368,0 -6.419,1.15 -8.248,3.024 -1.29,-1.856 -3.44,-3.024 -5.752,-3.024 -0.294,0 -0.573,0.129 -0.763,0.354 -0.19,0.225 -0.271,0.521 -0.223,0.811 l 0.972,5.835 -0.973,5.836 c -0.048,0.29 0.033,0.586 0.223,0.811 0.19,0.225 0.47,0.353 0.764,0.353 2.312,0 4.462,-1.168 5.752,-3.024 1.829,1.874 4.88,3.024 8.248,3.024 3.895,0 7.17,-3.182 8.775,-5.078 z m -1.525,-1.293 c -1.383,1.633 -4.163,4.371 -7.25,4.371 -3.354,0 -6.38,-1.35 -7.532,-3.357 -0.179,-0.312 -0.511,-0.503 -0.868,-0.503 -0.025,0 -0.052,10e-4 -0.078,0.003 -0.385,0.03 -0.718,0.279 -0.856,0.64 -0.588,1.539 -1.906,2.675 -3.46,3.067 l 0.781,-4.686 c 0.018,-0.108 0.018,-0.22 0,-0.328 l -0.781,-4.686 c 1.555,0.393 2.872,1.528 3.46,3.067 0.138,0.36 0.471,0.609 0.856,0.64 0.388,0.032 0.753,-0.165 0.945,-0.5 1.153,-2.007 4.179,-3.357 7.533,-3.357 3.087,0 5.867,2.738 7.25,4.371 0.304,0.358 0.304,0.9 0,1.258 z"
     id="path18"
     inkscape:connector-curvature="0" /><rect
     x="51.999931"
     y="6"
     width="2"
     height="2"
     id="rect20" /><path
     d="m 19.080931,13.785 1.93,0.525 c 0.163,-0.598 0.368,-1.191 0.609,-1.764 l -1.843,-0.777 c -0.276,0.655 -0.51,1.333 -0.696,2.016 z"
     id="path22"
     inkscape:connector-curvature="0" /><path
     d="m 26.182931,6.748 -1.193,-1.605 c -0.569,0.424 -1.114,0.888 -1.622,1.38 l 1.394,1.436 c 0.444,-0.434 0.923,-0.841 1.421,-1.211 z"
     id="path24"
     inkscape:connector-curvature="0" /><path
     d="m 32.844931,2.086 c -0.71,0.074 -1.417,0.195 -2.1,0.361 l 0.471,1.943 c 0.597,-0.145 1.215,-0.251 1.838,-0.316 z"
     id="path26"
     inkscape:connector-curvature="0" /><path
     d="m 28.710931,3.086 c -0.659,0.257 -1.308,0.561 -1.928,0.903 l 0.967,1.75 c 0.542,-0.299 1.11,-0.565 1.688,-0.79 z"
     id="path28"
     inkscape:connector-curvature="0" /><path
     d="m 18.520931,18 h 2 c 0,-0.623 0.041,-1.25 0.122,-1.862 l -1.982,-0.262 c -0.093,0.698 -0.14,1.413 -0.14,2.124 z"
     id="path30"
     inkscape:connector-curvature="0" /><path
     d="m 20.737931,9.864 1.722,1.018 c 0.315,-0.533 0.67,-1.052 1.055,-1.54 l -1.572,-1.236 c -0.44,0.557 -0.844,1.149 -1.205,1.758 z"
     id="path32"
     inkscape:connector-curvature="0" /></svg>