<svg xmlns:dc="http://purl.org/dc/elements/1.1/" xmlns:cc="http://creativecommons.org/ns#" xmlns:rdf="http://www.w3.org/1999/02/22-rdf-syntax-ns#" xmlns:svg="http://www.w3.org/2000/svg" xmlns="http://www.w3.org/2000/svg" xmlns:sodipodi="http://sodipodi.sourceforge.net/DTD/sodipodi-0.dtd" xmlns:inkscape="http://www.inkscape.org/namespaces/inkscape" viewBox="0 0 32 40.00000125" version="1.1" x="0px" y="0px"><g transform="translate(0,-1020.3622)"><path style="color:#000000;font-style:normal;font-variant:normal;font-weight:normal;font-stretch:normal;font-size:medium;line-height:normal;font-family:sans-serif;text-indent:0;text-align:start;text-decoration:none;text-decoration-line:none;text-decoration-style:solid;text-decoration-color:#000000;letter-spacing:normal;word-spacing:normal;text-transform:none;direction:ltr;block-progression:tb;writing-mode:lr-tb;baseline-shift:baseline;text-anchor:start;white-space:normal;clip-rule:nonzero;display:inline;overflow:visible;visibility:visible;opacity:1;isolation:auto;mix-blend-mode:normal;color-interpolation:sRGB;color-interpolation-filters:linearRGB;solid-color:#000000;solid-opacity:1;fill:#000000;fill-opacity:1;fill-rule:evenodd;stroke:none;stroke-width:1px;stroke-linecap:round;stroke-linejoin:round;stroke-miterlimit:4;stroke-dasharray:none;stroke-dashoffset:0;stroke-opacity:1;color-rendering:auto;image-rendering:auto;shape-rendering:auto;text-rendering:auto;enable-background:accumulate" d="M 2.5058594 1.0019531 A 0.50005 0.50005 0 0 0 2.0058594 1.5019531 L 2.0058594 10.978516 A 0.50005 0.50005 0 0 0 2.5058594 11.478516 L 7.3652344 11.478516 C 8.0929939 13.592405 8.7131311 15.625311 9.0800781 17.501953 C 9.039954 17.549112 8.9920025 17.59528 8.953125 17.642578 C 8.0745234 18.711378 7.5019531 19.8324 7.5019531 21 C 7.5019531 21.7138 7.9290232 22.339422 8.5390625 22.919922 C 8.7112837 23.083832 8.9056417 23.24563 9.1113281 23.40625 C 8.840846 24.381489 8.4104127 25.271346 7.7324219 26.050781 C 6.6385875 27.308381 4.9333039 28.329525 2.3730469 29.015625 A 0.50005 0.50005 0 1 0 2.6308594 29.980469 C 5.3239853 29.258869 7.2303995 28.150931 8.4863281 26.707031 C 9.1885683 25.899633 9.6724175 24.9895 9.9882812 24.009766 C 10.299169 24.210626 10.607262 24.410927 10.960938 24.609375 C 12.925992 25.711875 15.504098 26.778503 18.080078 27.720703 C 23.232039 29.605103 28.373047 30.982422 28.373047 30.982422 A 0.50005 0.50005 0 1 0 28.632812 30.017578 C 28.632812 30.017578 23.521866 28.64595 18.423828 26.78125 C 15.874809 25.84895 13.329866 24.790428 11.451172 23.736328 C 11.009609 23.488599 10.613803 23.241712 10.255859 22.998047 C 10.34708 22.534622 10.40556 22.059546 10.433594 21.572266 C 10.502126 20.381037 10.383128 19.114352 10.15625 17.800781 C 10.912806 16.985537 11.881844 16.156907 12.990234 15.341797 C 14.780132 14.025507 16.854541 12.783937 18.888672 11.601562 L 19.240234 16.345703 C 18.855842 17.131171 18.879401 18.062194 19.333984 18.826172 C 19.820998 19.644872 20.70523 20.142403 21.654297 20.158203 A 0.50005006 0.50005006 0 0 0 21.673828 20.158203 C 22.676099 20.136203 23.829943 19.990934 24.505859 19.990234 C 25.273559 20.000234 25.948872 20.511222 26.152344 21.232422 C 26.355835 21.953722 26.050004 22.692794 25.396484 23.058594 A 0.50005006 0.50005006 0 1 0 25.884766 23.929688 C 26.931802 23.343588 27.441061 22.115937 27.115234 20.960938 C 26.78936 19.806038 25.722519 19.001734 24.515625 18.990234 A 0.50005006 0.50005006 0 0 0 24.509766 18.990234 C 23.70753 18.990334 22.586717 19.13485 21.669922 19.15625 C 21.061442 19.14525 20.498144 18.826753 20.193359 18.314453 C 19.911143 17.840087 19.896522 17.280116 20.123047 16.802734 L 29.71875 12.205078 A 0.50005 0.50005 0 0 0 29.984375 11.623047 L 27.755859 3.3671875 A 0.50005 0.50005 0 0 0 27.275391 2.9980469 A 0.50005 0.50005 0 0 0 27.144531 3.015625 L 18.824219 5.2265625 A 0.50005 0.50005 0 0 0 18.453125 5.7460938 L 18.806641 10.492188 C 16.634857 11.747382 14.370852 13.085132 12.396484 14.537109 C 11.480009 15.211065 10.648422 15.900789 9.9277344 16.603516 C 9.5647112 14.960916 9.0377979 13.24262 8.4335938 11.478516 L 9.5878906 11.478516 L 9.5878906 13.515625 A 0.50005 0.50005 0 0 0 10.441406 13.869141 L 14.863281 9.4453125 A 0.50005 0.50005 0 0 0 14.509766 8.5917969 L 12.482422 8.5917969 L 12.482422 1.5019531 A 0.50005 0.50005 0 0 0 11.982422 1.0019531 L 2.5058594 1.0019531 z M 3.7070312 2.0019531 L 7.7265625 2.0019531 C 6.9489405 2.383959 6.1388362 2.9036208 5.3398438 3.6328125 L 3.7070312 2.0019531 z M 11.337891 2.0019531 L 11.482422 2.0019531 L 11.482422 8.5917969 L 10.298828 8.5917969 L 8.9335938 7.2265625 A 0.50005 0.50005 0 0 0 8.7832031 7.0761719 A 0.50005 0.50005 0 0 0 8.78125 7.0761719 L 6.0449219 4.3398438 C 8.1573289 2.4209754 10.322029 2.0561991 11.337891 2.0019531 z M 3.0058594 2.7148438 L 4.6328125 4.3398438 C 3.904499 5.1388346 3.3872876 5.949181 3.0058594 6.7265625 L 3.0058594 2.7148438 z M 26.234375 4.2890625 L 24.75 6.8417969 C 23.448908 6.1600789 22.2547 5.7887209 21.306641 5.5996094 L 26.234375 4.2890625 z M 27.101562 4.7832031 L 28.425781 9.6835938 C 27.786549 8.9619428 26.8643 8.11813 25.615234 7.3378906 L 27.101562 4.7832031 z M 5.1035156 5.3085938 L 6.4003906 8.7695312 A 0.50005 0.50005 0 0 0 6.4277344 8.8261719 C 6.6330669 9.3860936 6.8161024 9.927505 7.0117188 10.478516 L 3.0058594 10.478516 L 3.0058594 10.333984 C 3.057822 9.3614204 3.3915753 7.3338422 5.1035156 5.3085938 z M 6.5136719 6.2207031 L 7.71875 7.4257812 L 7.1152344 7.828125 L 6.5136719 6.2207031 z M 19.501953 6.3867188 C 19.937269 6.3791501 21.588845 6.4294108 23.796875 7.4726562 L 21.244141 9.0722656 A 0.50005006 0.50005006 0 0 0 21.220703 9.0898438 C 20.769827 9.3500319 20.245184 9.6602479 19.765625 9.9355469 L 19.501953 6.3867188 z M 8.4394531 8.1464844 L 9.5878906 9.2949219 L 9.5878906 10.478516 L 8.078125 10.478516 C 7.8793484 9.916682 7.684824 9.3585485 7.4765625 8.7890625 L 8.4394531 8.1464844 z M 25.113281 8.2011719 C 27.413052 9.6410375 28.404814 11.201588 28.636719 11.615234 L 20.998047 15.273438 L 25.113281 8.2011719 z M 23.634766 8.7558594 L 22.009766 11.548828 L 22.009766 9.7734375 L 23.634766 8.7558594 z M 10.587891 9.5917969 L 13.302734 9.5917969 L 10.587891 12.308594 L 10.587891 9.5917969 z M 21.009766 10.369141 L 21.009766 13.267578 L 20.126953 14.785156 L 19.847656 11.042969 C 20.235836 10.819565 20.635687 10.584006 21.009766 10.369141 z M 9.3066406 18.847656 C 9.4302765 19.783209 9.4836302 20.677884 9.4355469 21.513672 C 9.4201891 21.780622 9.3762866 22.029876 9.3417969 22.285156 C 9.3095578 22.255936 9.2589249 22.224249 9.2285156 22.195312 C 8.7174613 21.708912 8.5019531 21.2871 8.5019531 21 C 8.5019531 20.331699 8.7884466 19.6063 9.3066406 18.847656 z " transform="translate(0,1020.3622)"/></g><text x="0" y="47.000001" fill="#000000" font-size="5px" font-weight="bold" font-family="'Helvetica Neue', Helvetica, Arial-Unicode, Arial, Sans-serif">Created by Chameleon Design</text><text x="0" y="52.000001" fill="#000000" font-size="5px" font-weight="bold" font-family="'Helvetica Neue', Helvetica, Arial-Unicode, Arial, Sans-serif">from the Noun Project</text></svg>