<svg xmlns="http://www.w3.org/2000/svg" data-name="Layer 1" viewBox="0 0 100 125" x="0px" y="0px"><title>Artboard 8</title><path d="M44.92,41.84,47.07,44a4.15,4.15,0,0,0,5.87,0l6.36-6.36a1.08,1.08,0,0,1,1.53,0,1.07,1.07,0,0,1,.29,1,5.74,5.74,0,1,0,4.43-4.44,1.06,1.06,0,0,1-1-.29,1.08,1.08,0,0,1,0-1.53L71,26a4.15,4.15,0,0,0,0-5.87l-6.36-6.36a1.08,1.08,0,0,1,0-1.53,1.06,1.06,0,0,1,1-.29,5.74,5.74,0,1,0-4.43-4.44,1.07,1.07,0,0,1-.29,1h0a1.08,1.08,0,0,1-1.53,0L52.94,2.07a4.15,4.15,0,0,0-5.87,0L40.7,8.44a1.08,1.08,0,0,1-1.53,0,1.07,1.07,0,0,1-.29-1,5.74,5.74,0,1,0-4.43,4.44,1.06,1.06,0,0,1,1,.29,1.08,1.08,0,0,1,0,1.53L29,20.09A4.15,4.15,0,0,0,29,26l2.14,2.14a10.16,10.16,0,0,1,3.17-3.26,9.92,9.92,0,0,1,10.82,0,10,10,0,0,1-.26,17Z"/><path d="M7.46,61.12a5.74,5.74,0,1,0,4.44,4.43,1.06,1.06,0,0,1,.29-1,1.08,1.08,0,0,1,1.53,0L20.09,71A4.15,4.15,0,0,0,26,71l2.14-2.14a10.17,10.17,0,0,1-3.26-3.17,9.92,9.92,0,0,1,0-10.82,10,10,0,0,1,17,.26L44,52.93a4.15,4.15,0,0,0,0-5.87L37.61,40.7a1.08,1.08,0,0,1,0-1.53,1.07,1.07,0,0,1,1-.29,5.74,5.74,0,1,0-4.44-4.43,1.06,1.06,0,0,1-.29,1,1.08,1.08,0,0,1-1.53,0L26,29a4.15,4.15,0,0,0-5.87,0l-6.36,6.36a1.08,1.08,0,0,1-1.53,0,1.06,1.06,0,0,1-.29-1,5.74,5.74,0,1,0-4.44,4.43,1.07,1.07,0,0,1,1,.29h0a1.08,1.08,0,0,1,0,1.53L2.07,47.06a4.15,4.15,0,0,0,0,5.87L8.44,59.3a1.08,1.08,0,0,1,0,1.53A1.07,1.07,0,0,1,7.46,61.12Z"/><path d="M75.17,34.36a9.92,9.92,0,0,1,0,10.82,10,10,0,0,1-17-.26L56,47.07a4.15,4.15,0,0,0,0,5.87l6.36,6.36a1.08,1.08,0,0,1,0,1.53,1.07,1.07,0,0,1-1,.29,5.74,5.74,0,1,0,4.44,4.43,1.06,1.06,0,0,1,.29-1,1.08,1.08,0,0,1,1.53,0L74,71a4.15,4.15,0,0,0,5.87,0l6.36-6.36a1.08,1.08,0,0,1,1.53,0,1.06,1.06,0,0,1,.29,1,5.74,5.74,0,1,0,4.44-4.43,1.07,1.07,0,0,1-1-.29h0a1.08,1.08,0,0,1,0-1.53l6.36-6.36a4.15,4.15,0,0,0,0-5.87L91.56,40.7a1.08,1.08,0,0,1,0-1.53,1.07,1.07,0,0,1,1-.29,5.74,5.74,0,1,0-4.44-4.43,1.06,1.06,0,0,1-.29,1,1.08,1.08,0,0,1-1.53,0L79.91,29A4.15,4.15,0,0,0,74,29L71.9,31.19A10.17,10.17,0,0,1,75.17,34.36Z"/><path d="M34.45,88.1a5.74,5.74,0,1,0,4.43,4.44,1.07,1.07,0,0,1,.29-1h0a1.08,1.08,0,0,1,1.53,0l6.36,6.36a4.15,4.15,0,0,0,5.87,0l6.36-6.36a1.08,1.08,0,0,1,1.53,0,1.07,1.07,0,0,1,.29,1,5.74,5.74,0,1,0,4.43-4.44,1.06,1.06,0,0,1-1-.29,1.08,1.08,0,0,1,0-1.53L71,79.91A4.15,4.15,0,0,0,71,74L68.81,71.9a10.17,10.17,0,0,1-3.17,3.27,9.92,9.92,0,0,1-10.82,0,10,10,0,0,1,.26-17L52.93,56a4.15,4.15,0,0,0-5.87,0L40.7,62.39a1.08,1.08,0,0,1-1.53,0,1.07,1.07,0,0,1-.29-1,5.74,5.74,0,1,0-4.43,4.44,1.06,1.06,0,0,1,1,.29,1.08,1.08,0,0,1,0,1.53L29,74a4.15,4.15,0,0,0,0,5.87l6.36,6.36a1.08,1.08,0,0,1,0,1.53A1.06,1.06,0,0,1,34.45,88.1Z"/><text x="0" y="115" fill="#000000" font-size="5px" font-weight="bold" font-family="'Helvetica Neue', Helvetica, Arial-Unicode, Arial, Sans-serif">Created by Gregor Cresnar</text><text x="0" y="120" fill="#000000" font-size="5px" font-weight="bold" font-family="'Helvetica Neue', Helvetica, Arial-Unicode, Arial, Sans-serif">from the Noun Project</text></svg>