<svg xmlns="http://www.w3.org/2000/svg" xmlns:xlink="http://www.w3.org/1999/xlink" version="1.1" x="0px" y="0px" viewBox="0 0 100 125" enable-background="new 0 0 100 100" xml:space="preserve"><path d="M84.2,42.8c-4.7,0-8.7,3.3-9.7,7.8h-15c-0.3-2.1-1.2-4.1-2.4-5.8l1.7-1.7c1,0.5,2.2,0.9,3.4,0.9c4.1,0,7.4-3.3,7.4-7.4  s-3.3-7.4-7.4-7.4s-7.4,3.3-7.4,7.4c0,1.2,0.3,2.4,0.9,3.4L54,41.7c-1.7-1.2-3.7-2.1-5.8-2.4V22c3.2-1,5.6-3.9,5.6-7.5  c0-4.3-3.5-7.8-7.8-7.8s-7.8,3.5-7.8,7.8c0,3.5,2.4,6.5,5.6,7.5v17.3c-2.1,0.3-4.1,1.2-5.8,2.4l-8.4-8.4c1.5-2.1,2.4-4.7,2.4-7.6  c0-7.2-5.9-13.1-13.1-13.1S5.8,18.5,5.8,25.7s5.9,13.1,13.1,13.1c2.8,0,5.4-0.9,7.6-2.4l8.4,8.4c-1.2,1.7-2.1,3.7-2.4,5.8h-5.9  c-1-3.3-4-5.8-7.7-5.8c-4.4,0-8,3.6-8,8c0,4.4,3.6,8,8,8c3.6,0,6.7-2.5,7.7-5.8h5.9c0.3,2.1,1.2,4.1,2.4,5.8L21.6,74.1  c-0.8-0.4-1.7-0.6-2.7-0.6c-3.5,0-6.4,2.9-6.4,6.4c0,3.5,2.9,6.4,6.4,6.4s6.4-2.9,6.4-6.4c0-1-0.2-1.9-0.6-2.7L38,63.9  c1.7,1.2,3.7,2.1,5.8,2.4v6.8c-4.6,1-8,5.1-8,10c0,5.6,4.6,10.2,10.2,10.2s10.2-4.6,10.2-10.2c0-4.9-3.4-9-8-10v-6.8  c2.1-0.3,4.1-1.2,5.8-2.4l7.2,7.2c-0.8,1.4-1.3,3-1.3,4.7c0,5.1,4.1,9.2,9.2,9.2s9.2-4.1,9.2-9.2s-4.1-9.2-9.2-9.2  c-1.7,0-3.4,0.5-4.7,1.3l-7.2-7.2c1.2-1.7,2.1-3.7,2.4-5.8h15c1,4.4,5,7.8,9.7,7.8c5.5,0,10-4.5,10-10S89.7,42.8,84.2,42.8z"/><text x="0" y="115" fill="#000000" font-size="5px" font-weight="bold" font-family="'Helvetica Neue', Helvetica, Arial-Unicode, Arial, Sans-serif">Created by mikicon</text><text x="0" y="120" fill="#000000" font-size="5px" font-weight="bold" font-family="'Helvetica Neue', Helvetica, Arial-Unicode, Arial, Sans-serif">from the Noun Project</text></svg>