<svg xmlns="http://www.w3.org/2000/svg" xmlns:xlink="http://www.w3.org/1999/xlink" version="1.1" x="0px" y="0px" viewBox="0 0 100 125" enable-background="new 0 0 100 100" xml:space="preserve"><g><g><g><path d="M94.299,69.812l-8.096-8.059l-0.598-0.594l-0.133,0.129c-0.367,0.415-0.752,0.82-1.15,1.218     c-1.16,1.155-2.404,2.175-3.711,3.054l0.955,0.979l8.01,7.97c1.045,1.035,2.871,0.899,4.082-0.302l0.338-0.332     C95.205,72.668,95.342,70.852,94.299,69.812z"/></g></g></g><g><g><path d="M81.941,32.726c-7.939-7.906-20.822-7.906-28.762,0c-7.943,7.901-7.943,20.717,0,28.613c7.939,7.91,20.822,7.903,28.762,0    C89.885,53.442,89.885,40.627,81.941,32.726z M78.24,57.658c-5.898,5.865-15.461,5.865-21.355,0    c-5.897-5.869-5.897-15.382,0-21.247c5.895-5.867,15.457-5.867,21.355,0C84.129,42.276,84.129,51.789,78.24,57.658z"/></g></g><polygon points="78.105,44.378 70.213,44.378 70.213,36.486 64.904,36.486 64.904,44.378 57.012,44.378 57.012,49.687   64.904,49.687 64.904,57.578 70.213,57.578 70.213,49.687 78.105,49.687 "/><path d="M50.165,63.652c-3.089,0.904-6.335,1.4-9.688,1.4c-11.813,0-22.347-5.964-29.063-15.348  c6.716-9.38,17.25-15.338,29.063-15.338c2.179,0,4.314,0.206,6.39,0.596c1.03-1.806,2.277-3.467,3.716-4.947  c-3.238-0.834-6.619-1.29-10.106-1.29c-14.632,0-27.473,7.798-35.031,19.485c-0.595,0.915-0.595,2.075,0,2.994  c7.558,11.684,20.398,19.491,35.031,19.491c5.219,0,10.205-1.011,14.811-2.82C53.391,66.703,51.67,65.282,50.165,63.652z"/><path d="M45.309,55.872c-1.822,1.314-4.176,1.924-6.58,1.447c-4.462-0.886-7.337-5.102-6.419-9.41  c0.916-4.31,5.276-7.086,9.738-6.203c0.74,0.15,1.412,0.426,2.049,0.746c0.334-1.749,0.846-3.434,1.53-5.03  c-0.792-0.34-1.611-0.641-2.494-0.817c-7.376-1.462-14.584,3.139-16.1,10.259c-1.514,7.129,3.24,14.086,10.611,15.55  c3.625,0.721,7.206-0.028,10.093-1.817C46.76,59.128,45.954,57.542,45.309,55.872z"/><path d="M43.648,47.064c0-0.697,0.047-1.384,0.105-2.066l-0.416-0.421c-0.522-0.279-1.079-0.512-1.697-0.635  c-3.246-0.644-6.422,1.37-7.09,4.515c-0.669,3.144,1.429,6.207,4.675,6.851c2.018,0.4,4.005-0.228,5.382-1.514  C43.997,51.653,43.648,49.401,43.648,47.064z"/><text x="0" y="115" fill="#000000" font-size="5px" font-weight="bold" font-family="'Helvetica Neue', Helvetica, Arial-Unicode, Arial, Sans-serif">Created by Aaron K. Kim</text><text x="0" y="120" fill="#000000" font-size="5px" font-weight="bold" font-family="'Helvetica Neue', Helvetica, Arial-Unicode, Arial, Sans-serif">from the Noun Project</text></svg>