<svg xmlns="http://www.w3.org/2000/svg" xmlns:xlink="http://www.w3.org/1999/xlink" version="1.1" x="0px" y="0px" viewBox="0 0 75 93.75" enable-background="new 0 0 75 75" xml:space="preserve"><g><path d="M61.500515,48.5249023c0,7.6000977-6.1799927,13.7900391-13.789978,13.7900391H20.500515   c-0.3900146,0-0.7399902-0.2299805-0.9099731-0.5800781l-5.999999-12.7897949   c-0.1400146-0.3100586-0.1199951-0.670166,0.0700073-0.9602051c0.1799927-0.2897949,0.5-0.4599609,0.8399658-0.4599609h26.3099976   V13.6850586c0-0.5500488,0.4400024-1,1-1c0.5499878,0,1,0.4499512,1,1v33.8398438H60.500515   C61.0505028,47.5249023,61.500515,47.9750977,61.500515,48.5249023z"/><path d="M53.4505272,42.2050781c0.1799927-0.3000488,0.1900024-0.670166,0.0299683-0.9799805l-8.6730957-16.5424805v18.0024414   h7.7831421C52.9405174,42.6850586,53.2605247,42.5048828,53.4505272,42.2050781z"/><path d="M27.9405174,36.8850098h10.8668823V17.9777832l-11.6968994,17.347168   c-0.1999512,0.3000488-0.2199707,0.6999512-0.0499878,1.0300293   C27.2304955,36.6750488,27.5705223,36.8850098,27.9405174,36.8850098z"/></g><text x="0" y="90" fill="#000000" font-size="5px" font-weight="bold" font-family="'Helvetica Neue', Helvetica, Arial-Unicode, Arial, Sans-serif">Created by Dinosoft Labs</text><text x="0" y="95" fill="#000000" font-size="5px" font-weight="bold" font-family="'Helvetica Neue', Helvetica, Arial-Unicode, Arial, Sans-serif">from the Noun Project</text></svg>