<svg xmlns:xlink="http://www.w3.org/1999/xlink" xmlns="http://www.w3.org/2000/svg" stroke-width="0.501" stroke-linejoin="bevel" fill-rule="evenodd" version="1.1" overflow="visible" viewBox="0 0 96 120" x="0px" y="0px"><g fill="none" stroke="black" font-family="Times New Roman" font-size="16" transform="scale(1 -1)"><g transform="translate(0 -96)"><g><path d="M 17.072,16.223 C 17.981,16.013 18.83,15.695 19.557,15.156 C 18.884,19.079 16.754,22.334 12.774,24.72 C 16.813,24.553 19.982,23.04 22.15,19.981 L 22.15,39.342 L 19.029,36.222 L 13.994,41.256 L 48.939,76.201 L 60.873,64.267 L 60.873,67.656 L 71.766,67.656 L 71.766,53.375 L 83.886,41.255 L 78.851,36.22 L 75.737,39.334 L 75.736,21.316 C 77.766,23.356 80.447,24.388 83.71,24.522 C 79.615,22.069 77.522,18.674 76.984,14.57 C 78.136,16.616 79.934,17.501 81.963,17.969 C 80.987,16.007 80.329,14.123 80.547,12.461 L 72.014,12.461 C 71.447,16.446 71.55,20.432 72.544,24.418 C 69.634,20.637 67.171,16.746 66.296,12.461 L 65.818,12.461 C 65.796,12.594 65.772,12.728 65.748,12.862 C 66.049,13.577 66.307,14.303 66.504,15.025 C 67.078,17.129 67.424,19.222 67.37,21.412 C 67.315,23.652 67.031,25.703 66.541,27.888 C 65.301,33.419 62.939,38.625 61.838,44.188 C 62.682,43.997 63.649,44.059 64.589,44.423 C 66.065,44.992 67.092,46.156 67.368,47.392 C 66.335,48.123 64.792,48.293 63.315,47.724 C 62.572,47.437 61.942,47 61.465,46.479 C 61.145,49.096 61.259,51.851 61.879,54.411 C 62.076,55.227 62.34,55.981 62.577,56.78 C 62.338,56.292 62.056,55.825 61.819,55.33 C 61.473,54.606 61.167,53.844 60.914,53.083 C 59.773,49.649 59.696,46.084 60.182,42.526 C 60.447,40.588 60.876,38.647 61.362,36.755 C 61.424,36.512 61.487,36.269 61.55,36.027 C 60.378,36.834 59.003,37.063 57.896,36.712 C 57.783,35.452 58.408,34.03 59.643,33.04 C 60.564,32.299 61.646,31.943 62.638,31.969 C 62.869,31.097 63.096,30.223 63.309,29.346 C 63.845,27.136 64.358,24.626 64.4,22.35 C 64.416,21.471 64.434,20.612 64.352,19.734 C 64.301,19.195 64.226,18.688 64.154,18.157 C 62.5,22.164 59.96,25.95 57.108,29.658 C 58.385,24.527 58.587,19.397 57.964,14.267 L 56.84,20.67 C 56.474,17.933 55.887,15.196 54.703,12.461 L 54.652,12.461 L 52.675,34.104 C 52.173,26.888 51.256,19.675 48.95,12.461 L 47.058,12.461 C 46.97,15.286 47.094,18.163 47.334,21.069 C 46.22,19.009 45.285,16.92 44.491,14.808 L 43.54,24.418 C 43.243,20.482 42.076,16.739 39.789,13.245 C 38.899,16.402 39.446,19.961 40.136,23.075 C 41.163,27.71 42.433,32.496 41.098,37.169 C 41.712,36.965 42.452,36.978 43.17,37.255 C 44.148,37.632 44.828,38.404 45.011,39.223 C 44.327,39.707 43.304,39.82 42.325,39.443 C 41.634,39.176 41.091,38.712 40.768,38.175 C 40.502,38.89 40.158,39.638 39.772,40.269 C 40.013,39.485 40.177,38.373 40.23,37.551 C 40.3,36.476 40.284,35.546 40.21,34.473 C 40.145,33.542 39.959,32.558 39.753,31.63 C 39.583,32.298 39.165,32.959 38.532,33.468 C 37.616,34.203 36.486,34.43 35.591,34.146 C 35.507,33.21 35.971,32.155 36.888,31.42 C 37.704,30.764 38.689,30.514 39.527,30.668 C 38.989,28.488 38.252,26.351 37.632,24.196 C 36.922,21.727 36.441,19.393 36.382,17.104 C 34.493,21.423 33.052,25.741 32.12,30.06 C 30.917,24.84 30.071,19.59 31.511,14.151 C 30.077,17.442 29.382,20.888 29.06,24.412 C 28.486,20.654 28.11,16.959 28.03,13.357 C 27.003,16.838 25.662,20.268 23.85,23.621 C 24.161,19.836 24.276,16.099 23.983,12.461 L 18.198,12.461 C 18.202,13.619 17.73,14.898 17.072,16.223 Z" stroke-linecap="round" stroke="none" stroke-width="0.75" fill="#000000" stroke-linejoin="round" marker-start="none" marker-end="none" stroke-miterlimit="79.8403193612775"/></g></g></g><text x="0" y="111" fill="#000000" font-size="5px" font-weight="bold" font-family="'Helvetica Neue', Helvetica, Arial-Unicode, Arial, Sans-serif">Created by Peter van Driel</text><text x="0" y="116" fill="#000000" font-size="5px" font-weight="bold" font-family="'Helvetica Neue', Helvetica, Arial-Unicode, Arial, Sans-serif">from the Noun Project</text></svg>