<svg xmlns="http://www.w3.org/2000/svg" xmlns:xlink="http://www.w3.org/1999/xlink" xmlns:sketch="http://www.bohemiancoding.com/sketch/ns" viewBox="0 0 100 125" version="1.1" x="0px" y="0px"><title>100x100</title><desc>Created with Sketch.</desc><g stroke="none" stroke-width="1" fill="none" fill-rule="evenodd" sketch:type="MSPage"><g sketch:type="MSLayerGroup" transform="translate(12.500000, 4.114322)" fill="#000000"><path d="M24.2020101,2.82050879 L21.4178706,0.0365577889 L12.1174937,9.30254397 L2.81542085,0 L0.0287374372,2.78649497 L9.32873744,12.0866834 L0.0362751256,21.3602073 L2.8142902,24.1377513 L12.0973304,14.8548053 L21.3889447,24.1467023 L24.204554,21.3892274 L14.9168028,12.1010992 L24.2020101,2.82050879" sketch:type="MSShapeGroup"/><path d="M14.4079146,25.1570352 L9.94692211,25.1570352 C10.1024812,28.2663317 10.6345477,31.1354585 11.528706,33.7727073 L15.7465138,32.3311244 C15.0060302,30.1467023 14.5565955,27.701005 14.4079146,25.1570352" sketch:type="MSShapeGroup"/><path d="M33.987343,80.1913945 L30.6529523,83.1440013 C32.527858,85.2610553 34.9077889,87.0877198 37.7273555,88.5731156 L39.8031407,84.6327889 C37.4611809,83.3988693 35.5042085,81.9045226 33.987343,80.1913945" sketch:type="MSShapeGroup"/><path d="M74.6357412,62.7639761 C74.053549,59.8762877 72.9736809,57.0936558 71.4262877,54.4932475 L67.5992148,56.7709485 C68.8888191,58.9380339 69.7874058,61.2505025 70.2700063,63.6440013 L74.6357412,62.7639761" sketch:type="MSShapeGroup"/><path d="M31.0925879,47.9585427 L31.0935302,47.9585427 C33.5799309,47.9585427 36.0234611,47.6104899 37.8743405,47.3239636 L37.1928392,42.9 C35.3945352,43.1783291 33.2637249,43.4359296 31.0935302,43.4359296 L31.0927764,43.4359296 C30.6800879,43.4359296 30.2722048,43.4417714 29.8808103,43.4214196 C29.7729271,43.4154837 29.6657977,43.4184987 29.5591394,43.4111495 L29.2542399,47.8571608 C29.3841709,47.8659234 29.5149497,47.8948492 29.6467651,47.9017274 C30.115892,47.926696 30.6024497,47.9585427 31.0925879,47.9585427" sketch:type="MSShapeGroup"/><path d="M18.4711997,37.6521671 L14.9108668,40.3276696 C16.8244975,42.8742776 19.2211055,44.8155151 22.0339824,46.0976759 L23.8811872,42.0452261 C21.7531093,41.0751256 19.9328518,39.5971734 18.4711997,37.6521671" sketch:type="MSShapeGroup"/><path d="M50.8425565,45.992054 C51.200691,46.0225817 51.5678706,46.0656407 51.9334485,46.1204774 L52.59375,41.716206 C52.1346106,41.647142 51.6719849,41.5928706 51.2198178,41.5544284 C50.5028894,41.4935616 49.753549,41.4625628 48.9922425,41.4625628 C47.4374058,41.4625628 45.7986181,41.5845791 43.8357098,41.8468907 L44.4255339,46.2612437 C46.1882224,46.025691 47.6393216,45.9160176 48.9922425,45.9160176 C49.6280465,45.9160176 50.2503769,45.9416457 50.8425565,45.992054" sketch:type="MSShapeGroup"/><path d="M63.5265075,82.2198807 C61.957255,83.4505967 60.2825691,84.4786432 58.5484296,85.2747173 L60.4067525,89.3220791 C62.4573807,88.3805276 64.4319724,87.1697864 66.2752198,85.7240578 C66.7917399,85.318907 67.294598,84.8911432 67.7698492,84.4526382 L64.7499686,81.179397 C64.3616834,81.5375314 63.9500314,81.887657 63.5265075,82.2198807" sketch:type="MSShapeGroup"/><path d="M70.569441,69.6192211 C70.3139133,72.0747173 69.5920854,74.3949121 68.4238379,76.5151696 L72.3247802,78.6641646 C73.7819095,76.0192839 74.6816269,73.1312186 74.9990578,70.080245 L70.569441,69.6192211" sketch:type="MSShapeGroup"/><path d="M49.7424309,87.2584485 C48.3111181,87.2583543 46.8776382,87.1000628 45.4823178,86.787343 L44.5092023,91.1334799 C46.2233668,91.5174309 47.9840766,91.7120917 49.7423367,91.7121859 C50.9701319,91.7121859 52.2150754,91.6168342 53.4424937,91.4288631 L52.7681533,87.0265704 C51.7632852,87.1804334 50.7452261,87.2584485 49.7424309,87.2584485" sketch:type="MSShapeGroup"/><path d="M66.8961369,48.7976759 C64.7970791,46.8211997 62.263191,45.1129711 59.5682789,43.8575691 L57.6876256,47.8946608 C59.9572236,48.9519158 62.0855842,50.3853015 63.8429962,52.0401068 L66.8961369,48.7976759" sketch:type="MSShapeGroup"/><path d="M28.7298995,68.9451633 C28.7298995,68.8261621 28.7351759,68.781407 28.7449749,68.5929648 L24.2836055,68.5929648 C24.2792714,68.781407 24.2762563,68.8321922 24.2762563,68.9451633 C24.2762563,71.6861495 25.5902638,74.8812814 26.6925565,77.072299 L30.6710427,75.0664259 C29.4374058,72.6146043 28.7298995,70.3808103 28.7298995,68.9451633" sketch:type="MSShapeGroup"/></g></g><text x="0" y="115" fill="#000000" font-size="5px" font-weight="bold" font-family="'Helvetica Neue', Helvetica, Arial-Unicode, Arial, Sans-serif">Created by Nick Kinling</text><text x="0" y="120" fill="#000000" font-size="5px" font-weight="bold" font-family="'Helvetica Neue', Helvetica, Arial-Unicode, Arial, Sans-serif">from the Noun Project</text></svg>