<svg xmlns="http://www.w3.org/2000/svg" xmlns:xlink="http://www.w3.org/1999/xlink" version="1.1" x="0px" y="0px" viewBox="0 0 100 125" enable-background="new 0 0 100 100" xml:space="preserve"><g><path d="M8.873,96.818c30.654-0.249,55.295-25.295,55.045-55.945c0-0.262-0.008-0.523-0.016-0.785l9.382-0.211L61.569,25.011   L50.523,40.389l9.379-0.211c0.005,0.24,0.013,0.485,0.013,0.729c0.236,28.438-22.634,51.68-51.076,51.911"/></g><g><line x1="8.839" y1="92.818" x2="8.873" y2="96.818"/></g><path d="M39.724,20.417c0,4.227-3.425,7.653-7.648,7.653c-4.231,0-7.657-3.426-7.657-7.653c0-4.223,3.426-7.648,7.657-7.648  C36.299,12.768,39.724,16.194,39.724,20.417L39.724,20.417z M47.609,20.417c0-8.581-6.958-15.533-15.534-15.533  c-8.589,0-15.542,6.953-15.542,15.533c0,8.582,6.952,15.538,15.542,15.538C40.652,35.955,47.609,28.998,47.609,20.417L47.609,20.417  z"/><g><polygon points="5.211,47.417 11.542,40.527 20.272,48.552 28.295,39.823 35.181,46.159 27.156,54.884 35.885,62.912    29.557,69.802 20.824,61.773 12.796,70.502 5.919,64.17 13.935,55.44  "/></g><g><polygon points="65.594,61.457 71.918,54.567 80.654,62.596 88.68,53.867 95.568,60.199 87.543,68.928 96.269,76.952    89.932,83.842 81.207,75.817 73.184,84.541 66.294,78.209 74.318,69.48  "/></g><text x="0" y="115" fill="#000000" font-size="5px" font-weight="bold" font-family="'Helvetica Neue', Helvetica, Arial-Unicode, Arial, Sans-serif">Created by Aldric Rodríguez</text><text x="0" y="120" fill="#000000" font-size="5px" font-weight="bold" font-family="'Helvetica Neue', Helvetica, Arial-Unicode, Arial, Sans-serif">from the Noun Project</text></svg>