<svg xmlns="http://www.w3.org/2000/svg" viewBox="0 0 76.86 112.5" x="0px" y="0px"><title>life cycle</title><g data-name="Layer 3"><path data-name="life cycle" d="M85.68,64.67a5.68,5.68,0,0,0-1.14-.49,33.68,33.68,0,0,0-.8-25.45,2.75,2.75,0,0,0-2.54-4.66A33.87,33.87,0,0,0,69.27,22.93c.05-.52.08-1,.08-1.58a16.32,16.32,0,1,0-32.64,0c0,.53,0,1.06.07,1.58a33.44,33.44,0,0,0-5.13,3.5A13.77,13.77,0,0,0,18.45,50.57c.33.19.65.36,1,.52,0,.44,0,.89,0,1.33a33.65,33.65,0,0,0,1.35,9.47,11,11,0,0,0,11.16,19,11.25,11.25,0,0,0,1.54-1.08,33.45,33.45,0,0,0,13.6,5.78A8,8,0,0,0,47,86.73a8.25,8.25,0,1,0,16.5,0,8.37,8.37,0,0,0-.3-2.19,33.73,33.73,0,0,0,16.06-11,5.43,5.43,0,0,0,.95.7,5.51,5.51,0,0,0,5.5-9.55ZM63.1,84.28a8.25,8.25,0,0,0-16,1,33.2,33.2,0,0,1-13.42-5.69A11,11,0,0,0,21,61.75a33.34,33.34,0,0,1-1.33-9.33c0-.4,0-.8,0-1.2a13.77,13.77,0,0,0,12.49-24.5l-.27-.15a33.54,33.54,0,0,1,4.9-3.34,16.31,16.31,0,0,0,32.42,0,33.63,33.63,0,0,1,11.7,10.92,2.61,2.61,0,0,0-.47.22,2.75,2.75,0,1,0,2.75,4.77,2.54,2.54,0,0,0,.32-.22,33.48,33.48,0,0,1,.75,25.19A5.5,5.5,0,0,0,79,73.32,33.45,33.45,0,0,1,63.1,84.28Z" transform="translate(-11.57 -5)"/></g><text x="0" y="105" fill="#000000" font-size="5px" font-weight="bold" font-family="'Helvetica Neue', Helvetica, Arial-Unicode, Arial, Sans-serif">Created by Jae Aquino</text><text x="0" y="110" fill="#000000" font-size="5px" font-weight="bold" font-family="'Helvetica Neue', Helvetica, Arial-Unicode, Arial, Sans-serif">from the Noun Project</text></svg>