<svg xmlns="http://www.w3.org/2000/svg" xmlns:xlink="http://www.w3.org/1999/xlink" version="1.1" x="0px" y="0px" viewBox="0 0 200 250" style="enable-background:new 0 0 200 200;" xml:space="preserve"><style type="text/css">
	.st0{fill:#FFFFFF;stroke:#000000;stroke-width:4;stroke-linecap:round;stroke-miterlimit:10;}
</style><path class="st0" d="M1059,201.7"/><g><path d="M83,82h-1.3c1.4-2.1,2.2-4.6,2.2-7.3c0-7.3-6-13.3-13.5-13.3S57,67.4,57,74.7c0,1.1,0.1,2.1,0.4,3.1L38,54.9   c-2.6-3.1-7.2-3.5-10.4-0.9C26,55.4,25,57.4,25,59.6c0,1.7,0.6,3.4,1.7,4.7l26.8,31.6v48.8c0,1.7,1.3,3,3,3s3-1.3,3-3V94.8   c0-0.7-0.3-1.4-0.7-1.9L31.3,60.4c-0.2-0.2-0.3-0.5-0.3-0.8c0-0.3,0.1-0.7,0.5-1c0.6-0.5,1.5-0.4,2,0.2L57.3,87   c0,0,0.1,0.1,0.1,0.1c0.1,0.1,0.1,0.1,0.2,0.2c0.1,0.1,0.1,0.1,0.2,0.2c0.1,0.1,0.2,0.1,0.2,0.2c0.1,0.1,0.2,0.1,0.3,0.1   c0.1,0,0.2,0.1,0.3,0.1c0.1,0,0.2,0.1,0.3,0.1c0.1,0,0.2,0,0.3,0c0.1,0,0.2,0,0.3,0c0,0,0.1,0,0.1,0H83c4.2,0,7.6,3.4,7.6,7.6v36.2   c0,0.9-0.7,1.6-1.5,1.6c-0.5,0-0.9-0.2-1.2-0.6c-0.1-0.1-0.2-0.2-0.4-0.4v-31.9c0-1.7-1.3-3-3-3s-3,1.3-3,3v44.2c0,1.7,1.3,3,3,3   s3-1.3,3-3v-5.5c0.5,0.1,1,0.2,1.5,0.2c4.2,0,7.5-3.4,7.5-7.6V95.6C96.6,88.1,90.5,82,83,82z M70.5,67.4c4.1,0,7.5,3.3,7.5,7.3   c0,4-3.4,7.3-7.5,7.3S63,78.8,63,74.7C63,70.7,66.4,67.4,70.5,67.4z"/><path d="M121.8,82h-1.3c1.4-2.1,2.2-4.6,2.2-7.3c0-7.3-6-13.3-13.5-13.3s-13.5,6-13.5,13.3c0,7.3,6,13.3,13.5,13.3h12.5   c4.2,0,7.6,3.4,7.6,7.6v36.2c0,0.9-0.7,1.6-1.5,1.6c-0.5,0-0.9-0.2-1.2-0.6c-0.1-0.1-0.2-0.2-0.4-0.4v-31.9c0-1.7-1.3-3-3-3   s-3,1.3-3,3v44.2c0,1.7,1.3,3,3,3s3-1.3,3-3v-5.5c0.5,0.1,1,0.2,1.5,0.2c4.2,0,7.5-3.4,7.5-7.6V95.6C135.3,88.1,129.3,82,121.8,82z    M101.8,74.7c0-4,3.4-7.3,7.5-7.3c4.1,0,7.5,3.3,7.5,7.3c0,4-3.4,7.3-7.5,7.3C105.2,82,101.8,78.8,101.8,74.7z"/><path d="M161.4,82h-1.3c1.4-2.1,2.2-4.6,2.2-7.3c0-7.3-6-13.3-13.5-13.3c-7.4,0-13.5,6-13.5,13.3c0,7.3,6,13.3,13.5,13.3h12.5   c4.2,0,7.6,3.4,7.6,7.6v36.2c0,0.9-0.7,1.6-1.5,1.6c-0.5,0-0.9-0.2-1.2-0.6c-0.1-0.1-0.2-0.2-0.4-0.4v-31.9c0-1.7-1.3-3-3-3   c-1.7,0-3,1.3-3,3v44.2c0,1.7,1.3,3,3,3c1.7,0,3-1.3,3-3v-5.5c0.5,0.1,1,0.2,1.5,0.2c4.2,0,7.5-3.4,7.5-7.6V95.6   C175,88.1,168.9,82,161.4,82z M141.5,74.7c0-4,3.4-7.3,7.5-7.3c4.1,0,7.5,3.3,7.5,7.3c0,4-3.4,7.3-7.5,7.3   C144.8,82,141.5,78.8,141.5,74.7z"/></g><text x="0" y="215" fill="#000000" font-size="5px" font-weight="bold" font-family="'Helvetica Neue', Helvetica, Arial-Unicode, Arial, Sans-serif">Created by Symbolon</text><text x="0" y="220" fill="#000000" font-size="5px" font-weight="bold" font-family="'Helvetica Neue', Helvetica, Arial-Unicode, Arial, Sans-serif">from the Noun Project</text></svg>