<svg xmlns="http://www.w3.org/2000/svg" xmlns:xlink="http://www.w3.org/1999/xlink" version="1.1" x="0px" y="0px" viewBox="0 0 100 125" enable-background="new 0 0 100 100" xml:space="preserve"><path d="M89,50c0-6.264-1.485-12.178-4.109-17.423V23c0-4.4-3.6-8-8-8h-9.682c-5.191-2.558-11.03-4-17.209-4s-12.018,1.442-17.209,4  h-9.9c-4.4,0-8,3.6-8,8v10.004C12.399,38.142,11,43.907,11,50s1.399,11.858,3.891,16.996V77c0,4.4,3.6,8,8,8h9.9  c5.191,2.558,11.03,4,17.209,4s12.018-1.442,17.209-4h9.682c4.4,0,8-3.6,8-8v-9.577C87.515,62.178,89,56.264,89,50z M79.028,67.684  l-4.313-2.995c-0.34-0.236-0.808-0.151-1.044,0.188s-0.151,0.808,0.188,1.044l4.358,3.025c-0.633,0.94-1.312,1.847-2.033,2.717  l-2.408-1.979c-0.32-0.263-0.793-0.217-1.056,0.104c-0.264,0.32-0.217,0.793,0.103,1.056l2.379,1.954  c-0.819,0.905-1.689,1.762-2.601,2.574l-3.317-3.602c-0.281-0.305-0.755-0.323-1.06-0.043c-0.305,0.281-0.324,0.755-0.044,1.06  l3.28,3.562c-0.961,0.784-1.969,1.513-3.014,2.19l-2.096-3.377c-0.219-0.353-0.682-0.46-1.033-0.242  c-0.352,0.219-0.46,0.681-0.242,1.033l2.095,3.375c-1.086,0.639-2.211,1.218-3.37,1.734l-1.437-3.903  c-0.144-0.389-0.574-0.587-0.963-0.444c-0.389,0.144-0.588,0.574-0.445,0.963l1.46,3.966c-1.585,0.624-3.227,1.132-4.916,1.514  v-13.56c5.557-2.129,9.968-6.54,12.097-12.097h13.56c-0.422,1.863-0.992,3.67-1.706,5.403l-2.624-1.249  c-0.374-0.178-0.821-0.019-1,0.355c-0.178,0.374-0.019,0.821,0.355,0.999l2.665,1.268C80.302,65.449,79.698,66.588,79.028,67.684z   M30.403,42.5h-13.56c2.88-12.735,12.921-22.776,25.656-25.656v13.56C36.943,32.532,32.532,36.943,30.403,42.5z M16,50  c0-1.526,0.111-3.026,0.307-4.5h13.188C29.179,46.951,29,48.454,29,50s0.179,3.049,0.495,4.5H16.307C16.111,53.026,16,51.526,16,50z   M16.844,57.5h13.56c2.129,5.557,6.54,9.968,12.097,12.097v13.56C29.765,80.276,19.724,70.235,16.844,57.5z M32,50  c0-9.926,8.075-18,18-18s18,8.074,18,18s-8.075,18-18,18S32,59.926,32,50z M70.505,45.5h13.188C83.889,46.974,84,48.474,84,50  s-0.111,3.026-0.307,4.5H70.505C70.821,53.049,71,51.546,71,50S70.821,46.951,70.505,45.5z M69.597,42.5  c-2.129-5.557-6.54-9.968-12.097-12.097v-13.56c12.735,2.88,22.776,12.921,25.656,25.656H69.597z M76.891,18c2.757,0,5,2.243,5,5  v4.563c-2.622-3.72-5.875-6.959-9.608-9.563H76.891z M54.5,16.307v13.189C53.049,29.179,51.546,29,50,29s-3.049,0.179-4.5,0.496  V16.307C46.974,16.111,48.474,16,50,16S53.026,16.111,54.5,16.307z M17.891,23c0-2.757,2.243-5,5-5h4.827  c-3.837,2.676-7.169,6.021-9.827,9.871V23z M22.891,82c-2.757,0-5-2.243-5-5v-4.871c2.658,3.85,5.99,7.195,9.827,9.871H22.891z   M45.5,83.693V70.504C46.951,70.821,48.454,71,50,71s3.049-0.179,4.5-0.496v13.189C53.026,83.889,51.526,84,50,84  S46.974,83.889,45.5,83.693z M81.891,77c0,2.757-2.243,5-5,5h-4.608c3.733-2.604,6.986-5.844,9.608-9.563V77z"/><text x="0" y="115" fill="#000000" font-size="5px" font-weight="bold" font-family="'Helvetica Neue', Helvetica, Arial-Unicode, Arial, Sans-serif">Created by Tomas Knopp</text><text x="0" y="120" fill="#000000" font-size="5px" font-weight="bold" font-family="'Helvetica Neue', Helvetica, Arial-Unicode, Arial, Sans-serif">from the Noun Project</text></svg>