<?xml version="1.0" encoding="UTF-8" standalone="no"?>
<svg
   xmlns:dc="http://purl.org/dc/elements/1.1/"
   xmlns:cc="http://creativecommons.org/ns#"
   xmlns:rdf="http://www.w3.org/1999/02/22-rdf-syntax-ns#"
   xmlns:svg="http://www.w3.org/2000/svg"
   xmlns="http://www.w3.org/2000/svg"
   xmlns:sodipodi="http://sodipodi.sourceforge.net/DTD/sodipodi-0.dtd"
   xmlns:inkscape="http://www.inkscape.org/namespaces/inkscape"
   data-name="Layer 1"
   viewBox="0 0 100 125"
   x="0px"
   y="0px"
   version="1.1"
   id="svg10"
   sodipodi:docname="about.svg"
   inkscape:version="0.92.3 (2405546, 2018-03-11)">
  <metadata
     id="metadata16">
    <rdf:RDF>
      <cc:Work
         rdf:about="">
        <dc:format>image/svg+xml</dc:format>
        <dc:type
           rdf:resource="http://purl.org/dc/dcmitype/StillImage" />
      </cc:Work>
    </rdf:RDF>
  </metadata>
  <defs
     id="defs14" />
  <sodipodi:namedview
     pagecolor="#ffffff"
     bordercolor="#666666"
     borderopacity="1"
     objecttolerance="10"
     gridtolerance="10"
     guidetolerance="10"
     inkscape:pageopacity="0"
     inkscape:pageshadow="2"
     inkscape:window-width="1920"
     inkscape:window-height="1001"
     id="namedview12"
     showgrid="false"
     inkscape:zoom="1.888"
     inkscape:cx="50"
     inkscape:cy="62.5"
     inkscape:window-x="-9"
     inkscape:window-y="-9"
     inkscape:window-maximized="1"
     inkscape:current-layer="svg10" />
  <title
     id="title2">Artboard 3</title>
  <path
     d="M 99.789661,7.4693144 V 90.263036 A 16.970516,23.41035 0 0 1 85.932259,113.25509 L 27.925238,126.25 a 4.9324667,6.8041994 0 0 1 -3.82064,-2.50975 5.0537569,6.9715158 0 0 1 -1.091612,-4.46177 v -15.51859 a 0.78838607,1.0875565 0 0 1 0.909677,-1.05967 26.926417,37.144236 0 0 0 7.995043,0 0.78838607,1.0875565 0 0 1 0.909677,1.05967 v 4.90795 L 68.638304,84.197817 a 4.9021442,6.7623703 0 0 1 7.07526,6.093105 7.1359048,9.8437803 0 0 0 7.782785,9.760118 7.3178399,10.094755 0 0 0 6.458701,-10.178409 V 14.245628 H 32.817275 v 14.403151 a 0.78838607,1.0875565 0 0 1 -0.909676,1.073614 26.815234,36.990863 0 0 0 -7.995044,0 0.78838607,1.0875565 0 0 1 -0.909676,-1.073614 V 7.4693144 A 4.9122517,6.7763133 0 0 1 27.925238,0.76271613 H 94.887517 A 4.9122517,6.7763133 0 0 1 99.789661,7.4693144 Z M 1.6760247,102.40742 a 5.0537569,6.9715158 0 0 1 0,-9.843784 L 10.894077,79.847591 a 19.669221,27.133139 0 1 1 30.918885,5.577213 v 0 A 19.699545,27.174968 0 0 1 18.04009,89.677428 L 8.8220369,102.40742 a 5.0537569,6.9715158 0 0 1 -7.1359048,0 z M 21.132989,75.567081 a 9.5819231,13.217994 0 1 0 0,-18.697606 9.5920306,13.231937 0 0 0 0,18.697606 z M 78.594204,26.390008 H 44.228658 a 3.7397803,5.158922 0 0 0 0,10.317844 h 34.365546 a 3.7397803,5.158922 0 1 0 0,-10.317844 z m 0,20.147681 H 54.95273 a 3.7397801,5.1589217 0 0 0 0,10.317843 h 23.641474 a 3.7397801,5.1589217 0 1 0 0,-10.317843 z m 0,20.091908 H 56.852943 a 3.7397803,5.158922 0 0 0 0,10.317844 h 21.741261 a 3.7397803,5.158922 0 1 0 0,-10.317844 z"
     id="path4"
     inkscape:connector-curvature="0"
     style="stroke-width:1.18713689" />
</svg>
