<?xml version="1.0" encoding="UTF-8" standalone="no"?>
<svg
   xmlns:dc="http://purl.org/dc/elements/1.1/"
   xmlns:cc="http://creativecommons.org/ns#"
   xmlns:rdf="http://www.w3.org/1999/02/22-rdf-syntax-ns#"
   xmlns:svg="http://www.w3.org/2000/svg"
   xmlns="http://www.w3.org/2000/svg"
   xmlns:sodipodi="http://sodipodi.sourceforge.net/DTD/sodipodi-0.dtd"
   xmlns:inkscape="http://www.inkscape.org/namespaces/inkscape"
   version="1.0"
   width="437.000000pt"
   height="432.000000pt"
   viewBox="0 0 437.000000 432.000000"
   preserveAspectRatio="xMidYMid meet"
   id="svg8"
   sodipodi:docname="beginning.svg"
   inkscape:version="0.92.3 (2405546, 2018-03-11)">
  <defs
     id="defs12" />
  <sodipodi:namedview
     pagecolor="#ffffff"
     bordercolor="#666666"
     borderopacity="1"
     objecttolerance="10"
     gridtolerance="10"
     guidetolerance="10"
     inkscape:pageopacity="0"
     inkscape:pageshadow="2"
     inkscape:window-width="1920"
     inkscape:window-height="1001"
     id="namedview10"
     showgrid="false"
     inkscape:zoom="0.40972222"
     inkscape:cx="291.33333"
     inkscape:cy="288"
     inkscape:window-x="-9"
     inkscape:window-y="-9"
     inkscape:window-maximized="1"
     inkscape:current-layer="svg8" />
  <metadata
     id="metadata2">
Created by potrace 1.15, written by Peter Selinger 2001-2017
<rdf:RDF>
  <cc:Work
     rdf:about="">
    <dc:format>image/svg+xml</dc:format>
    <dc:type
       rdf:resource="http://purl.org/dc/dcmitype/StillImage" />
  </cc:Work>
</rdf:RDF>
</metadata>
  <g
     transform="matrix(0.11880597,0,0,-0.11682032,-37.390095,472.38381)"
     id="g6"
     style="fill:#000000;stroke:none">
    <path
       d="M 2045,4029 C 1239,3976 555,3385 376,2588 287,2190 339,1750 520,1375 766,865 1243,492 1800,372 c 436,-94 928,-15 1313,212 272,159 505,389 658,646 239,399 315,844 224,1298 -188,929 -1011,1564 -1950,1501 z m 479,-174 c 273,-58 496,-162 711,-330 92,-72 240,-222 306,-310 342,-453 438,-1055 253,-1586 -32,-94 -123,-292 -143,-312 -4,-4 -33,11 -64,33 -138,99 -177,96 -386,-29 -180,-108 -219,-125 -286,-125 -64,0 -114,20 -250,104 -128,79 -202,112 -244,112 -53,-1 -86,-20 -205,-114 -113,-90 -162,-118 -207,-118 -34,0 -104,32 -211,98 -204,125 -226,125 -403,-9 -104,-78 -144,-99 -193,-99 -52,0 -86,17 -237,116 -126,83 -189,108 -247,99 -43,-8 -44,-7 -114,167 -77,192 -112,359 -121,578 -14,358 81,695 282,995 119,179 218,285 395,422 203,157 487,279 742,317 161,24 163,24 338,20 127,-3 192,-9 284,-29 z"
       id="path4"
       inkscape:connector-curvature="0" />
  </g>
</svg>
