<?xml version="1.0" encoding="UTF-8" standalone="no"?>
<svg
   xmlns:dc="http://purl.org/dc/elements/1.1/"
   xmlns:cc="http://creativecommons.org/ns#"
   xmlns:rdf="http://www.w3.org/1999/02/22-rdf-syntax-ns#"
   xmlns:svg="http://www.w3.org/2000/svg"
   xmlns="http://www.w3.org/2000/svg"
   xmlns:sodipodi="http://sodipodi.sourceforge.net/DTD/sodipodi-0.dtd"
   xmlns:inkscape="http://www.inkscape.org/namespaces/inkscape"
   version="1.1"
   x="0px"
   y="0px"
   viewBox="0 0 100 125"
   enable-background="new 0 0 100 100"
   xml:space="preserve"
   id="svg8"
   sodipodi:docname="bios.svg"
   inkscape:version="0.92.3 (2405546, 2018-03-11)"><metadata
     id="metadata14"><rdf:RDF><cc:Work
         rdf:about=""><dc:format>image/svg+xml</dc:format><dc:type
           rdf:resource="http://purl.org/dc/dcmitype/StillImage" /></cc:Work></rdf:RDF></metadata><defs
     id="defs12" /><sodipodi:namedview
     pagecolor="#ffffff"
     bordercolor="#666666"
     borderopacity="1"
     objecttolerance="10"
     gridtolerance="10"
     guidetolerance="10"
     inkscape:pageopacity="0"
     inkscape:pageshadow="2"
     inkscape:window-width="1920"
     inkscape:window-height="1001"
     id="namedview10"
     showgrid="false"
     inkscape:zoom="1.888"
     inkscape:cx="50"
     inkscape:cy="62.5"
     inkscape:window-x="-9"
     inkscape:window-y="-9"
     inkscape:window-maximized="1"
     inkscape:current-layer="svg8" /><path
     d="M 96.822977,66.315885 C 96.497062,65.651314 96.209632,65.034926 95.969105,64.486655 94.321492,60.73183 92.697932,57.492049 90.821819,53.737225 89.583102,51.2617 88.189246,48.470503 86.54043,45.064578 l 1.010215,-2.625053 c 1.864088,-4.851365 0.505108,-10.900619 -3.006592,-13.457555 -3.5117,-2.576872 -7.877273,-0.716075 -9.742562,4.13529 l -0.805767,2.095059 c -0.525553,-0.132914 -1.027052,-0.247552 -1.494879,-0.330623 0.396871,-2.086752 0.988569,-3.99573 1.603116,-5.972828 0.992175,-3.143419 2.018024,-6.403138 2.159936,-10.423791 0.271795,-7.59438 -2.650612,-15.4928011 -8.703485,-17.1376134 -0.555617,-0.1661426 -1.152126,-0.2691509 -1.76547,-0.312348 -0.614548,-0.0382129 -1.209854,-0.00997 -1.772688,0.073103 -6.123827,0.8356976 -9.5778,8.2988252 -9.852002,15.9098194 -0.129885,4.04059 0.66145,7.416608 1.414301,10.66802 0.506311,2.163176 0.981352,4.244944 1.212258,6.4995 -2.286213,0.699461 -6.497848,2.232957 -10.412431,4.931113 -3.499674,2.425683 -5.712526,10.101474 -7.58864,18.026478 l -0.252554,1.079927 c -0.276607,1.162999 -0.541187,2.176468 -0.77089,3.106867 -1.419111,5.632236 -2.068536,8.205786 -0.395667,13.175112 2.079359,6.147279 8.260913,14.869768 8.561572,15.301739 1.695718,2.226311 3.332507,4.28648 4.883909,5.916339 v 0.01661 l -1.563428,4.087109 c -0.01322,0.01661 -0.01322,0.03323 -0.01322,0.03323 -0.02405,0.06646 -0.03488,0.116301 -0.06013,0.182758 0,0.0166 -0.01203,0.0332 -0.01203,0.0665 -0.03608,0.13291 -0.06013,0.28244 -0.07216,0.43197 l -1.672871,19.22271 v 0.002 H -0.23223729 v 4.98433 H 48.389176 c 0.144316,0 0.281416,-0.0299 0.417315,-0.0731 0.291037,-0.0349 0.579671,-0.16449 0.814185,-0.44527 l 12.050423,-14.50259 c 0.156342,-0.18275 0.276607,-0.41535 0.361994,-0.64795 L 73.157486,80.039705 c 2.573643,1.096541 17.69079,6.944762 20.456855,6.944762 2.488257,0 4.689082,-0.980241 5.86887,-4.037266 2.390839,-6.163892 -0.65183,-12.460699 -2.660234,-16.630879 z m -0.517134,14.286606 c -1.130479,2.890881 -7.167717,0.531657 -10.0793,-0.596452 -0.49188,-0.199371 -0.950084,-0.382129 -1.358981,-0.531656 -4.028834,-1.47867 -7.34691,-2.791197 -10.004737,-3.906014 -1.046294,-0.448586 -1.996378,-0.863942 -2.85025,-1.227795 -1.383032,-0.614728 -2.513511,-1.146383 -3.428719,-1.578354 -1.778699,-0.847329 -3.331304,-1.827569 -4.557994,-2.824425 -1.033065,-0.847328 -1.838832,-1.711269 -2.343939,-2.541984 -0.228501,-0.365513 -0.410099,-0.729366 -0.518337,-1.078265 -0.168369,-0.531657 -0.156342,-0.980242 0.01323,-1.511897 0.565239,-1.711271 1.237514,-2.209699 1.694515,-2.442298 0.252554,-0.132914 0.52916,-0.199371 0.82982,-0.234261 0.889951,-0.114633 1.948272,0.167804 3.066724,0.664571 1.731797,0.747642 3.583859,1.993711 5.136463,3.023796 0.96211,0.647957 1.864087,1.246069 2.705934,1.744497 0.204447,0.114632 0.408896,0.232601 0.601318,0.332285 0.721582,0.380467 1.455191,0.745981 2.176773,1.09488 3.933826,1.895689 7.58864,3.357743 7.769035,3.4242 0.950084,0.365515 1.948272,-0.398742 2.224879,-1.711269 0.276606,-1.329141 -0.275405,-2.708125 -1.237513,-3.088592 -0.02525,0 -0.781714,-0.300717 -1.973528,-0.814098 -1.310875,-0.548271 -3.149706,-1.36237 -5.075128,-2.292769 l 1.829211,-4.736727 v -0.01661 l 3.704122,-9.686117 c 1.202637,2.458912 2.247728,4.568923 3.223067,6.512792 1.92422,3.821282 3.438339,6.861692 5.027023,10.500216 0.26458,0.596451 0.589292,1.279298 0.938057,1.993711 1.634383,3.371034 3.859261,7.991462 2.488255,11.528637 z M 73.042032,46.405349 c 4.134666,0.67454 6.542345,3.704981 7.589842,5.412928 l -0.476243,1.242748 c -1.303659,-1.902333 -3.755836,-4.558956 -7.628327,-5.308258 z m -1.12206,2.929096 c 4.103397,0.611405 6.533927,3.533853 7.636746,5.281674 l -0.460611,1.19955 v 0.01661 l -2.790118,7.295323 c -0.817793,-0.433632 -1.790726,-1.096541 -2.826197,-1.79434 -1.551401,-1.046698 -3.259147,-2.17813 -5.002969,-3.008843 z m 5.275969,-13.856298 0.02525,0.01828 0.179193,-0.4652 c 1.106426,-2.890881 3.692095,-3.987423 5.772657,-2.45891 2.080562,1.511897 2.88633,5.100578 1.779903,7.976507 l -0.372817,0.996857 h -0.01324 l -0.372818,0.980241 -0.336738,0.880556 -0.179193,0.4652 -0.915206,2.37584 -0.383642,1.013469 -0.877925,2.29277 -0.270593,0.702783 c -1.262769,-1.88572 -3.704122,-4.608797 -7.58864,-5.414589 l 0.05292,-0.139558 h -0.01203 l 0.121467,-0.332286 1.429936,-3.738209 0.865899,-2.276154 0.867101,-2.276156 z M 57.720437,17.255622 c 0.191219,-5.617283 2.756444,-11.5718352 7.906135,-11.2329041 5.149692,0.3405923 7.278359,6.6058311 7.087141,12.2231141 -0.108239,3.125143 -0.966921,5.805024 -1.865291,8.647725 -0.815387,2.611762 -1.678881,5.525905 -2.097399,8.999948 -0.01322,0.03489 -0.03367,0.06147 -0.0457,0.09969 -0.03608,0.149528 -0.07336,0.314009 -0.09621,0.481813 -0.03608,0.232601 -0.03608,0.463539 -0.02525,0.6978 v 0.01661 c 0.07336,1.063314 0.649424,1.993713 1.468419,2.193083 0.372818,0.09969 0.840645,0.199372 1.38183,0.299058 0.07336,0.01661 0.156344,0.03489 0.228502,0.04984 0.179193,0.03323 0.360791,0.08308 0.565239,0.114633 l -0.227301,0.598113 -6.446135,16.846865 c -1.35898,-0.282442 -2.681881,-0.232599 -3.908571,0.382129 -1.659638,0.830713 -2.922408,2.541982 -3.752227,5.06735 -0.589292,1.79434 -0.601318,3.721595 -0.03608,5.53255 0.422125,1.378984 1.142505,2.608439 2.056509,3.721596 l -2.862276,7.459804 c -2.729986,-4.984278 -6.867057,-13.540626 -6.915163,-13.64031 -0.204448,-0.415358 -0.469028,-0.716076 -0.769688,-0.880556 -0.541187,-0.348901 -1.202637,-0.299058 -1.731797,0.19937 -0.828617,0.764256 -1.058321,2.309383 -0.505107,3.455767 0.204448,0.415356 5.028225,10.36564 7.757008,15.168824 l 0.144317,0.247552 c 0.06013,0.101343 0.120263,0.199372 0.168369,0.300719 0.793741,1.395598 1.431138,2.606778 1.912193,3.688367 1.106426,2.492139 1.346953,4.236637 0.43295,5.682078 -0.312687,0.498428 -0.576064,0.564885 -0.805768,0.5815 -0.03608,0.01828 -0.06013,0.01828 -0.08418,0.01828 -0.469029,0 -1.046295,-0.265829 -1.671666,-0.716075 -0.757661,-0.548271 -1.599507,-1.378984 -2.453379,-2.292769 -1.467217,-1.626536 -2.946461,-3.555452 -4.052886,-5.017508 -0.06013,-0.08308 -6.013186,-8.474936 -7.829168,-13.839682 -1.023444,-3.057024 -0.829819,-4.037266 0.527958,-9.453516 0.240527,-0.930399 0.505107,-1.975437 0.79374,-3.155049 l 0.265783,-1.113157 c 0.853872,-3.638524 3.126856,-13.291411 5.759428,-15.104028 3.740202,-2.57521 7.890502,-4.037266 9.897704,-4.633718 0.745634,-0.217647 1.19061,-0.31567 1.202637,-0.31567 0.986162,-0.232601 1.647612,-1.528513 1.49127,-2.874269 -0.02525,-0.206017 -0.07456,-0.397081 -0.131088,-0.581499 -0.188815,-3.440815 -0.85748,-6.403138 -1.482852,-9.083019 -0.692719,-2.924111 -1.358979,-5.713645 -1.251944,-8.840449 z m -3.63918,96.211548 -2.958487,-2.15986 0.733608,-8.40848 c 0.360791,0.0831 0.732406,0.19938 1.118453,0.3489 0.01203,0 0.02405,0.0183 0.04811,0.0183 0.745635,0.28244 1.575455,0.74598 2.513512,1.44377 0.962109,0.69947 1.707744,1.37899 2.297036,2.07679 0.01203,0.0183 0.02405,0.0349 0.03608,0.0349 0.30066,0.3489 0.576063,0.71441 0.828617,1.09654 z m 6.361949,-8.90691 c -0.2285,-0.29906 -0.457001,-0.5815 -0.709555,-0.86394 -0.757662,-0.89717 -1.672868,-1.7445 -2.814171,-2.57521 -1.142505,-0.83072 -2.165949,-1.413877 -3.128059,-1.762776 -0.300659,-0.132913 -0.601318,-0.232599 -0.901977,-0.332285 l 0.422125,-1.09488 c 1.154531,0.847328 2.272984,1.329141 3.355357,1.329141 0.08298,0 0.156343,-0.01828 0.227298,-0.01828 1.298848,-0.08308 2.465407,-0.878895 3.355359,-2.292769 2.982539,-4.701837 0.853872,-10.035016 -1.22669,-13.939369 L 62.34217,74.35386 c 1.634385,1.312528 3.451569,2.342612 5.063103,3.106869 0.901978,0.431971 1.864086,0.880556 2.898354,1.329141 z"
     id="path2"
     inkscape:connector-curvature="0"
     style="stroke-width:1.41353929" /></svg>