<?xml version="1.0" encoding="UTF-8" standalone="no"?>
<svg
   xmlns:dc="http://purl.org/dc/elements/1.1/"
   xmlns:cc="http://creativecommons.org/ns#"
   xmlns:rdf="http://www.w3.org/1999/02/22-rdf-syntax-ns#"
   xmlns:svg="http://www.w3.org/2000/svg"
   xmlns="http://www.w3.org/2000/svg"
   xmlns:sodipodi="http://sodipodi.sourceforge.net/DTD/sodipodi-0.dtd"
   xmlns:inkscape="http://www.inkscape.org/namespaces/inkscape"
   version="1.1"
   x="0px"
   y="0px"
   viewBox="0 0 100 125"
   enable-background="new 0 0 100 100"
   xml:space="preserve"
   id="svg28"
   sodipodi:docname="definition.svg"
   inkscape:version="0.92.3 (2405546, 2018-03-11)"><metadata
     id="metadata34"><rdf:RDF><cc:Work
         rdf:about=""><dc:format>image/svg+xml</dc:format><dc:type
           rdf:resource="http://purl.org/dc/dcmitype/StillImage" /></cc:Work></rdf:RDF></metadata><defs
     id="defs32" /><sodipodi:namedview
     pagecolor="#ffffff"
     bordercolor="#666666"
     borderopacity="1"
     objecttolerance="10"
     gridtolerance="10"
     guidetolerance="10"
     inkscape:pageopacity="0"
     inkscape:pageshadow="2"
     inkscape:window-width="1920"
     inkscape:window-height="1001"
     id="namedview30"
     showgrid="false"
     inkscape:zoom="1.888"
     inkscape:cx="50"
     inkscape:cy="62.5"
     inkscape:window-x="-9"
     inkscape:window-y="-9"
     inkscape:window-maximized="1"
     inkscape:current-layer="svg28" /><g
     id="g8"
     transform="matrix(1.1000468,0,0,2.5537064,-4.7374969,-68.646603)"><g
       id="g6"><g
         id="g4"><path
           d="m 94.299,69.812 -8.096,-8.059 -0.598,-0.594 -0.133,0.129 c -0.367,0.415 -0.752,0.82 -1.15,1.218 -1.16,1.155 -2.404,2.175 -3.711,3.054 l 0.955,0.979 8.01,7.97 c 1.045,1.035 2.871,0.899 4.082,-0.302 l 0.338,-0.332 c 1.209,-1.207 1.346,-3.023 0.303,-4.063 z"
           id="path2"
           inkscape:connector-curvature="0" /></g></g></g><g
     id="g14"
     transform="matrix(1.1000468,0,0,2.5537064,-4.7374969,-68.646603)"><g
       id="g12"><path
         d="m 81.941,32.726 c -7.939,-7.906 -20.822,-7.906 -28.762,0 -7.943,7.901 -7.943,20.717 0,28.613 7.939,7.91 20.822,7.903 28.762,0 7.944,-7.897 7.944,-20.712 0,-28.613 z M 78.24,57.658 c -5.898,5.865 -15.461,5.865 -21.355,0 -5.897,-5.869 -5.897,-15.382 0,-21.247 5.895,-5.867 15.457,-5.867 21.355,0 5.889,5.865 5.889,15.378 0,21.247 z"
         id="path10"
         inkscape:connector-curvature="0" /></g></g><polygon
     points="57.012,49.687 64.904,49.687 64.904,57.578 70.213,57.578 70.213,49.687 78.105,49.687 78.105,44.378 70.213,44.378 70.213,36.486 64.904,36.486 64.904,44.378 57.012,44.378 "
     id="polygon16"
     transform="matrix(1.1000468,0,0,2.5537064,-4.7374969,-68.646603)" /><path
     d="m 50.446348,93.901912 c -3.398044,2.30855 -6.968796,3.575185 -10.657253,3.575185 -12.994852,0 -24.582744,-15.230301 -31.9706583,-39.194281 C 15.206351,34.32905 26.794243,19.114067 39.789095,19.114067 c 2.397002,0 4.745602,0.526065 7.029299,1.52201 1.133049,-4.611994 2.504806,-8.8537 4.087774,-12.6331856 -3.561952,-2.1297909 -7.281209,-3.294281 -11.117073,-3.294281 -16.095884,0 -30.2215837,19.9138016 -38.5357373,49.7589676 -0.65452778,2.336641 -0.65452778,5.298941 0,7.645797 8.3141536,29.837502 22.4387533,49.774285 38.5357373,49.774285 5.741145,0 11.225978,-2.58179 16.292793,-7.20145 -2.086789,-2.99294 -3.979969,-6.621758 -5.63554,-10.784298 z"
     id="path18"
     inkscape:connector-curvature="0"
     style="stroke-width:1.67606568" /><path
     d="m 45.104522,74.034075 c -2.004286,3.355571 -4.593796,4.913332 -7.238308,3.695214 -4.908409,-2.262583 -8.071043,-13.02901 -7.0612,-24.030376 1.007643,-11.006474 5.803846,-18.095564 10.712255,-15.84064 0.814035,0.383056 1.553266,1.087879 2.253996,1.905063 0.367416,-4.466432 0.93064,-8.769427 1.683071,-12.845142 -0.871237,-0.86826 -1.772175,-1.636925 -2.743516,-2.086377 -8.113945,-3.733519 -16.043082,8.016084 -17.710753,26.198471 -1.665471,18.205374 3.564151,35.971508 11.672596,39.710137 3.987669,1.841218 7.926936,-0.07154 11.102772,-4.640086 -1.074745,-3.751396 -1.961383,-7.801573 -2.670913,-12.066264 z"
     id="path20"
     inkscape:connector-curvature="0"
     style="stroke-width:1.67606568" /><path
     d="m 43.277344,51.541031 c 0,-1.779933 0.0517,-3.53433 0.115505,-5.275957 l -0.45762,-1.07511 c -0.574224,-0.712485 -1.186951,-1.307498 -1.866779,-1.621604 -3.570752,-1.644588 -7.0645,3.498577 -7.799331,11.529983 -0.735932,8.028853 1.571966,15.850856 5.142718,17.495443 2.219894,1.021483 4.405687,-0.582246 5.920452,-3.866312 C 43.66126,63.259988 43.277344,57.509042 43.277344,51.541031 Z"
     id="path22"
     inkscape:connector-curvature="0"
     style="stroke-width:1.67606568" /></svg>