<?xml version="1.0" encoding="UTF-8" standalone="no"?>
<svg
   xmlns:dc="http://purl.org/dc/elements/1.1/"
   xmlns:cc="http://creativecommons.org/ns#"
   xmlns:rdf="http://www.w3.org/1999/02/22-rdf-syntax-ns#"
   xmlns:svg="http://www.w3.org/2000/svg"
   xmlns="http://www.w3.org/2000/svg"
   xmlns:sodipodi="http://sodipodi.sourceforge.net/DTD/sodipodi-0.dtd"
   xmlns:inkscape="http://www.inkscape.org/namespaces/inkscape"
   data-name="Layer 1"
   viewBox="0 0 50 50"
   x="0px"
   y="0px"
   version="1.1"
   id="svg12"
   sodipodi:docname="ethos.svg"
   inkscape:version="0.92.3 (2405546, 2018-03-11)"
   width="50"
   height="50">
  <metadata
     id="metadata18">
    <rdf:RDF>
      <cc:Work
         rdf:about="">
        <dc:format>image/svg+xml</dc:format>
        <dc:type
           rdf:resource="http://purl.org/dc/dcmitype/StillImage" />
        <dc:title>Artboard 3</dc:title>
      </cc:Work>
    </rdf:RDF>
  </metadata>
  <defs
     id="defs16" />
  <sodipodi:namedview
     pagecolor="#ffffff"
     bordercolor="#666666"
     borderopacity="1"
     objecttolerance="10"
     gridtolerance="10"
     guidetolerance="10"
     inkscape:pageopacity="0"
     inkscape:pageshadow="2"
     inkscape:window-width="1920"
     inkscape:window-height="1001"
     id="namedview14"
     showgrid="false"
     inkscape:zoom="1.888"
     inkscape:cx="42.34706"
     inkscape:cy="35.44533"
     inkscape:window-x="-9"
     inkscape:window-y="-9"
     inkscape:window-maximized="1"
     inkscape:current-layer="svg12"
     fit-margin-top="0"
     fit-margin-left="0"
     fit-margin-right="0"
     fit-margin-bottom="0" />
  <title
     id="title2">Artboard 3</title>
  <path
     d="M 1.6772464,34.505922 A 3.6758317,3.1145331 0 0 0 2.3188679,34.7498 l 0.3777772,0.101617 2.0328009,0.548726 0.071958,4.526997 v 1.295605 0.340414 c 0,0.142263 0,0.284525 0.035979,0.421707 a 5.6786503,4.8115218 0 0 0 0.2158727,0.82309 5.1389687,4.3542494 0 0 0 2.3985854,2.45911 5.079004,4.3034414 0 0 0 1.7569636,0.50808 5.5467281,4.6997441 0 0 0 0.8754843,0.04065 h 0.683596 l 2.66243,-0.04573 4.197524,-0.09145 1.433154,3.780118 a 0.85749419,0.72655504 0 0 0 1.08536,0.508081 0.86948712,0.73671665 0 0 0 0.497707,-0.88406 l -1.32522,-4.496517 a 0.95943406,0.81292871 0 0 0 -0.869487,-0.655424 h -0.05996 l -4.911103,-0.106697 -2.66243,-0.04573 h -0.683597 c -0.131922,0 -0.1858901,0 -0.2698406,0 a 1.2712501,1.0771305 0 0 1 -0.2398585,-0.0254 2.6444401,2.2406348 0 0 1 -2.0747761,-1.575049 3.1781253,2.6928264 0 0 1 -0.089947,-0.416626 c 0,-0.07113 0,-0.142263 0,-0.213394 0,-0.07113 0,-0.203232 0,-0.304848 v -1.295606 l 0.083951,-5.405976 A 1.3911794,1.1787466 0 0 0 6.6003427,33.413549 H 6.5703603 L 3.602111,32.549812 3.2243338,32.443115 3.1463798,32.40755 A 0.38377362,0.32517149 0 0 1 3.0264505,32.305933 0.40176301,0.3404139 0 0 1 2.9784788,32.026489 L 5.6049296,27.072705 6.306516,25.766938 6.6603073,25.101353 C 6.7922295,24.847313 6.9121587,24.593272 7.0200951,24.32907 A 12.058887,10.217498 0 0 0 7.7216812,21.067194 21.659224,18.351866 0 0 1 8.7950481,15.67138 19.938239,16.893675 0 0 1 22.706842,4.6511148 a 19.314607,16.365271 0 0 1 6.524151,-0.5080804 20.477921,17.350947 0 0 1 6.284294,1.2651203 19.728363,16.715847 0 0 1 5.396816,2.8350889 20.549878,17.411917 0 0 1 4.029623,3.9528654 21.78515,18.458563 0 0 1 2.398585,4.60829 21.215486,17.975886 0 0 1 0.521693,2.393059 16.993976,14.399 0 0 1 0.131922,2.377816 20.316016,17.213766 0 0 1 -0.785537,4.48127 20.98762,17.782816 0 0 1 -4.623273,7.01151 l -0.03598,0.03049 a 1.049381,0.88914078 0 0 0 -0.227866,0.853575 c 1.583066,4.435542 2.530507,6.960702 3.352023,9.079398 a 0.83350834,0.70623182 0 0 0 1.061374,0.50808 v 0 a 0.85149773,0.72147423 0 0 0 0.479717,-0.858656 c -0.599647,-2.08821 -1.331215,-4.542239 -2.650437,-8.703418 A 22.432768,19.007289 0 0 0 50.746302,21.631163 19.404554,16.441483 0 0 0 50.650359,18.933256 23.656046,20.043774 0 0 0 50.12267,16.184541 24.357632,20.638228 0 0 0 47.520205,10.849696 23.338233,19.774491 0 0 0 42.962893,6.2363258 22.64864,19.190198 0 0 0 36.786537,2.8982373 23.470156,19.886269 0 0 0 29.488841,1.3739959 22.372803,18.956481 0 0 0 21.87933,1.9582884 23.008428,19.495047 0 0 0 5.7308553,14.777158 24.585498,20.831298 0 0 0 4.5315627,21.036709 8.9946943,7.6212067 0 0 1 4.0698351,23.470415 c -0.077954,0.19307 -0.1619045,0.386141 -0.2578479,0.57413 l -0.3358019,0.650343 -0.6776003,1.310848 -1.3372113,2.596291 -0.65361441,1.285444 -0.32380898,0.6351 -0.16190449,0.31501 -0.0419752,0.08637 -0.0719576,0.142262 A 2.5724826,2.1796651 0 0 0 0.10017669,31.3609 3.3580192,2.8452505 0 0 0 0.61587247,33.692989 3.3100475,2.8046041 0 0 0 1.6772464,34.505918 Z"
     id="path4"
     inkscape:connector-curvature="0"
     style="stroke-width:0.55196792" />
  <path
     d="m 36.280371,19.940744 a 4.1727798,3.8672329 0 0 0 0.03726,-5.598609 4.1834246,3.8770983 0 0 0 -1.234802,-0.784299 4.3005179,3.9856175 0 0 0 -3.087005,-0.143039 4.4282561,4.1040022 0 0 0 -1.42641,0.734971 4.3324525,4.0152138 0 0 0 -1.064484,1.218375 c -0.05322,0.09373 -0.0958,0.187443 -0.143706,0.286097 l -0.532242,-0.562326 -0.335313,-0.379818 c -0.03726,-0.03946 -0.170317,-0.177577 -0.282088,-0.286097 a 3.0923279,2.8658958 0 0 0 -0.383218,-0.291036 3.0603933,2.8362997 0 0 0 -3.768275,0.192374 3.571346,3.3098384 0 0 0 -0.340635,0.320626 l -0.180963,0.192374 -0.367247,0.389684 q -0.739817,0.779366 -1.516891,1.543933 -1.554147,1.529135 -3.257323,2.989213 -0.846265,0.73004 -1.729787,1.430482 l -0.441761,0.350222 c -0.154351,0.128255 -0.250154,0.182508 -0.564177,0.468605 a 3.1561969,2.9250881 0 0 0 -0.202252,3.778444 3.2466781,3.008944 0 0 0 0.372569,0.374886 l 0.101126,0.08385 0.05322,0.0444 0.111771,0.08878 0.441761,0.350221 q 0.883522,0.700443 1.73511,1.435414 c 1.138998,0.98654 2.230095,1.973078 3.27329,3.008944 q 0.782396,0.7695 1.527535,1.558732 l 0.37257,0.394616 0.186285,0.197307 0.106448,0.113456 0.180963,0.177577 a 3.0976503,2.8708286 0 0 0 3.842789,0.350221 2.9858794,2.767242 0 0 0 0.404504,-0.291029 2.2939644,2.1259915 0 0 0 0.180963,-0.167712 l 0.143705,-0.147983 0.356603,-0.384751 0.489662,-0.527797 c 0,0.03946 0.03194,0.07893 0.05323,0.118383 a 4.3856767,4.0645407 0 0 0 7.717513,0.320625 4.2579385,3.946156 0 0 0 -0.569499,-4.735387 4.1035883,3.8031078 0 0 0 -2.054455,-1.109856 l 1.458344,-1.272635 a 2.5068613,2.3232993 0 0 0 0.777073,-1.553799 2.4323474,2.2542416 0 0 0 -0.473695,-1.479809 0.58014413,0.53766376 0 0 0 -0.952714,0.08878 0.99529314,0.92241397 0 0 0 -0.260799,0.665915 0.91013436,0.84349084 0 0 1 -0.244831,1.085192 l -2.246063,1.686981 a 0.74513925,0.6905773 0 0 0 -0.202252,0.236771 l -0.03193,0.05918 a 1.6818857,1.5587316 0 0 0 0.03193,1.395953 1.8043015,1.6721836 0 0 0 0.298056,0.374884 l 0.07451,0.074 a 1.6925306,1.568597 0 0 0 0.191607,0.15784 1.7297875,1.6031259 0 0 0 0.473696,0.236769 c 0.425794,0.118383 0.415149,0.08385 0.532242,0.123311 a 2.0331657,1.8842895 0 0 1 1.463666,1.657385 1.937362,1.7955009 0 0 1 -1.346573,1.839895 1.8468808,1.7116451 0 0 1 -1.277381,-0.0592 1.7936566,1.6623182 0 0 1 -0.926102,-0.843492 1.8149463,1.6820491 0 0 1 -0.106448,-0.295961 c 0,-0.05426 0,-0.103584 -0.03194,-0.15784 a 2.5068613,2.3232993 0 0 0 -0.05322,-0.2565 2.0917123,1.9385492 0 0 0 -0.138383,-0.360087 2.0065535,1.859626 0 0 0 -0.234187,-0.350221 2.0278432,1.8793568 0 0 0 -0.149028,-0.15784 l -0.05322,-0.04933 -0.05855,-0.05426 a 2.0810675,1.9286837 0 0 0 -0.164996,-0.138112 2.0065535,1.859626 0 0 0 -0.377892,-0.221972 2.0491329,1.8990875 0 0 0 -1.73511,0 v 0 a 1.3039937,1.2085103 0 0 0 -0.425793,0.29103 l -1.511569,1.553799 -0.383214,0.394615 a 0.23950904,0.22197127 0 0 1 -0.0479,0.0444 c 0,0 0,0 0,0 l -0.04258,0.02466 a 0.30337812,0.28116361 0 0 1 -0.186285,0.03453 0.28208843,0.26143283 0 0 1 -0.159673,-0.07893 l -0.723845,-0.749757 q -0.766429,-0.833626 -1.596727,-1.64752 C 22.580454,28.257248 21.430811,27.19672 20.24391,26.175651 q -0.888844,-0.764568 -1.809624,-1.504472 l -0.46305,-0.365019 -0.122416,-0.08878 -0.05855,-0.0444 v 0 l -0.03193,-0.0296 a 0.23950904,0.22197127 0 0 1 0,-0.276231 l 0.787718,-0.631384 q 0.915457,-0.739905 1.798979,-1.509406 c 1.22948,-1.026 2.325899,-2.081596 3.390384,-3.166789 q 0.798363,-0.808961 1.554147,-1.637655 l 0.37257,-0.414346 0.186285,-0.207174 c 0.04258,-0.03946 0.03193,-0.03946 0.05322,-0.05426 a 0.29273328,0.27129823 0 0 1 0.180962,-0.07893 0.30870054,0.28609631 0 0 1 0.207575,0.03946 c 0,0 0.02661,0 0.0479,0.0296 0.02129,0.0296 0,0 0.0958,0.09373 l 0.377892,0.384751 1.484957,1.519269 a 1.3039937,1.2085103 0 0 0 0.420471,0.281164 v 0 a 1.9959087,1.8497606 0 0 0 1.7564,-0.05426 2.1715487,2.0125395 0 0 0 0.532242,-0.399547 l 0.101126,-0.09866 a 1.9533293,1.8102991 0 0 0 0.143705,-0.167712 1.9852638,1.8398952 0 0 0 0.207575,-0.360087 2.0597778,1.9089529 0 0 0 0.111771,-0.365019 v -0.15784 a 1.6339839,1.5143374 0 0 1 0.03726,-0.167712 1.8894602,1.7511068 0 0 1 0.117093,-0.315692 1.8309136,1.6968471 0 0 1 0.415149,-0.527798 2.0012311,1.8546934 0 0 1 0.606756,-0.350222 1.9480069,1.8053663 0 0 1 1.378508,0 1.9107499,1.7708375 0 0 1 0.596111,0.335423 1.8681705,1.731376 0 0 1 0.436439,0.493271 2.1289693,1.973078 0 0 1 -0.234187,2.278904 2.1555814,1.9977415 0 0 1 -1.064484,0.586991 h -0.07451 -0.111771 a 1.6818857,1.5587316 0 0 0 -0.420471,0.133183 1.5435027,1.4304816 0 0 0 -0.388537,0.256501 l -0.186285,0.187442 a 1.522213,1.4107508 0 0 0 -0.21822,1.529135 l 0.03193,0.0592 a 0.63336836,0.5869907 0 0 0 0.159673,0.18251 c 0.942069,0.73004 1.415764,1.075327 1.857525,1.39102 0.21822,0.15784 0.596112,0.03946 0.840943,-0.256502 a 0.64401321,0.5968561 0 0 0 0.08516,-0.744834 c -0.31934,-0.300894 -0.67062,-0.616586 -1.277377,-1.149317 h 0.05322 a 3.9652053,3.6748577 0 0 0 2.070427,-0.892819 z m -7.254462,11.478382 z m 0.05322,-14.798085 z"
     id="path6"
     inkscape:connector-curvature="0"
     style="stroke-width:0.51238549" />
</svg>
