<?xml version="1.0" encoding="UTF-8" standalone="no"?>
<svg
   xmlns:dc="http://purl.org/dc/elements/1.1/"
   xmlns:cc="http://creativecommons.org/ns#"
   xmlns:rdf="http://www.w3.org/1999/02/22-rdf-syntax-ns#"
   xmlns:svg="http://www.w3.org/2000/svg"
   xmlns="http://www.w3.org/2000/svg"
   xmlns:sodipodi="http://sodipodi.sourceforge.net/DTD/sodipodi-0.dtd"
   xmlns:inkscape="http://www.inkscape.org/namespaces/inkscape"
   version="1.1"
   x="0px"
   y="0px"
   viewBox="0 0 100 125"
   style="enable-background:new 0 0 100 100;"
   xml:space="preserve"
   id="svg20"
   sodipodi:docname="future.svg"
   inkscape:version="0.92.3 (2405546, 2018-03-11)"><metadata
     id="metadata26"><rdf:RDF><cc:Work
         rdf:about=""><dc:format>image/svg+xml</dc:format><dc:type
           rdf:resource="http://purl.org/dc/dcmitype/StillImage" /></cc:Work></rdf:RDF></metadata><defs
     id="defs24" /><sodipodi:namedview
     pagecolor="#ffffff"
     bordercolor="#666666"
     borderopacity="1"
     objecttolerance="10"
     gridtolerance="10"
     guidetolerance="10"
     inkscape:pageopacity="0"
     inkscape:pageshadow="2"
     inkscape:window-width="640"
     inkscape:window-height="480"
     id="namedview22"
     showgrid="false"
     inkscape:zoom="1.888"
     inkscape:cx="50"
     inkscape:cy="62.5"
     inkscape:window-x="0"
     inkscape:window-y="0"
     inkscape:window-maximized="0"
     inkscape:current-layer="svg20" /><style
     type="text/css"
     id="style2">
	.st0{fill:#020202;}
</style><g
     id="g14"
     transform="matrix(1.9924402,0,0,1.3141769,-49.671631,-3.8063199)"><path
       class="st0"
       d="m 25.5,2 v 4.1 c 0,0 6.3,2.6 18.6,4.1 -1,0.9 -2.3,2.2 -2.8,3.9 l -0.4,1.7 c 0,0 3.8,1.3 6.5,3.3 l 2.7,2.3 c 0,0 -3.1,-6.9 -3.1,-8.8 0,-0.8 0.1,-1.5 0.3,-2 7.3,0.7 16.4,1 27.3,0.3 V 7 C 74.5,7 49.3,9.2 25.5,2 Z"
       id="path4"
       inkscape:connector-curvature="0"
       style="fill:#020202" /><path
       class="st0"
       d="m 39.7,17.6 c -3.5,1.9 -4.4,4 -4.4,4 C 37.6,20.8 51,24.9 51,24.9 48.4,21.5 39.7,17.6 39.7,17.6 Z"
       id="path6"
       inkscape:connector-curvature="0"
       style="fill:#020202" /><path
       class="st0"
       d="m 30.9,48.9 c 7.5,-1.3 25.5,-5.6 26.1,-6.7 0.6,-1 -1.9,-5.4 -1.9,-5.4 -2.1,0 -24.6,3.1 -24.6,3.1 0.2,1.9 -1,5.2 -1,5.2 0.6,0.8 1.4,3.8 1.4,3.8 z M 36.3,42 c 0.7,0 1.2,0.5 1.2,1.2 0,0.7 -0.5,1.2 -1.2,1.2 -0.7,0 -1.2,-0.5 -1.2,-1.2 0,-0.6 0.6,-1.2 1.2,-1.2 z"
       id="path8"
       inkscape:connector-curvature="0"
       style="fill:#020202" /><path
       class="st0"
       d="m 32.8,24.4 c -1,2.7 -2.9,6.1 -2.9,6.1 1.3,1.3 1,6.3 1,6.3 0,0 5.8,-0.6 9.6,-1.3 C 44.3,34.9 54.1,34 54.1,34 l -1.7,-5.8 c 0,0 -8.1,-1.9 -11.3,-2.9 -3.1,-1.1 -8.3,-0.9 -8.3,-0.9 z m 3.5,4.7 c 0.7,0 1.2,0.5 1.2,1.2 0,0.7 -0.5,1.2 -1.2,1.2 -0.7,0 -1.2,-0.5 -1.2,-1.2 0,-0.7 0.6,-1.2 1.2,-1.2 z"
       id="path10"
       inkscape:connector-curvature="0"
       style="fill:#020202" /><path
       class="st0"
       d="M 64.3,81 C 63.9,78.1 61,66.4 61.6,61.4 c 0.6,-5 0.2,-7.7 -0.4,-9.8 -0.1,-0.4 -0.3,-1 -0.6,-1.5 -5.7,8.1 -6.3,12.5 -7.4,18.4 -0.6,3.1 8.6,19.8 8.6,19.8 0,0 -10,-14.6 -10.4,-19.2 -0.4,-4.6 2.9,-12.7 4,-14.4 0.8,-1.2 3,-5.2 4.2,-7.2 -0.7,-1.4 -1.2,-2.6 -1.2,-2.6 -6.3,3.8 -27.1,6.7 -27.1,6.7 0,0 0.6,2.5 -0.2,4.4 l 2.7,3.3 c 0,0 13.8,-1.9 18.4,-3.5 0,0 -9.2,5.4 -18,6.3 0,0 -0.2,2.5 -0.8,3.8 l 2.9,2.7 c 0,0 11.3,-2.3 14.2,-4 0,0 -5.8,5.2 -13.2,6.3 l 0.4,1 c 2.1,1.7 2.9,4 2.9,5.6 0,1.7 -0.2,8.8 -0.2,8.8 l 2.5,2.7 c 2.5,2.7 5.2,3.6 6.1,3.9 2.1,-1.1 5.4,-2.5 7.7,-2.6 0,0 -3.7,1.9 -6.2,3.8 3.2,2.6 7.2,3.1 7.2,3.1 2.9,1.3 8.1,0.8 8.1,0.8 0,0 0.2,-3.1 -0.6,-5.2 C 64.3,90.6 64.7,83.9 64.3,81 Z M 38,55.5 c -0.7,0 -1.2,-0.5 -1.2,-1.2 0,-0.7 0.5,-1.2 1.2,-1.2 0.7,0 1.2,0.5 1.2,1.2 0,0.7 -0.5,1.2 -1.2,1.2 z m 2.9,9.8 c -0.7,0 -1.2,-0.5 -1.2,-1.2 0,-0.7 0.5,-1.2 1.2,-1.2 0.7,0 1.2,0.5 1.2,1.2 0,0.7 -0.5,1.2 -1.2,1.2 z m 5.8,13.2 c -1.1,0 -2,-0.9 -2,-2 0,-1.1 0.9,-2 2,-2 1.1,0 2,0.9 2,2 -0.1,1.1 -0.9,2 -2,2 z m 16.6,16.1 c -1.9,2.8 -4,0.2 -4,0.2 1.7,-1.3 2.5,-3.8 2.5,-3.8 0,0 2.7,1.7 1.5,3.6 z"
       id="path12"
       inkscape:connector-curvature="0"
       style="fill:#020202" /></g></svg>