<?xml version="1.0" encoding="UTF-8" standalone="no"?>
<svg
   xmlns:dc="http://purl.org/dc/elements/1.1/"
   xmlns:cc="http://creativecommons.org/ns#"
   xmlns:rdf="http://www.w3.org/1999/02/22-rdf-syntax-ns#"
   xmlns:svg="http://www.w3.org/2000/svg"
   xmlns="http://www.w3.org/2000/svg"
   xmlns:sodipodi="http://sodipodi.sourceforge.net/DTD/sodipodi-0.dtd"
   xmlns:inkscape="http://www.inkscape.org/namespaces/inkscape"
   version="1.1"
   x="0px"
   y="0px"
   viewBox="0 0 26 40.271183"
   xml:space="preserve"
   id="svg10"
   sodipodi:docname="genelogy.svg"
   inkscape:version="0.92.3 (2405546, 2018-03-11)"
   width="26"
   height="40.271183"><metadata
     id="metadata16"><rdf:RDF><cc:Work
         rdf:about=""><dc:format>image/svg+xml</dc:format><dc:type
           rdf:resource="http://purl.org/dc/dcmitype/StillImage" /></cc:Work></rdf:RDF></metadata><defs
     id="defs14" /><sodipodi:namedview
     pagecolor="#ffffff"
     bordercolor="#666666"
     borderopacity="1"
     objecttolerance="10"
     gridtolerance="10"
     guidetolerance="10"
     inkscape:pageopacity="0"
     inkscape:pageshadow="2"
     inkscape:window-width="640"
     inkscape:window-height="480"
     id="namedview12"
     showgrid="false"
     inkscape:zoom="2.95"
     inkscape:cx="13"
     inkscape:cy="24.997571"
     inkscape:window-x="0"
     inkscape:window-y="0"
     inkscape:window-maximized="0"
     inkscape:current-layer="svg10" /><g
     id="g4"
     transform="scale(1,0.62923724)"><path
       d="M 26,17 V 3 C 26,1.346 24.654,0 23,0 21.346,0 20,1.346 20,3 V 7 H 6 V 3 C 6,1.346 4.654,0 3,0 1.346,0 0,1.346 0,3 v 14 c 0,3.894 1.745,7.532 4.712,9.993 C 1.836,29.38 0,32.979 0,37 v 13 c 0,1.487 1.091,2.716 2.513,2.951 L 8,58.987 V 59 h 0.012 l 4.248,4.673 C 12.45,63.881 12.718,64 13,64 c 0.282,0 0.55,-0.119 0.74,-0.327 L 17.988,59 H 18 v -0.013 l 5.487,-6.036 C 24.909,52.716 26,51.487 26,50 V 37 C 26,33.106 24.255,29.468 21.288,27.007 24.164,24.62 26,21.021 26,17 Z m -6.295,2 H 6.295 C 6.105,18.366 6,17.695 6,17 h 14 c 0,0.695 -0.105,1.366 -0.295,2 z m -0.969,2 C 17.469,22.811 15.372,24 13,24 10.628,24 8.53,22.811 7.264,21 Z M 20,15 H 6 v -2 h 14 z m 0,-6 v 2 H 6 V 9 Z M 2,17 V 3 C 2,2.449 2.449,2 3,2 3.551,2 4,2.449 4,3 v 14 c 0,3.338 1.831,6.252 4.538,7.805 -0.734,0.269 -1.435,0.6 -2.101,0.991 C 3.657,23.718 2,20.484 2,17 Z m 0,20 c 0,-6.065 4.935,-11 11,-11 4.962,0 9,-4.038 9,-9 V 3 c 0,-0.551 0.449,-1 1,-1 0.551,0 1,0.449 1,1 v 14 c 0,6.065 -4.935,11 -11,11 -4.962,0 -9,4.038 -9,9 V 50 C 4,50.552 3.551,51 3,51 2.449,51 2,50.552 2,50 Z m 4.295,-2 h 13.41 C 19.895,35.634 20,36.305 20,37 H 6 C 6,36.305 6.105,35.634 6.295,35 Z M 6,39 h 14 v 2 H 6 Z m 0,11 v -0.586 l 1,-1 2.293,2.293 c 0.391,0.391 1.023,0.391 1.414,0 L 13,48.414 15.293,50.707 C 15.488,50.902 15.744,51 16,51 c 0.256,0 0.512,-0.098 0.707,-0.293 L 19,48.414 l 1,1 V 50 c 0,1.003 0.499,1.886 1.256,2.431 L 17.103,57 H 8.897 L 4.744,52.431 C 5.501,51.886 6,51.003 6,50 Z m 13.707,-3.707 c -0.391,-0.391 -1.023,-0.391 -1.414,0 L 16,48.586 13.707,46.293 c -0.391,-0.391 -1.023,-0.391 -1.414,0 L 10,48.586 7.707,46.293 c -0.391,-0.391 -1.023,-0.391 -1.414,0 L 6,46.586 V 43 h 14 v 3.586 z M 7.264,33 c 1.267,-1.811 3.364,-3 5.736,-3 2.372,0 4.47,1.189 5.736,3 z M 13,61.514 10.715,59 h 4.57 z M 24,37 v 13 c 0,0.552 -0.449,1 -1,1 -0.551,0 -1,-0.448 -1,-1 V 37 c 0,-3.338 -1.831,-6.252 -4.538,-7.805 0.734,-0.269 1.435,-0.6 2.101,-0.991 C 22.343,30.282 24,33.516 24,37 Z"
       id="path2"
       inkscape:connector-curvature="0" /></g></svg>