<?xml version="1.0" encoding="UTF-8" standalone="no"?>
<svg
   xmlns:dc="http://purl.org/dc/elements/1.1/"
   xmlns:cc="http://creativecommons.org/ns#"
   xmlns:rdf="http://www.w3.org/1999/02/22-rdf-syntax-ns#"
   xmlns:svg="http://www.w3.org/2000/svg"
   xmlns="http://www.w3.org/2000/svg"
   xmlns:sodipodi="http://sodipodi.sourceforge.net/DTD/sodipodi-0.dtd"
   xmlns:inkscape="http://www.inkscape.org/namespaces/inkscape"
   version="1.1"
   x="0px"
   y="0px"
   viewBox="0 0 100 125"
   enable-background="new 0 0 100 100"
   xml:space="preserve"
   id="svg24"
   sodipodi:docname="organization.svg"
   inkscape:version="0.92.3 (2405546, 2018-03-11)"><metadata
     id="metadata30"><rdf:RDF><cc:Work
         rdf:about=""><dc:format>image/svg+xml</dc:format><dc:type
           rdf:resource="http://purl.org/dc/dcmitype/StillImage" /></cc:Work></rdf:RDF></metadata><defs
     id="defs28" /><sodipodi:namedview
     pagecolor="#ffffff"
     bordercolor="#666666"
     borderopacity="1"
     objecttolerance="10"
     gridtolerance="10"
     guidetolerance="10"
     inkscape:pageopacity="0"
     inkscape:pageshadow="2"
     inkscape:window-width="640"
     inkscape:window-height="480"
     id="namedview26"
     showgrid="false"
     inkscape:zoom="1.888"
     inkscape:cx="50"
     inkscape:cy="62.5"
     inkscape:window-x="0"
     inkscape:window-y="0"
     inkscape:window-maximized="0"
     inkscape:current-layer="svg24" /><g
     id="g4"
     transform="matrix(1.1047014,0,0,1.3514404,-7.9608531,-5.4240621)"><path
       d="m 8.873,96.818 c 30.654,-0.249 55.295,-25.295 55.045,-55.945 0,-0.262 -0.008,-0.523 -0.016,-0.785 L 73.284,39.877 61.569,25.011 50.523,40.389 59.902,40.178 c 0.005,0.24 0.013,0.485 0.013,0.729 0.236,28.438 -22.634,51.68 -51.076,51.911"
       id="path2"
       inkscape:connector-curvature="0" /></g><g
     id="g8"
     transform="matrix(1.1047014,0,0,1.3514404,-7.9608531,-5.4240621)"><line
       x1="8.8389997"
       y1="92.818001"
       x2="8.8730001"
       y2="96.818001"
       id="line6" /></g><path
     d="m 35.922304,22.168297 c 0,5.712538 -3.783602,10.342573 -8.448756,10.342573 -4.673991,0 -8.458698,-4.630035 -8.458698,-10.342573 0,-5.707134 3.784707,-10.335817 8.458698,-10.335817 4.665154,-0.0014 8.448756,4.628683 8.448756,10.335817 z m 8.71057,0 c 0,-11.59671 -7.686511,-20.9919241 -17.16043,-20.9919241 -9.48828,0 -17.169269,9.3965651 -17.169269,20.9919241 0,11.598061 7.679884,20.99868 17.169269,20.99868 9.475024,0 17.16043,-9.40197 17.16043,-20.99868 z"
     id="path10"
     inkscape:connector-curvature="0"
     style="stroke-width:1.2218585" /><g
     id="g14"
     transform="matrix(1.1047014,0,0,1.3514404,-7.9608531,-5.4240621)"><polygon
       points="27.156,54.884 35.885,62.912 29.557,69.802 20.824,61.773 12.796,70.502 5.919,64.17 13.935,55.44 5.211,47.417 11.542,40.527 20.272,48.552 28.295,39.823 35.181,46.159 "
       id="polygon12" /></g><g
     id="g18"
     transform="matrix(1.1047014,0,0,1.3514404,-7.9608531,-5.4240621)"><polygon
       points="87.543,68.928 96.269,76.952 89.932,83.842 81.207,75.817 73.184,84.541 66.294,78.209 74.318,69.48 65.594,61.457 71.918,54.567 80.654,62.596 88.68,53.867 95.568,60.199 "
       id="polygon16" /></g></svg>