<?xml version="1.0" encoding="UTF-8" standalone="no"?>
<svg
   xmlns:dc="http://purl.org/dc/elements/1.1/"
   xmlns:cc="http://creativecommons.org/ns#"
   xmlns:rdf="http://www.w3.org/1999/02/22-rdf-syntax-ns#"
   xmlns:svg="http://www.w3.org/2000/svg"
   xmlns="http://www.w3.org/2000/svg"
   xmlns:sodipodi="http://sodipodi.sourceforge.net/DTD/sodipodi-0.dtd"
   xmlns:inkscape="http://www.inkscape.org/namespaces/inkscape"
   version="1.0"
   width="463.000000pt"
   height="446.000000pt"
   viewBox="0 0 463.000000 446.000000"
   preserveAspectRatio="xMidYMid meet"
   id="svg8"
   sodipodi:docname="process.svg"
   inkscape:version="0.92.3 (2405546, 2018-03-11)">
  <defs
     id="defs12" />
  <sodipodi:namedview
     pagecolor="#ffffff"
     bordercolor="#666666"
     borderopacity="1"
     objecttolerance="10"
     gridtolerance="10"
     guidetolerance="10"
     inkscape:pageopacity="0"
     inkscape:pageshadow="2"
     inkscape:window-width="640"
     inkscape:window-height="480"
     id="namedview10"
     showgrid="false"
     inkscape:zoom="0.39686099"
     inkscape:cx="308.66667"
     inkscape:cy="297.33333"
     inkscape:window-x="0"
     inkscape:window-y="0"
     inkscape:window-maximized="0"
     inkscape:current-layer="svg8" />
  <metadata
     id="metadata2">
Created by potrace 1.15, written by Peter Selinger 2001-2017
<rdf:RDF>
  <cc:Work
     rdf:about="">
    <dc:format>image/svg+xml</dc:format>
    <dc:type
       rdf:resource="http://purl.org/dc/dcmitype/StillImage" />
  </cc:Work>
</rdf:RDF>
</metadata>
  <g
     transform="matrix(0.12502342,0,0,-0.120938,-49.801226,507.34646)"
     id="g6"
     style="fill:#000000;stroke:none">
    <path
       d="M 2115,4189 C 1309,4136 625,3545 446,2748 c -71,-316 -51,-682 56,-1003 62,-187 197,-429 328,-590 113,-139 290,-291 452,-389 657,-399 1476,-358 2098,105 479,358 766,979 720,1559 -56,704 -442,1282 -1055,1581 -292,142 -598,200 -930,178 z m 479,-174 c 350,-74 634,-231 882,-486 139,-145 214,-251 305,-430 115,-229 179,-513 179,-791 v -78 h -35 c -49,0 -82,19 -205,115 -200,157 -230,160 -411,43 -220,-144 -285,-170 -373,-154 -19,4 -95,43 -168,88 -226,137 -267,153 -331,129 -13,-5 -83,-57 -155,-115 -161,-129 -187,-139 -265,-103 -30,14 -104,56 -164,95 -119,76 -173,98 -225,88 -21,-4 -77,-40 -148,-96 -206,-160 -201,-160 -457,13 -120,81 -139,91 -189,95 -71,6 -129,-11 -214,-64 l -70,-43 v 67 c 0,210 64,476 166,692 54,114 168,287 257,390 247,287 630,498 999,554 161,24 163,24 338,20 127,-3 192,-9 284,-29 z"
       id="path4"
       inkscape:connector-curvature="0" />
  </g>
</svg>
