<?xml version="1.0" encoding="UTF-8" standalone="no"?>
<svg
   xmlns:dc="http://purl.org/dc/elements/1.1/"
   xmlns:cc="http://creativecommons.org/ns#"
   xmlns:rdf="http://www.w3.org/1999/02/22-rdf-syntax-ns#"
   xmlns:svg="http://www.w3.org/2000/svg"
   xmlns="http://www.w3.org/2000/svg"
   xmlns:sodipodi="http://sodipodi.sourceforge.net/DTD/sodipodi-0.dtd"
   xmlns:inkscape="http://www.inkscape.org/namespaces/inkscape"
   version="1.1"
   x="0px"
   y="0px"
   viewBox="0 0 50 50"
   enable-background="new 0 0 64 64"
   xml:space="preserve"
   id="svg26"
   sodipodi:docname="rtv.svg"
   inkscape:version="0.92.3 (2405546, 2018-03-11)"
   width="50"
   height="50"><metadata
     id="metadata32"><rdf:RDF><cc:Work
         rdf:about=""><dc:format>image/svg+xml</dc:format><dc:type
           rdf:resource="http://purl.org/dc/dcmitype/StillImage" /><dc:title></dc:title></cc:Work></rdf:RDF></metadata><defs
     id="defs30" /><sodipodi:namedview
     pagecolor="#ffffff"
     bordercolor="#666666"
     borderopacity="1"
     objecttolerance="10"
     gridtolerance="10"
     guidetolerance="10"
     inkscape:pageopacity="0"
     inkscape:pageshadow="2"
     inkscape:window-width="1920"
     inkscape:window-height="1001"
     id="namedview28"
     showgrid="false"
     inkscape:zoom="2.95"
     inkscape:cx="30"
     inkscape:cy="20"
     inkscape:window-x="-9"
     inkscape:window-y="-9"
     inkscape:window-maximized="1"
     inkscape:current-layer="svg26" /><g
     id="g20"
     transform="matrix(0.83615819,0,0,0.86916444,-1.6723164,-2.1498662)"><path
       d="m 42,28 h -2 v -1 c 0,-4.411 -3.589,-8 -8,-8 -4.411,0 -8,3.589 -8,8 v 1 h -2 v -1 c 0,-5.514 4.486,-10 10,-10 5.514,0 10,4.486 10,10 z"
       id="path2"
       inkscape:connector-curvature="0" /><path
       d="m 32,15 c -3.309,0 -6,-2.691 -6,-6 0,-3.309 2.691,-6 6,-6 3.309,0 6,2.691 6,6 0,3.309 -2.691,6 -6,6 z M 32,5 c -2.206,0 -4,1.794 -4,4 0,2.206 1.794,4 4,4 2.206,0 4,-1.794 4,-4 0,-2.206 -1.794,-4 -4,-4 z"
       id="path4"
       inkscape:connector-curvature="0" /><path
       d="m 22,60 h -2 v -1 c 0,-4.411 -3.589,-8 -8,-8 -4.411,0 -8,3.589 -8,8 v 1 H 2 v -1 c 0,-5.514 4.486,-10 10,-10 5.514,0 10,4.486 10,10 z"
       id="path6"
       inkscape:connector-curvature="0" /><path
       d="m 12,47 c -3.309,0 -6,-2.691 -6,-6 0,-3.309 2.691,-6 6,-6 3.309,0 6,2.691 6,6 0,3.309 -2.691,6 -6,6 z m 0,-10 c -2.206,0 -4,1.794 -4,4 0,2.206 1.794,4 4,4 2.206,0 4,-1.794 4,-4 0,-2.206 -1.794,-4 -4,-4 z"
       id="path8"
       inkscape:connector-curvature="0" /><path
       d="m 62,60 h -2 v -1 c 0,-4.411 -3.589,-8 -8,-8 -4.411,0 -8,3.589 -8,8 v 1 h -2 v -1 c 0,-5.514 4.486,-10 10,-10 5.514,0 10,4.486 10,10 z"
       id="path10"
       inkscape:connector-curvature="0" /><path
       d="m 52,47 c -3.309,0 -6,-2.691 -6,-6 0,-3.309 2.691,-6 6,-6 3.309,0 6,2.691 6,6 0,3.309 -2.691,6 -6,6 z m 0,-10 c -2.206,0 -4,1.794 -4,4 0,2.206 1.794,4 4,4 2.206,0 4,-1.794 4,-4 0,-2.206 -1.794,-4 -4,-4 z"
       id="path12"
       inkscape:connector-curvature="0" /><path
       d="M 6.078,35.033 C 6.026,34.361 6,33.677 6,33 6,21.816 13.118,11.91 23.712,8.35 l 0.637,1.896 C 14.57,13.532 8,22.676 8,33 c 0,0.626 0.024,1.258 0.072,1.878 z"
       id="path14"
       inkscape:connector-curvature="0" /><path
       d="m 32,59 c -2.851,0 -5.652,-0.458 -8.328,-1.363 l 0.641,-1.895 c 4.93,1.666 10.42,1.669 15.357,0.006 l 0.639,1.896 C 37.638,58.544 34.843,59 32,59 Z"
       id="path16"
       inkscape:connector-curvature="0" /><path
       d="M 57.918,35.08 55.924,34.921 C 55.975,34.29 56,33.644 56,33 56,22.7 49.449,13.562 39.7,10.262 L 40.341,8.367 C 50.903,11.942 58,21.841 58,33 c 0,0.697 -0.027,1.396 -0.082,2.08 z"
       id="path18"
       inkscape:connector-curvature="0" /></g></svg>