<?xml version="1.0" encoding="UTF-8" standalone="no"?>
<svg
   xmlns:dc="http://purl.org/dc/elements/1.1/"
   xmlns:cc="http://creativecommons.org/ns#"
   xmlns:rdf="http://www.w3.org/1999/02/22-rdf-syntax-ns#"
   xmlns:svg="http://www.w3.org/2000/svg"
   xmlns="http://www.w3.org/2000/svg"
   xmlns:sodipodi="http://sodipodi.sourceforge.net/DTD/sodipodi-0.dtd"
   xmlns:inkscape="http://www.inkscape.org/namespaces/inkscape"
   version="1.1"
   x="0px"
   y="0px"
   viewBox="0 0 500 625"
   style="enable-background:new 0 0 500 500;"
   xml:space="preserve"
   id="svg26"
   sodipodi:docname="support.svg"
   inkscape:version="0.92.3 (2405546, 2018-03-11)"><metadata
     id="metadata32"><rdf:RDF><cc:Work
         rdf:about=""><dc:format>image/svg+xml</dc:format><dc:type
           rdf:resource="http://purl.org/dc/dcmitype/StillImage" /></cc:Work></rdf:RDF></metadata><defs
     id="defs30" /><sodipodi:namedview
     pagecolor="#ffffff"
     bordercolor="#666666"
     borderopacity="1"
     objecttolerance="10"
     gridtolerance="10"
     guidetolerance="10"
     inkscape:pageopacity="0"
     inkscape:pageshadow="2"
     inkscape:window-width="640"
     inkscape:window-height="480"
     id="namedview28"
     showgrid="false"
     inkscape:zoom="0.3776"
     inkscape:cx="250"
     inkscape:cy="312.5"
     inkscape:window-x="0"
     inkscape:window-y="0"
     inkscape:window-maximized="0"
     inkscape:current-layer="svg26" /><title
     id="title2">icon-sea</title><g
     id="g20"
     transform="matrix(1.0613292,0,0,1.2542373,-11.359835,0)"><path
       d="m 340,275 h 22.5 v -87.5 h -25 v -100 h 25 L 250.6,0 137.5,87.5 h 25 v 100 h -25 V 275 H 160 l -20,200 h -27.5 v 25 h 25 225 25 V 475 H 360 Z m -162.4,75 h 144.8 l 5,50 H 172.6 Z M 237.5,212.5 V 250 h -25 v -37.5 z m 25,0 h 25 V 250 h -25 z m 50,0 H 325 337.5 V 250 h -25 z m -62,-180.8 39.4,30.8 h -79.3 z m -63,55.8 h 125 v 100 h -125 z m -25,125 H 175 187.5 V 250 h -25 z m 152.4,62.5 5,50 H 180.1 l 5,-50 z m -149.8,200 5,-50 h 159.8 l 5,50 z"
       id="path4"
       inkscape:connector-curvature="0" /><rect
       x="412.5"
       y="137.5"
       width="75"
       height="25"
       id="rect6" /><rect
       x="386.60001"
       y="81.300003"
       transform="matrix(0.866,-0.5,0.5,0.866,9.9446,224.6134)"
       width="75"
       height="25"
       id="rect8" /><rect
       x="411.60001"
       y="168.8"
       transform="matrix(0.5,-0.866,0.866,0.5,33.4322,470.4067)"
       width="25"
       height="75"
       id="rect10" /><rect
       x="12.5"
       y="137.5"
       width="75"
       height="25"
       id="rect12" /><rect
       x="63.400002"
       y="56.200001"
       transform="matrix(0.5,-0.866,0.866,0.5,-43.2411,112.6043)"
       width="25"
       height="75"
       id="rect14" /><rect
       x="38.400002"
       y="193.8"
       transform="matrix(0.866,-0.5,0.5,0.866,-92.9564,65.5807)"
       width="75"
       height="25"
       id="rect16" /><path
       d="m 250,100 c -20.7,0 -37.5,16.8 -37.5,37.5 0,20.7 16.8,37.5 37.5,37.5 20.7,0 37.5,-16.8 37.5,-37.5 0,-20.7 -16.8,-37.5 -37.5,-37.5 z m 0,50 c -6.9,0 -12.5,-5.6 -12.5,-12.5 0,-6.9 5.6,-12.5 12.5,-12.5 6.9,0 12.5,5.6 12.5,12.5 0,6.9 -5.6,12.5 -12.5,12.5 z"
       id="path18"
       inkscape:connector-curvature="0" /></g></svg>