<?xml version="1.0" encoding="UTF-8" standalone="no"?>
<svg
   xmlns:dc="http://purl.org/dc/elements/1.1/"
   xmlns:cc="http://creativecommons.org/ns#"
   xmlns:rdf="http://www.w3.org/1999/02/22-rdf-syntax-ns#"
   xmlns:svg="http://www.w3.org/2000/svg"
   xmlns="http://www.w3.org/2000/svg"
   xmlns:sodipodi="http://sodipodi.sourceforge.net/DTD/sodipodi-0.dtd"
   xmlns:inkscape="http://www.inkscape.org/namespaces/inkscape"
   version="1.1"
   x="0px"
   y="0px"
   viewBox="0 0 96 125"
   enable-background="new 0 0 96 100"
   xml:space="preserve"
   id="svg8"
   sodipodi:docname="supportchallenges.svg"
   inkscape:version="0.92.3 (2405546, 2018-03-11)"><metadata
     id="metadata14"><rdf:RDF><cc:Work
         rdf:about=""><dc:format>image/svg+xml</dc:format><dc:type
           rdf:resource="http://purl.org/dc/dcmitype/StillImage" /></cc:Work></rdf:RDF></metadata><defs
     id="defs12" /><sodipodi:namedview
     pagecolor="#ffffff"
     bordercolor="#666666"
     borderopacity="1"
     objecttolerance="10"
     gridtolerance="10"
     guidetolerance="10"
     inkscape:pageopacity="0"
     inkscape:pageshadow="2"
     inkscape:window-width="640"
     inkscape:window-height="480"
     id="namedview10"
     showgrid="false"
     inkscape:zoom="1.888"
     inkscape:cx="48"
     inkscape:cy="62.5"
     inkscape:window-x="0"
     inkscape:window-y="0"
     inkscape:window-maximized="0"
     inkscape:current-layer="svg8" /><path
     d="M 83.803,16.412371 C 74.896,6.2294131 63.023,0 50,0 22.43,0 0,27.894936 0,62.182203 0,96.46947 22.43,124.36441 50,124.36441 c 13.763,0 26.243,-6.95197 35.293,-18.17959 L 75.398,93.87896 C 68.883,101.9527 59.902,106.95339 50,106.95339 c -19.851,0 -36,-20.083608 -36,-44.771187 0,-24.687578 16.149,-44.771186 36,-44.771186 9.164,0 17.533,4.286841 23.895,11.323379 L 62,43.527542 H 82.713 96 V 37.824191 1.2436441 Z"
     id="path2"
     inkscape:connector-curvature="0"
     style="stroke-width:1.11518788" /></svg>