<?xml version="1.0" encoding="UTF-8" standalone="no"?>
<svg
   xmlns:dc="http://purl.org/dc/elements/1.1/"
   xmlns:cc="http://creativecommons.org/ns#"
   xmlns:rdf="http://www.w3.org/1999/02/22-rdf-syntax-ns#"
   xmlns:svg="http://www.w3.org/2000/svg"
   xmlns="http://www.w3.org/2000/svg"
   xmlns:sodipodi="http://sodipodi.sourceforge.net/DTD/sodipodi-0.dtd"
   xmlns:inkscape="http://www.inkscape.org/namespaces/inkscape"
   version="1.1"
   x="0px"
   y="0px"
   viewBox="0 0 100 125"
   enable-background="new 0 0 100 100"
   xml:space="preserve"
   id="svg8"
   sodipodi:docname="survivor.svg"
   inkscape:version="0.92.3 (2405546, 2018-03-11)"><metadata
     id="metadata14"><rdf:RDF><cc:Work
         rdf:about=""><dc:format>image/svg+xml</dc:format><dc:type
           rdf:resource="http://purl.org/dc/dcmitype/StillImage" /></cc:Work></rdf:RDF></metadata><defs
     id="defs12" /><sodipodi:namedview
     pagecolor="#ffffff"
     bordercolor="#666666"
     borderopacity="1"
     objecttolerance="10"
     gridtolerance="10"
     guidetolerance="10"
     inkscape:pageopacity="0"
     inkscape:pageshadow="2"
     inkscape:window-width="640"
     inkscape:window-height="480"
     id="namedview10"
     showgrid="false"
     inkscape:zoom="1.888"
     inkscape:cx="50"
     inkscape:cy="62.5"
     inkscape:window-x="0"
     inkscape:window-y="0"
     inkscape:window-maximized="0"
     inkscape:current-layer="svg8" /><path
     d="m 99.59322,64.036017 c 0,-10.049692 -1.908524,-19.537858 -5.280895,-27.952708 V 20.718383 c 0,-7.05917 -4.626728,-12.834854 -10.281616,-12.834854 H 71.587381 C 64.915898,3.7795842 57.411602,1.4661017 49.470339,1.4661017 c -7.941264,0 -15.445559,2.3134825 -22.117043,6.4174273 h -12.7235 c -5.6548891,0 -10.2816167,5.775684 -10.2816167,12.834854 v 16.049986 c -3.2027239,8.243185 -5.00072167,17.492302 -5.00072167,27.267648 0,9.775346 1.79799777,19.024463 5.00072167,27.267648 v 16.049985 c 0,7.05917 4.6267276,12.83485 10.2816167,12.83485 h 12.7235 c 6.671484,4.10395 14.175779,6.41743 22.117043,6.41743 7.941263,0 15.445559,-2.31348 22.117042,-6.41743 h 12.443328 c 5.654888,0 10.281616,-5.77568 10.281616,-12.83485 V 91.988726 C 97.684696,83.573874 99.59322,74.085708 99.59322,64.036017 Z m -12.816035,28.371446 -5.543077,-4.80505 c -0.436968,-0.378628 -1.038443,-0.242257 -1.34175,0.301621 -0.303308,0.543875 -0.194065,1.296319 0.241617,1.674947 l 5.600912,4.853179 c -0.813534,1.508096 -1.686186,2.963248 -2.612816,4.359039 L 80.027304,95.616177 C 79.61604,95.19423 79.008138,95.268031 78.67013,95.78303 c -0.339293,0.513394 -0.278889,1.272254 0.132377,1.6942 l 3.057495,3.13491 c -1.052581,1.45195 -2.170706,2.82688 -3.34281,4.12962 l -4.263016,-5.778896 c -0.361142,-0.489329 -0.970328,-0.518207 -1.362314,-0.06899 -0.391987,0.450825 -0.416406,1.211286 -0.05655,1.700616 l 4.215463,5.71472 c -1.235079,1.25781 -2.530563,2.42739 -3.873599,3.51354 l -2.693784,-5.41791 c -0.281458,-0.56633 -0.876508,-0.738 -1.327613,-0.38825 -0.452391,0.35135 -0.591193,1.09256 -0.311019,1.6573 l 2.692499,5.4147 c -1.39573,1.02519 -2.841582,1.95411 -4.331132,2.78196 l -1.846835,-6.26181 c -0.185069,-0.62409 -0.737707,-0.94175 -1.23765,-0.71233 -0.499943,0.23103 -0.755699,0.9209 -0.571915,1.54499 l 1.876396,6.36288 c -2.037046,1.00112 -4.147348,1.81614 -6.318054,2.429 V 95.478202 C 66.249937,92.062525 71.918963,84.985708 74.655158,76.070297 h 17.427341 c -0.542355,2.988918 -1.27492,5.887989 -2.192555,8.66834 l -3.37237,-2.003842 c -0.480666,-0.285576 -1.055151,-0.03048 -1.285202,0.569548 -0.228767,0.600029 -0.02442,1.317176 0.456246,1.602752 l 3.425064,2.034324 c -0.69915,1.880306 -1.475412,3.707668 -2.336497,5.466044 z M 24.284233,52.003341 H 6.8568936 C 10.558275,31.571858 23.46299,15.462511 39.830038,10.841963 v 21.755078 c -7.140583,3.414072 -12.809609,10.49089 -15.545805,19.4063 z M 5.7734685,64.036017 c 0,-2.448248 0.1426575,-4.854784 0.3945561,-7.219606 H 23.117271 c -0.406125,2.327922 -0.636176,4.73927 -0.636176,7.219606 0,2.480336 0.230051,4.891683 0.636176,7.219605 H 6.1680246 C 5.916126,68.8908 5.7734685,66.484265 5.7734685,64.036017 Z M 6.858179,76.068693 h 17.42734 c 2.736195,8.915411 8.405221,15.992228 15.547089,19.407905 V 117.23168 C 23.464274,112.60952 10.559561,96.500177 6.858179,76.068693 Z M 26.336702,64.036017 c 0,-15.924846 10.378007,-28.878423 23.133637,-28.878423 12.755631,0 23.133637,12.953577 23.133637,28.878423 0,15.924846 -10.378006,28.878422 -23.133637,28.878422 -12.75563,0 -23.133637,-12.953576 -23.133637,-28.878422 z m 49.486706,-7.219606 h 16.949245 c 0.2519,2.364822 0.394557,4.771358 0.394557,7.219606 0,2.448248 -0.142657,4.854783 -0.394557,7.219605 H 75.823408 c 0.406124,-2.327922 0.636175,-4.739269 0.636175,-7.219605 0,-2.480336 -0.230051,-4.891684 -0.636175,-7.219606 z m -1.166964,-4.81307 C 71.920249,43.087931 66.251223,36.011113 59.109355,32.595437 V 10.840359 C 75.476403,15.460906 88.381117,31.570252 92.0825,52.001737 H 74.656444 Z m 9.374265,-39.306742 c 3.543301,0 6.426009,3.598573 6.426009,8.021784 v 7.32068 C 87.086919,22.070856 82.906157,16.874344 78.108497,12.696599 Z M 55.253748,9.9804233 V 31.140285 c -1.864828,-0.508581 -3.796487,-0.795761 -5.783409,-0.795761 -1.986923,0 -3.918581,0.28718 -5.783409,0.795761 V 9.9804233 c 1.894388,-0.314454 3.82219,-0.4925376 5.783409,-0.4925376 1.961218,0 3.889022,0.1780836 5.783409,0.4925376 z M 8.2037849,20.718383 c 0,-4.423211 2.8827081,-8.021784 6.4260111,-8.021784 h 6.20367 c -4.931321,4.293259 -9.213613,9.659833 -12.6296811,15.836606 z m 6.4260111,94.657047 c -3.543303,0 -6.4260111,-3.59857 -6.4260111,-8.02178 V 99.538829 C 11.619853,105.7156 15.902145,111.08218 20.833466,115.37543 Z m 29.057134,2.71618 V 96.931749 c 1.864828,0.508582 3.796486,0.795761 5.783409,0.795761 1.986922,0 3.918581,-0.287179 5.783409,-0.795761 v 21.159861 c -1.894387,0.31445 -3.822191,0.49254 -5.783409,0.49254 -1.961219,0 -3.889021,-0.17809 -5.783409,-0.49254 z m 46.769788,-10.73796 c 0,4.42321 -2.882708,8.02178 -6.426009,8.02178 h -5.922212 c 4.79766,-4.17774 8.978422,-9.37586 12.348221,-15.34246 z"
     id="path2"
     inkscape:connector-curvature="0"
     style="stroke-width:1.43593967" /></svg>